<svg xmlns="http://www.w3.org/2000/svg" viewBox="0 0 500 500"><g id="background-complete"><rect y="382.4" width="500" height="0.25" style="fill:#ebebeb"></rect><path d="M237,337.8H43.91a5.71,5.71,0,0,1-5.7-5.71V60.66A5.71,5.71,0,0,1,43.91,55H237a5.71,5.71,0,0,1,5.71,5.71V332.09A5.71,5.71,0,0,1,237,337.8ZM43.91,55.2a5.46,5.46,0,0,0-5.45,5.46V332.09a5.46,5.46,0,0,0,5.45,5.46H237a5.47,5.47,0,0,0,5.46-5.46V60.66A5.47,5.47,0,0,0,237,55.2Z" style="fill:#ebebeb"></path><path d="M453.31,337.8H260.21a5.72,5.72,0,0,1-5.71-5.71V60.66A5.72,5.72,0,0,1,260.21,55h193.1A5.71,5.71,0,0,1,459,60.66V332.09A5.71,5.71,0,0,1,453.31,337.8ZM260.21,55.2a5.47,5.47,0,0,0-5.46,5.46V332.09a5.47,5.47,0,0,0,5.46,5.46h193.1a5.47,5.47,0,0,0,5.46-5.46V60.66a5.47,5.47,0,0,0-5.46-5.46Z" style="fill:#ebebeb"></path><rect x="52.46" y="398.49" width="33.21" height="0.25" style="fill:#ebebeb"></rect><rect x="146.33" y="397.5" width="54.1" height="0.25" style="fill:#ebebeb"></rect><rect x="86.67" y="389.21" width="19.11" height="0.25" style="fill:#ebebeb"></rect><rect x="435.12" y="390.89" width="14.78" height="0.25" style="fill:#ebebeb"></rect><rect x="391.47" y="390.89" width="34.74" height="0.25" style="fill:#ebebeb"></rect><rect x="267.33" y="395.11" width="45.45" height="0.25" style="fill:#ebebeb"></rect><path d="M236.87,229.78c26.37-38.78-5.62-123.68,23.55-146,33.14-25.34,63.21,10.64,64.69,51.42s14.2,66.07,48.75,110.36,34.26,108.13,31.9,136.83H190.67C185,315.74,210.49,268.55,236.87,229.78Z" style="fill:#e0e0e0"></path><path d="M257.68,97.64c-21,0-63.43-9.44-76.63-28.75,5.88,18.26,31.69,33.15,70,43.64A122.15,122.15,0,0,0,257.68,97.64Z" style="fill:#e0e0e0"></path><path d="M308.64,96.29c20.93-2,62.23-15.48,73.53-36-4.11,18.74-28.37,36-65.48,50.15A121.86,121.86,0,0,1,308.64,96.29Z" style="fill:#e0e0e0"></path><path d="M279.39,88.73C300,83.79,310,99,310.49,113.53s-7,6.87-4.83,20.39,9.39,43.36-.52,48.65-27.43,2.61-26.61-17.38,1.74-26.77-.78-31.65-9.5-4.28-11.22-11.41S257.81,93.92,279.39,88.73Z" style="fill:#fff"></path><path d="M285.22,118.19a46.25,46.25,0,0,0-16.36-4.82C270.12,119.25,279.35,123.54,285.22,118.19Z" style="fill:#e0e0e0"></path><path d="M296,117.79a40.94,40.94,0,0,1,10.77-10.69C308.28,112.25,302.87,119.51,296,117.79Z" style="fill:#e0e0e0"></path><path d="M153.89,247.78c9.45-21.41,6.19-53.34-7.25-65.69s-51-30.31-52.25-51.35S132.22,88,118.87,68.89c5.39,10.16-8.62,21.13-30.54,33.48s-19.79,38.44-6.61,56.71,53.27,33.73,47.7,53.34-9.77,32.39-33.5,45.36-40.16,55.7-40.16,55.7S76,373.91,82.61,382.4h86.14c-4.44-7.61-26.21-16.52-32.59-21.7s-18.56-42.76-20.54-58.64S144.45,269.19,153.89,247.78Z" style="fill:#f0f0f0"></path><path d="M355.8,258.59c-8.69-19.69-5.69-49.07,6.67-60.42s44.07-17.09,55.2-48.58c6.45-18.27-18.58-54.43.31-64.55-8.64,6.09-1.7,20.92,11.16,40.15s11.55,43.46-.57,60.27-41.81,33-42.87,47.95c-.81,11.47,15.39,30.35,38.1,40.48C448,284.66,446.06,319,446.06,319s-18.6,55.58-24.7,63.39H342.13c4.09-7,17.33-15,22.7-20.3s29.55-24.55,22.19-50.3C383,297.64,364.48,278.28,355.8,258.59Z" style="fill:#f0f0f0"></path><path d="M164.46,84.26a14.2,14.2,0,0,1-20.08,0,14,14,0,0,1-3.84-7.08,16.83,16.83,0,0,0,1.48,1.7c5.55,5.54,13.86,6.22,18.57,1.52s4-13-1.52-18.56a17,17,0,0,0-1.71-1.5,14.2,14.2,0,0,1,7.1,23.93Z" style="fill:#f0f0f0"></path><path d="M69.26,72.57c0,8.89,1.28,11.49,4.17,8.45-2.89,3,0,3.46,9.32,1.36C73.4,84.48,71.33,86.5,76,89c-4.68-2.45-4.19.4,1.59,9.29-5.78-8.89-8.34-10.24-8.34-4.38,0-5.86-2.57-4.51-8.35,4.38,5.78-8.89,6.27-11.74,1.6-9.29,4.67-2.45,2.6-4.47-6.75-6.57C65.11,84.48,68,84.06,65.08,81,68,84.06,69.26,81.46,69.26,72.57Z" style="fill:#f0f0f0"></path><path d="M437,225.29c0,8.89,1.28,11.49,4.17,8.45-2.89,3,0,3.45,9.33,1.35-9.35,2.1-11.43,4.12-6.75,6.58-4.68-2.46-4.19.4,1.59,9.29-5.78-8.89-8.34-10.24-8.34-4.38,0-5.86-2.56-4.51-8.34,4.38,5.78-8.89,6.27-11.75,1.59-9.29,4.68-2.46,2.6-4.48-6.75-6.58,9.35,2.1,12.22,1.69,9.33-1.35C435.74,236.78,437,234.18,437,225.29Z" style="fill:#f0f0f0"></path><path d="M216.88,62.32c0,6.52.94,8.43,3.06,6.2-2.12,2.23,0,2.53,6.85,1-6.86,1.54-8.39,3-4.95,4.83-3.44-1.8-3.08.29,1.16,6.81-4.24-6.52-6.12-7.51-6.12-3.21,0-4.3-1.88-3.31-6.12,3.21,4.24-6.52,4.6-8.61,1.17-6.81,3.43-1.8,1.91-3.29-5-4.83,6.86,1.54,9,1.24,6.84-1C215.94,70.75,216.88,68.84,216.88,62.32Z" style="fill:#f0f0f0"></path><path d="M435.6,62.32c0,7.77,1.12,10,3.65,7.39-2.53,2.65,0,3,8.15,1.18-8.17,1.84-10,3.6-5.9,5.75-4.09-2.15-3.66.35,1.39,8.13-5.05-7.78-7.29-9-7.29-3.84,0-5.12-2.24-3.94-7.29,3.84,5.05-7.78,5.48-10.28,1.39-8.13,4.09-2.15,2.28-3.91-5.9-5.75,8.18,1.84,10.68,1.47,8.15-1.18C434.48,72.36,435.6,70.09,435.6,62.32Z" style="fill:#f0f0f0"></path><path d="M174.47,255c0,7.77,1.12,10,3.64,7.39-2.52,2.65,0,3,8.16,1.18-8.18,1.84-10,3.6-5.9,5.75-4.09-2.15-3.66.35,1.39,8.12-5-7.77-7.29-8.95-7.29-3.83,0-5.12-2.24-3.94-7.3,3.83,5.06-7.77,5.48-10.27,1.4-8.12,4.08-2.15,2.27-3.91-5.9-5.75,8.17,1.84,10.68,1.47,8.15-1.18C173.35,265.05,174.47,262.78,174.47,255Z" style="fill:#f0f0f0"></path><path d="M401.26,115.27c0,6.53.94,8.43,3.05,6.2-2.11,2.23,0,2.54,6.85,1-6.86,1.54-8.38,3-5,4.82-3.43-1.8-3.07.29,1.16,6.82-4.23-6.53-6.11-7.51-6.11-3.22,0-4.29-1.88-3.31-6.12,3.22,4.24-6.53,4.59-8.62,1.16-6.82,3.43-1.8,1.91-3.28-4.95-4.82,6.86,1.54,9,1.23,6.85-1C400.32,123.7,401.26,121.8,401.26,115.27Z" style="fill:#f0f0f0"></path><path d="M202.53,120.51c0,6.53.94,8.43,3.06,6.2-2.12,2.23,0,2.54,6.84,1-6.86,1.54-8.38,3-5,4.82-3.43-1.8-3.07.29,1.17,6.82-4.24-6.53-6.12-7.51-6.12-3.22,0-4.29-1.88-3.31-6.12,3.22,4.24-6.53,4.6-8.62,1.17-6.82,3.43-1.8,1.91-3.28-5-4.82,6.86,1.54,9,1.23,6.84-1C201.59,128.94,202.53,127,202.53,120.51Z" style="fill:#f0f0f0"></path></g><g id="background-simple"><path d="M114.26,184c6.39,17.19,0,39,2,57.54s7.77,37,18.32,51.64C160.43,329,206,316.39,252,308.79c36.65-6,92.08,6.6,118.34-28.58,26.59-35.63,14.9-86.43,6.81-119.35-7.48-30.43-21.74-82.6-63.37-85.43-47.5-3.24-77.95,65.1-116.83,36.65-31.06-22.73-78.35-41.67-118.77-4C35.36,148.09,103.71,155.57,114.26,184Z" style="fill:#407BFF"></path><path d="M114.26,184c6.39,17.19,0,39,2,57.54s7.77,37,18.32,51.64C160.43,329,206,316.39,252,308.79c36.65-6,92.08,6.6,118.34-28.58,26.59-35.63,14.9-86.43,6.81-119.35-7.48-30.43-21.74-82.6-63.37-85.43-47.5-3.24-77.95,65.1-116.83,36.65-31.06-22.73-78.35-41.67-118.77-4C35.36,148.09,103.71,155.57,114.26,184Z" style="fill:#fff;opacity:0.9"></path></g><g id="Shadow"><ellipse id="path" cx="250" cy="416.24" rx="193.89" ry="11.32" style="fill:#f5f5f5"></ellipse></g><g id="character-1"><path d="M154.57,114.27c6.12-2.94,10.73-5.86,11.6-5.75s4.74-1.7,5.7-2.13,6.93-3.38,7.7-3.57,7.81-1,9.72-1.22,3.71-1.43,6.5-1.91,11.3,0,14.92-.66c-4.57,3-12.66,8.75-15,9.66s-4.52,4.84-6.18,6.08-8.75,3.55-9.87,4.74-2.83,5.09-4.29,6-4.32,5-4.32,5S155.82,122.61,154.57,114.27Z" style="fill:#263238"></path><path d="M154.7,112.89c1.93-2,9.16-5,12-5.47,4.67,3.53,9.24,10.11,11.22,16.14-1.07,3.64-6.61,7.58-6.61,7.58S158.74,120.81,154.7,112.89Z" style="fill:#407BFF"></path><path d="M168.58,126.55a1,1,0,0,1-.75-.36l-7.61-9.52a1,1,0,0,1-.2-.71,1,1,0,0,1,.36-.65c4.5-3.46,11.86-6,12.17-6.09a1,1,0,0,1,1,.27c.14.16,3.47,3.94,4.64,7.47a1,1,0,0,1,0,.69c-1.9,4.34-8.8,8.58-9.09,8.76A1,1,0,0,1,168.58,126.55Zm-6.24-10.3,6.45,8.07c1.7-1.13,6-4.17,7.47-7.11a23.92,23.92,0,0,0-3.71-6A50.78,50.78,0,0,0,162.34,116.25Z" style="fill:#263238"></path><path d="M179.53,145.71c-2.44,1.83-12.21-7.09-21.82-19.92s-15.42-24.72-13-26.55,12.22,7.09,21.82,19.92S182,143.88,179.53,145.71Z" style="fill:#263238"></path><path d="M156.5,114.76c-12.75-3.68-27.78,5.82-30.31,20a23.2,23.2,0,0,1,9.23-8.61s-18,13.44-5.08,31.44c1.08-2.25,4.08-8.33,4.08-8.33s5.67,12.83,24.5,21.33c4-3.83,3.75-14.5,3.75-14.5s2.75-.33,4.5,5.67c2.58-6.33,4.68-22.38,2-29C163.84,124.17,156.5,114.76,156.5,114.76Z" style="fill:#e0e0e0"></path><path d="M99.11,215.79S70.83,218,56,226.48c-28.18,16.15,18.91,83.27,18.91,83.27a22.51,22.51,0,0,0,9.93-4.18s-.37-47.24-12.65-54c70.62,4.62,64.89-29.91,64.89-29.91Z" style="fill:#ce7a63"></path><path d="M113.89,217.92s-3.69,66.93-2.18,96c1.59,30.53,2.11,85.89,2,88.09,4.07.78,8.15-2.92,10.3-5.58,0,0,21.92-49,16.29-85.39,14.36-66.39,3.75-88.4,3.75-88.4Z" style="fill:#ce7a63"></path><path d="M115,122.42l1.33-3.68a8,8,0,0,1,2.39-3.44l2-1.74a3.7,3.7,0,0,1,4.71,0l2.08,1.7a3.68,3.68,0,0,1,.49,5.22l-1.46,1.74s-3.47,5.33-8.24,7l-1-1A6.91,6.91,0,0,1,115,122.42Z" style="fill:#ce7a63"></path><path d="M124.84,171.54l-1.34-.23-1.19-.24c-.79-.16-1.56-.35-2.33-.54-1.54-.38-3-.84-4.55-1.32a64.84,64.84,0,0,1-8.87-3.63,50.06,50.06,0,0,1-8.48-5.28,37.72,37.72,0,0,1-3.94-3.49c-.63-.64-1.24-1.31-1.83-2-.3-.34-.57-.72-.86-1.08l-.42-.55-.15-.21c-.14-.18-.27-.37-.39-.56a7.29,7.29,0,0,1-.64-1.2,9.25,9.25,0,0,1-.77-4.51,11,11,0,0,1,.62-2.85,14.45,14.45,0,0,1,1.72-3.32,31.47,31.47,0,0,1,3.44-4.17,69.68,69.68,0,0,1,7-6.14,112.67,112.67,0,0,1,14.8-9.73,4,4,0,0,1,4.91,6.3l-.08.08c-3.81,4.09-7.78,8.16-11.39,12.23-1.82,2-3.55,4.09-5,6a17.3,17.3,0,0,0-1.67,2.67c-.15.34-.22.64-.13.51a1.84,1.84,0,0,0,.18-.75,5,5,0,0,0-.42-2.43,7.24,7.24,0,0,0-.38-.73l-.24-.34c-.07-.09,0,0,0,0l0,0,.26.27c.18.18.34.36.54.53.37.35.76.69,1.17,1a32.46,32.46,0,0,0,2.66,1.93,45.86,45.86,0,0,0,6.28,3.29,74.53,74.53,0,0,0,7,2.58c1.21.39,2.44.72,3.66,1.06l1.83.47,1.65.39.55.13a8.07,8.07,0,0,1-3.26,15.8Z" style="fill:#ce7a63"></path><path d="M114.75,164.63c-1.16,3.66-9.9,9.91-4.65,17.32-2.39,2.45-12.45,19.51-11,33.84,3.62,3.63,25.8,6.44,44.49,6.84.11-9.34,4.21-22,17.57-43.47a9.86,9.86,0,0,0-4.07-14.09c-1.41-.68-2.91-1.37-4.47-2a123.34,123.34,0,0,0-16.65-6.1c-1.86-.49-3.8-.94-5.66-1.35A13.41,13.41,0,0,0,114.75,164.63Z" style="fill:#407BFF"></path><path d="M114.75,164.63c-1.16,3.66-9.9,9.91-4.65,17.32-2.39,2.45-12.45,19.51-11,33.84,3.62,3.63,25.8,6.44,44.49,6.84.11-9.34,4.21-22,17.57-43.47a9.86,9.86,0,0,0-4.07-14.09c-1.41-.68-2.91-1.37-4.47-2a123.34,123.34,0,0,0-16.65-6.1c-1.86-.49-3.8-.94-5.66-1.35A13.41,13.41,0,0,0,114.75,164.63Z" style="fill:#fff;opacity:0.2"></path><path d="M160,144.48c-3.28,4.87-7.78,13.13-7.37,18.56,0,0-7.21-2.25-20.27,2.12-2.2-8.73,3-8.38,3-8.38,4.57.55,7.1-4.32,8.56-8.3Z" style="fill:#ce7a63"></path><path d="M118.77,186c-3.43,0-5.84-1.74-6.69-4.86-1.46-5.42,2.17-14.24,9-17.5,2.17-1,3.46-2.95,4.71-4.81,2.08-3.11,4-6,9.41-2.62a.5.5,0,0,1,.15.69.49.49,0,0,1-.69.16c-4.54-2.9-6-.71-8,2.33-1.27,1.88-2.7,4-5.11,5.16-6.45,3.05-9.87,11.28-8.5,16.33.56,2.07,2.16,4.46,6.57,4.08,4.25-.37,5.78-2.64,7.55-5.26,1.62-2.4,3.45-5.12,7.67-6.59,2.25-.79,3.78-2.66,5.41-4.64,2.86-3.49,6.11-7.45,14.06-5.64a.5.5,0,1,1-.22,1c-7.35-1.68-10.26,1.87-13.07,5.29-1.64,2-3.33,4.07-5.86,4.95-3.9,1.37-5.55,3.83-7.16,6.21-1.83,2.72-3.57,5.29-8.29,5.69C119.39,185.94,119.08,186,118.77,186Z" style="fill:#263238"></path><path d="M121.51,185.25a1.51,1.51,0,0,1,.75-2h0a1.51,1.51,0,0,1,2,.75h0a1.51,1.51,0,0,1-.75,2h0a1.5,1.5,0,0,1-.62.13h0A1.51,1.51,0,0,1,121.51,185.25Zm-9-1.07a1.5,1.5,0,0,1,.26-2.1h0a1.51,1.51,0,0,1,2.11.26h0a1.52,1.52,0,0,1-.27,2.11h0a1.5,1.5,0,0,1-.92.31h0A1.48,1.48,0,0,1,112.49,184.18Zm16-5.72a1.49,1.49,0,0,1-.17-2.11h0a1.5,1.5,0,0,1,2.11-.18h0a1.52,1.52,0,0,1,.18,2.12h0a1.47,1.47,0,0,1-1.14.53h0A1.5,1.5,0,0,1,128.53,178.46Zm-15.9-3.38a1.51,1.51,0,0,1-.92-1.91h0a1.5,1.5,0,0,1,1.91-.93h0a1.5,1.5,0,0,1,.92,1.91h0a1.51,1.51,0,0,1-1.42,1h0A1.67,1.67,0,0,1,112.63,175.08Zm24-2.2a1.5,1.5,0,0,1,.15-2.12h0a1.5,1.5,0,0,1,2.12.15h0a1.5,1.5,0,0,1-.16,2.12h0a1.5,1.5,0,0,1-1,.36h0A1.48,1.48,0,0,1,136.62,172.88Zm-19-6.36a1.52,1.52,0,0,1,.27-2.11h0a1.51,1.51,0,0,1,2.11.28h0a1.5,1.5,0,0,1-.28,2.1h0a1.47,1.47,0,0,1-.91.31h0A1.51,1.51,0,0,1,117.63,166.52Zm25.78-1a1.5,1.5,0,0,1,.35-2.09h0a1.49,1.49,0,0,1,2.09.35h0a1.49,1.49,0,0,1-.35,2.09h0a1.48,1.48,0,0,1-.87.28h0A1.49,1.49,0,0,1,143.41,165.54Zm10.46-.8a1.49,1.49,0,0,1-1.13-1.79h0a1.49,1.49,0,0,1,1.79-1.13h0a1.49,1.49,0,0,1,1.13,1.79h0a1.5,1.5,0,0,1-1.46,1.17h0A1.24,1.24,0,0,1,153.87,164.74Zm-28.49-4.38a1.51,1.51,0,0,1-.42-2.09h0a1.51,1.51,0,0,1,2.08-.41h0a1.51,1.51,0,0,1,.42,2.09h0a1.49,1.49,0,0,1-1.25.67h0A1.47,1.47,0,0,1,125.38,160.36Zm8.18-2.86a1.5,1.5,0,0,1-.56-2.05h0a1.5,1.5,0,0,1,2-.57h0a1.52,1.52,0,0,1,.57,2.05h0a1.51,1.51,0,0,1-1.31.76h0A1.54,1.54,0,0,1,133.56,157.5Z" style="fill:#263238"></path><path d="M143.89,148.48l9.17-2.28a6.94,6.94,0,0,1-1.86,3,14.86,14.86,0,0,1-9.43,3.77A24.94,24.94,0,0,0,143.89,148.48Z" style="opacity:0.2"></path><path d="M167.09,135.93c-5.28,7.95-7.35,11.42-13.88,13.28-9.83,2.79-18.23-5.33-15.38-14.67,2.56-8.4,10.77-20,20.57-18.67S172.37,128,167.09,135.93Z" style="fill:#ce7a63"></path><path d="M164.07,124.54c-5.69-.46-18.53-4.89-20.23-7.1,3.45-3.19,12.33-2,12.33-2S162.51,122,164.07,124.54Z" style="fill:#e0e0e0"></path><path d="M160,141.88c-.21-2.67,3.17-7.09,3.17-7.09l1.92,5.5Z" style="fill:#e0e0e0"></path><path d="M153.68,132.13c-.39.67-1.06,1-1.5.76s-.48-1-.09-1.68,1.06-1,1.5-.75S154.07,131.46,153.68,132.13Z" style="fill:#263238"></path><path d="M145.36,127.46c-.38.67-1.06,1-1.49.75s-.48-1-.09-1.67,1.06-1,1.5-.75S145.75,126.79,145.36,127.46Z" style="fill:#263238"></path><path d="M145.45,125.94l-1.34-1.4S144.2,126.27,145.45,125.94Z" style="fill:#263238"></path><path d="M147.29,128.83a20.48,20.48,0,0,1-4.87,2.89c.4,1.34,2.13,1.84,2.13,1.84Z" style="fill:#ba4d3c"></path><path d="M147,138.27a7.73,7.73,0,0,1-1.18-.55.23.23,0,0,1-.08-.31.23.23,0,0,1,.31-.09,6.12,6.12,0,0,0,5.54.44.23.23,0,0,1,.2.41A6.37,6.37,0,0,1,147,138.27Z" style="fill:#263238"></path><path d="M164.76,144.28a6.15,6.15,0,0,1-4.68,1.86c-2.2-.18-2.38-2.72-1-4.73,1.24-1.8,3.87-3.88,5.7-2.72S166.39,142.66,164.76,144.28Z" style="fill:#ce7a63"></path><path d="M162.67,123.66c-3.17,1.6-3.71,6.51-3.48,10.8a6.12,6.12,0,0,1,4,.33s1,9.21-2.83,16c5.11-3.11,10.11-11.72,9.55-15.66A77.93,77.93,0,0,0,162.67,123.66Z" style="fill:#e0e0e0"></path><path d="M167.38,120.92a23,23,0,0,0-16.33-9.64,91.32,91.32,0,0,1,11.27,13.27,96.76,96.76,0,0,1,8.15,13.55S173.91,130.09,167.38,120.92Z" style="fill:#263238"></path><path d="M155.18,125.84a.47.47,0,0,1,.33.14,3.58,3.58,0,0,0,3.06,1.21.48.48,0,0,1,.53.37.46.46,0,0,1-.37.53,4.49,4.49,0,0,1-3.89-1.49.45.45,0,0,1,0-.64A.47.47,0,0,1,155.18,125.84Z" style="fill:#263238"></path><path d="M143.37,122.68a.46.46,0,0,1-.17-.29.46.46,0,0,1,.37-.53,4.52,4.52,0,0,1,4,1.17.45.45,0,0,1,0,.64.46.46,0,0,1-.64,0,3.58,3.58,0,0,0-3.17-.89A.48.48,0,0,1,143.37,122.68Z" style="fill:#263238"></path><path d="M153.76,130.61l-1.34-1.4S152.52,131,153.76,130.61Z" style="fill:#263238"></path><path d="M177.75,226.47l-.83,6.39,10.55-.71s-.43-6.32-3.68-10.07l-1.33.36A7,7,0,0,0,177.75,226.47Z" style="fill:#ce7a63"></path><path d="M181.75,238.06l3.62-.72a3.07,3.07,0,0,0,2.41-3.58l-.31-1.61-10.55.71,1.41,3.38A3,3,0,0,0,181.75,238.06Z" style="fill:#ce7a63"></path><path d="M159.22,168.22l1.55,1.21,1.41,1.19c.94.79,1.83,1.63,2.73,2.45,1.77,1.68,3.5,3.41,5.14,5.24s3.24,3.73,4.75,5.73a65.06,65.06,0,0,1,4.26,6.35l.42.69a3.36,3.36,0,0,1,.34.78c.22.75.48,1.54.66,2.24s.39,1.43.53,2.12c.32,1.38.61,2.74.89,4.1.55,2.7,1,5.4,1.42,8.09s.77,5.38,1.08,8.09.56,5.4.7,8.15a4.06,4.06,0,0,1-7.79,1.81v0c-1.06-2.48-2-5-3-7.51s-1.87-5-2.78-7.52l-2.68-7.47c-.44-1.23-.89-2.44-1.34-3.62l-.68-1.73c-.22-.57-.44-1-.66-1.55l.76,1.47c-1.25-1.55-2.59-3.08-4-4.61-.71-.75-1.43-1.51-2.18-2.25s-1.48-1.5-2.24-2.23c-1.54-1.46-3.08-2.94-4.67-4.37l-4.67-4.17-.32-.27a8.08,8.08,0,0,1,10.36-12.38Z" style="fill:#ce7a63"></path><path d="M125.19,391.13s4.46.46,4.39,5.78-2.76,19.94-2.76,19.94h-2.14s.14-7.44,0-12.46a.64.64,0,0,0-1.25-.15c-1.76,6.15-5.52,12.61-19.58,12.61-3.71,0,5.74-10.59,7.87-17s2.85-8.7,2.85-8.7Z" style="fill:#263238"></path><path d="M113.51,378.66l12.2,11.8c-1.42,7.17-8.31,16.51-14,19.49-1.54.79-3.79-.16-3.26-1.36C113.39,397.16,113.51,378.66,113.51,378.66Z" style="fill:#ce7a63"></path><path d="M82.67,299.3s4-2.1,6.86,2.36,8.79,18.11,8.79,18.11L96.55,321s-4-6.26-6.91-10.36a.64.64,0,0,0-1.13.56c2,6.09,2.43,13.55-9.26,21.37-3.08,2.06-1.12-12-2.92-18.53s-2.47-8.81-2.47-8.81Z" style="fill:#263238"></path><path d="M65.35,294.51,84,298.22c1.35,7.19,1,18.57-2.12,24.24-.84,1.51-3.24,2-3.47.68C76.22,310.87,65.35,294.51,65.35,294.51Z" style="fill:#ce7a63"></path><path d="M100.17,214.17c-19.5,5.5-51-.17-56.17,17.41s-1,34.09,8.17,41.75,17-13.29,22.51,0c6.81,16.5,16.34-6.61,19.21,20.23,1.75,16.38,12.67,24.88,21,18.88s12.63-6.26,19.45,4.23,20,15.66,15.33,0,3.67-35.63,6.17-53.9-7.43-38.4-12.13-42.42C125.5,215.67,100.17,214.17,100.17,214.17Z" style="fill:#263238"></path><path d="M98.11,210.56a5.2,5.2,0,0,0,0,4.14s39.08,4.29,46.9,7a7.6,7.6,0,0,0-.57-6.46S113.56,208.06,98.11,210.56Z" style="fill:#407BFF"></path></g><g id="character-2"><path d="M262,124.5c-3.43-5.86-5.61-10.86-6.39-11.26s-2.48-4.26-2.89-5.22-2.74-7.22-3.17-7.89-5-6-6.25-7.54-1.73-3.57-3.42-5.84S231.67,79,229.47,76.06c1.25,5.35,3.24,15,4.36,17.34s0,6.62.34,8.66,4,8.58,4,10.21-.28,8.36.43,9.91.79,6.56.79,6.56S256.33,130.71,262,124.5Z" style="fill:#263238"></path><path d="M262.7,123.28c-.46-2.77-4.77-9.3-6.9-11.25-5.85.32-13.31,3.22-18.33,7.1-1.14,3.61,1.24,10,1.24,10S254.92,127.58,262.7,123.28Z" style="fill:#407BFF"></path><path d="M244.09,127a1,1,0,0,1-.87-.56c-.15-.31-3.49-7.68-2.64-12.35a.92.92,0,0,1,.36-.58c2.93-2.28,7.81-3.55,8-3.6a1,1,0,0,1,1,.35c.2.26,4.88,6.46,6.67,11.85a1,1,0,0,1-.62,1.22L244.37,127A.9.9,0,0,1,244.09,127Zm-1.68-12.2c-.4,3.28,1.44,8.19,2.22,10.07l9.85-3.07a50.25,50.25,0,0,0-5.66-9.86A23.73,23.73,0,0,0,242.41,114.8Z" style="fill:#263238"></path><path d="M223.76,136.59c1,2.89,14.09,1,29.23-4.3s26.6-11.87,25.6-14.75-14.09-1-29.23,4.3S222.75,133.71,223.76,136.59Z" style="fill:#263238"></path><path d="M241.06,129.94c-3.39,4.09-9.84,11.84-8.34,18.95s-28.28,7.69-45.47,31.76,16.64,37.68,16.64,37.68-.08-10.78,5.63-14.61c-3.63,3.17.7,17.53-5,21.27,10.66-.94,45.67-2.73,48.76-27.87s19.24-29,17.57-49-9.37-24.54-9.37-24.54S245.63,124.43,241.06,129.94Z" style="fill:#263238"></path><path d="M252.82,229.55s5.82,41.93,11,69.47c5.46,28.91,25.85,94.13,26.73,96.08l-7.73-.88s-34.67-50.74-35.47-84.76c-13.53-20.76-21.18-44.33-23.57-57.74-3-17,3.75-32.12,3.75-32.12Z" style="fill:#ffc3bd"></path><path d="M295.08,154.26l-.79-2.32a8.23,8.23,0,0,1,1.19-7.61h0a2.94,2.94,0,0,1,3.18-1.08l3.42,1a3,3,0,0,1,2.1,3.43l-.34,1.7s-.52,6.07-3.48,9.49l-1.18-.42A6.76,6.76,0,0,1,295.08,154.26Z" style="fill:#ffc3bd"></path><path d="M267.24,177l.59.42.76.52c.52.35,1.05.71,1.59,1,1.09.68,2.22,1.3,3.37,1.87a39.52,39.52,0,0,0,7,2.8,28.65,28.65,0,0,0,7.14,1.14,27.79,27.79,0,0,0,3.54-.14l.88-.13.22,0h0l-.12,0-.25.08-.44.19a3.36,3.36,0,0,0-.36.22c-.82.62-.66.75-.58.58a9.86,9.86,0,0,0,1.06-2.68,39.13,39.13,0,0,0,.83-3.87c.51-2.71.81-5.58,1.12-8.47.56-5.78.92-11.74,1.29-17.62v-.07a3.33,3.33,0,0,1,6.61-.36,140.33,140.33,0,0,1,1.95,18.32,93.73,93.73,0,0,1-.06,9.47,48.48,48.48,0,0,1-.58,5c-.15.87-.33,1.76-.59,2.72a16.88,16.88,0,0,1-1.16,3.11A11.45,11.45,0,0,1,300,193a9,9,0,0,1-2.26,2.12,8.11,8.11,0,0,1-.84.49,6.14,6.14,0,0,1-1,.4l-.51.16-.34.1-.33.08-1.33.32a36.3,36.3,0,0,1-5.4.72,38.15,38.15,0,0,1-10.65-1,46,46,0,0,1-9.79-3.5,47.92,47.92,0,0,1-4.48-2.51c-.73-.45-1.45-.92-2.17-1.42l-1.06-.8-.55-.42-.64-.52a6.69,6.69,0,0,1,8.12-10.62Z" style="fill:#ffc3bd"></path><path d="M216.88,217.62s-9.53,6.27-13,23.14c-2.78,13.34-1,33.79,1.68,61.62-15.47,27.79-.23,94.51-.23,94.51l6.81-2.78c-1-13.06,7.8-64.14,13.5-93,5.41-27.49,19.72-79.82,19.72-79.82Z" style="fill:#ffc3bd"></path><path d="M204.53,391.13s-2.8.46-2.76,5.78,1.74,19.94,1.74,19.94h1.34s-.17-14.21.16-16.6c1,6.93,2.11,16.6,12.92,16.6,2.32,0-3.61-10.58-5-17s-1.79-8.7-1.79-8.7Z" style="fill:#263238"></path><path d="M210.87,384.09l-6.48,6.49c.89,7.18,5,16.39,8.64,19.37a1.3,1.3,0,0,0,2.05-1.36A155.51,155.51,0,0,1,210.87,384.09Z" style="fill:#ffc3bd"></path><path d="M282.08,391.13s-2.71.46-1.5,5.78,6.1,19.94,6.1,19.94H288s-3.28-14.21-3.48-16.6c2.5,6.93,5.74,16.6,16.55,16.6,2.33,0-5.92-10.58-8.67-17s-3.7-8.7-3.7-8.7Z" style="fill:#263238"></path><path d="M287,384.11,281.6,391c2.46,7.18,8.83,15.93,13.1,18.91,1.13.79,2.34-.16,1.75-1.36A172.84,172.84,0,0,1,287,384.11Z" style="fill:#ffc3bd"></path><path d="M268.71,186.14c-.93,3.61,3.05,13.25-5.08,16.63-2.38,7.19-5,15.71-10.81,26.78l-35.94-11.93c6.14-12.35,6.14-18.87,6.18-43.38a9.56,9.56,0,0,1,10.59-9.5c1.51.16,3.1.37,4.72.63a120.89,120.89,0,0,1,16.83,3.54c1.78.55,3.61,1.17,5.35,1.8A13,13,0,0,1,268.71,186.14Z" style="fill:#407BFF"></path><path d="M253.74,200.88l-.11,0a.39.39,0,0,1-.27-.37c.3-11.39-7.19-26.66-17.44-35.52a.38.38,0,0,1,0-.53.37.37,0,0,1,.53,0c10,8.63,17.4,23.29,17.7,34.7,5.64-10.09,7.19-20.56,4.24-28.92a.38.38,0,0,1,.23-.48.38.38,0,0,1,.47.23c3.15,8.91,1.33,20.12-5,30.76A.37.37,0,0,1,253.74,200.88Z" style="fill:#fff"></path><path d="M257.88,207.23a5.28,5.28,0,0,1-.61,1.41,6.25,6.25,0,0,0-3.91-5.71,4.85,4.85,0,0,0-6,2,5.28,5.28,0,0,1,.19-1.57,4.88,4.88,0,0,1,6.58-3.36A6.2,6.2,0,0,1,257.88,207.23Z" style="fill:#fff"></path><path d="M244,146.77c-.08,5.64-1.11,15.78-5.66,18.6,0,0,10.47,7.59,16.35,17.34,4.69-6.73.48-13.8.48-13.8-5.74-2.71-4.64-7.16-2.7-11.14Z" style="fill:#ffc3bd"></path><path d="M230.93,174.78h0l-7.88,4.4h0l-.11,10.88h0c3.56-3.89,7.46-11,8-15.18a.52.52,0,0,0,0-.11Z" style="opacity:0.2"></path><path d="M247.48,151.26l5,6.5a17.12,17.12,0,0,0-1.15,2.88c-2.24-.82-4.87-4-4.61-6.49A8.31,8.31,0,0,1,247.48,151.26Z" style="opacity:0.2"></path><path d="M240.41,135.64c.26,9.25.17,13.17,4.59,18.06,6.65,7.34,17.73,5,20.19-4.16,2.21-8.23,1.42-22-7.32-25.93S240.15,126.39,240.41,135.64Z" style="fill:#ffc3bd"></path><path d="M248.62,122.86a20.73,20.73,0,0,1,16.45.91,81.08,81.08,0,0,0-14.95,3.77,85.92,85.92,0,0,0-12.84,5.6S239.2,126.12,248.62,122.86Z" style="fill:#263238"></path><path d="M255.07,138.49c0,.75.35,1.37.84,1.39s.91-.59.94-1.34-.36-1.37-.85-1.39S255.09,137.73,255.07,138.49Z" style="fill:#263238"></path><path d="M264.31,138.92c0,.75.35,1.37.84,1.39s.91-.59.93-1.34-.35-1.37-.84-1.39S264.33,138.16,264.31,138.92Z" style="fill:#263238"></path><path d="M265,137.62l1.82-.46S265.87,138.54,265,137.62Z" style="fill:#263238"></path><path d="M261.69,139.69a20.21,20.21,0,0,0,2.52,4.89,3.23,3.23,0,0,1-2.69.41Z" style="fill:#ed847e"></path><path d="M255.48,148a6.21,6.21,0,0,0,1.26.15.21.21,0,0,0,.22-.21.22.22,0,0,0-.21-.23,6,6,0,0,1-4.78-2.48.22.22,0,0,0-.3-.08.23.23,0,0,0-.08.31A6.17,6.17,0,0,0,255.48,148Z" style="fill:#263238"></path><path d="M238.32,141.11a6,6,0,0,0,2.9,3.94c1.89,1,3.35-1,3.25-3.38-.09-2.11-1.18-5.18-3.29-5.16S237.81,138.94,238.32,141.11Z" style="fill:#ffc3bd"></path><path d="M257.47,133.34a.4.4,0,0,0-.33-.1,3.49,3.49,0,0,1-3-1,.45.45,0,0,0-.63,0,.44.44,0,0,0,0,.62,4.39,4.39,0,0,0,3.82,1.27.45.45,0,0,0,.38-.5A.37.37,0,0,0,257.47,133.34Z" style="fill:#263238"></path><path d="M266.26,133.85a.4.4,0,0,0,.32,0,.45.45,0,0,0,.15-.61,4.37,4.37,0,0,0-3.41-2.15.43.43,0,0,0-.45.43.44.44,0,0,0,.43.45,3.47,3.47,0,0,1,2.67,1.73A.42.42,0,0,0,266.26,133.85Z" style="fill:#263238"></path><path d="M255.78,137.19l1.82-.46S256.63,138.11,255.78,137.19Z" style="fill:#263238"></path><path d="M193.48,224.83l-.85,6.75-8.22-5.53s2.18-5.9,6.35-7.66l.88.91A6.73,6.73,0,0,1,193.48,224.83Z" style="fill:#ffc3bd"></path><path d="M185.79,233.8l-2.8-1.74a2.37,2.37,0,0,1-.6-3.5l2-2.51,8.22,5.53-4.51,2.31A2.36,2.36,0,0,1,185.79,233.8Z" style="fill:#ffc3bd"></path><path d="M231.06,178.77l-.79.32-.89.38-1.81.79q-1.81.81-3.6,1.71c-2.39,1.19-4.73,2.46-7,3.81a66.17,66.17,0,0,0-12.39,9.29l-.33.33c-.05,0,0,0-.06,0s-.05.06-.1.11-.09.1-.15.19a14,14,0,0,0-.76,1.28,37.33,37.33,0,0,0-1.57,3.39c-1,2.46-2,5.06-2.84,7.71-1.81,5.28-3.49,10.76-5.28,16.15l0,0a3.34,3.34,0,0,1-6.51-1.21,141.42,141.42,0,0,1,2-17.5c.55-2.91,1.12-5.84,2-8.82.43-1.5.9-3,1.54-4.63a22.79,22.79,0,0,1,1.2-2.55c.12-.22.28-.48.43-.72s.29-.47.51-.76.44-.58.63-.8l.39-.46a57.53,57.53,0,0,1,6.77-6.75,71.53,71.53,0,0,1,7.5-5.59,80.86,80.86,0,0,1,8-4.62q2.07-1,4.18-2c.71-.32,1.42-.63,2.15-.92l1.1-.42,1.22-.44a6.69,6.69,0,0,1,4.84,12.47Z" style="fill:#ffc3bd"></path><path d="M251.56,126.28c1.23,9.82-6.39,24.94-12.89,26.94-6.11-7.65-.72-20.83,1-23.05S251.56,126.28,251.56,126.28Z" style="fill:#263238"></path><path d="M249.1,126.05c-.63,3.17,12.29-.91,14.75,2.21a35.33,35.33,0,0,0-3.51-6.18s-9.07,0-11.45,4" style="fill:#263238"></path><path d="M216.88,217.62c-14.74,7.1-27.48,54.79-22.16,123.6,2,25.83,12.26.67,14.8-9.33s12-4.54,16.37,15.33c3.33,15.22,18,7.11,17.11-9.78-.67-12.27,9-7.33,15.56,3.28,8.7,14.1,30.33,13.5,18.33-9s-24.07-102.17-24.07-102.17Z" style="fill:#263238"></path><path d="M216.32,215.77a9.24,9.24,0,0,0-3.26,3.35,1.06,1.06,0,0,0,.32,1.32c9.94,7.2,32.92,11.81,39.12,12.95a1.05,1.05,0,0,0,1.22-1.22,7.38,7.38,0,0,1,0-2.61,1,1,0,0,0-.69-1.24c-8.67-2.82-26.73-7.31-35.59-12.55A1,1,0,0,0,216.32,215.77Z" style="fill:#407BFF"></path><path d="M216.32,215.77a9.24,9.24,0,0,0-3.26,3.35,1.06,1.06,0,0,0,.32,1.32c9.94,7.2,32.92,11.81,39.12,12.95a1.05,1.05,0,0,0,1.22-1.22,7.38,7.38,0,0,1,0-2.61,1,1,0,0,0-.69-1.24c-8.67-2.82-26.73-7.31-35.59-12.55A1,1,0,0,0,216.32,215.77Z" style="opacity:0.5"></path></g><g id="character-3"><path d="M355.2,125.58c5.08-4.49,8.72-8.56,9.58-8.69s3.69-3.28,4.38-4.06,4.86-6,5.48-6.5,6.66-4.17,8.28-5.21,2.77-2.86,5.09-4.48,10.24-4.78,13.25-6.9c-2.86,4.7-7.78,13.28-9.56,15.11s-2.05,6.3-3,8.12-6.43,6.92-6.94,8.47-2.35,8-3.51,9.28-2.8,6-2.8,6S358.67,133.27,355.2,125.58Z" style="fill:#263238"></path><path d="M354.94,124.22c1.31-2.49,7.44-7.35,10.07-8.54,5.46,2.13,11.64,7.22,15.2,12.48,0,3.79-4.3,9.1-4.3,9.1S361,130.74,354.94,124.22Z" style="fill:#407BFF"></path><path d="M371.76,133.62a1,1,0,0,1-.56-.18l-9.92-7.09a1,1,0,0,1-.21-1.35c3.38-4.56,9.77-9,10.05-9.17a.94.94,0,0,1,1.05,0c.18.12,4.42,2.85,6.5,5.92a.94.94,0,0,1,.15.67c-.65,4.7-6.12,10.66-6.36,10.91A1,1,0,0,1,371.76,133.62Zm-8.55-8.24,8.4,6c1.33-1.55,4.61-5.63,5.26-8.88a24,24,0,0,0-5.2-4.72A50.32,50.32,0,0,0,363.21,125.38Z" style="fill:#263238"></path><ellipse cx="364.71" cy="131.42" rx="5.53" ry="29.02" transform="translate(38.92 341.53) rotate(-52.63)" style="fill:#263238"></ellipse><path d="M352.65,125.81c-6.31,4.28-17,12.66-14.57,27.64,15.68,16.9,32.56,10.8,38.84,8.92.64-11.12-1.85-22.22-3-24.25C362.76,127.38,356.59,124.83,352.65,125.81Z" style="fill:#e0e0e0"></path><path d="M446.22,301.34s1.38-3.46,6.7-3.23,19.69,3.39,19.69,3.39l-.16,1.33s-13.12-1.9-15.55-1.65c6.83,1.2,14.92,7.13,14.17,13.64-.26,2.32-10.2-3.93-16.5-5.48s-8.51-2.07-8.51-2.07Z" style="fill:#263238"></path><path d="M440.56,306.44l6-5.68c7.1,1.12,15.59,5.29,18.16,9a1.37,1.37,0,0,1-1.6,2C452.92,307.94,440.56,306.44,440.56,306.44Z" style="fill:#7f3e3b"></path><path d="M366.92,391.13s2.81.46,2.76,5.78S368,416.85,368,416.85h-1.34s.16-14.21-.17-16.6c-1,6.93-2.1,16.6-12.91,16.6-2.33,0,3.61-10.58,5-17s1.79-8.7,1.79-8.7Z" style="fill:#263238"></path><path d="M358.59,381.57l7.58,9.56c-.89,7.18-4.14,15.84-7.74,18.82a1.29,1.29,0,0,1-2.05-1.36A55.21,55.21,0,0,0,358.59,381.57Z" style="fill:#7f3e3b"></path><path d="M344.51,225.65s3.2,52.76,4.39,80.88c1.1,28.29,11.37,84.6,11.37,84.6h6.65s7.67-52.53-1.42-83.62c16.25-53.19,5.75-84.64,5.75-84.64Z" style="fill:#7f3e3b"></path><path d="M351.72,224.93s20.95,54.21,28.37,77.73c5.11,16.16,64,6.22,71.85,4l-2.22-4.9s-32.86-11.29-53.53-10.39c-.67-73.61-20.46-70.66-20.46-70.66Z" style="fill:#7f3e3b"></path><path d="M309.66,154.42l-1.43-5.9-6.43,5.7s1.28,6.93,6.09,6.18l.69-.89A6,6,0,0,0,309.66,154.42Z" style="fill:#7f3e3b"></path><path d="M301.23,146.27l-1.47,1.66a2.85,2.85,0,0,0-.08,3.69l2.12,2.6,6.43-5.7-3-2.54A2.86,2.86,0,0,0,301.23,146.27Z" style="fill:#7f3e3b"></path><path d="M345.61,177.62l-.47.44-.42.37-.81.69c-.55.45-1.1.86-1.65,1.28-1.11.81-2.24,1.6-3.39,2.32a53,53,0,0,1-15,6.51c-1.35.31-2.68.65-4.05.84l-1,.16-.51.09-.26,0-.18,0-.41,0a6.54,6.54,0,0,1-3.08-.48,7.46,7.46,0,0,1-2-1.25,10.41,10.41,0,0,1-2.07-2.44,19.24,19.24,0,0,1-1.15-2.17,33.11,33.11,0,0,1-1.49-4,68.45,68.45,0,0,1-1.8-7.71,113.56,113.56,0,0,1-1.63-15.24,2.62,2.62,0,0,1,5.16-.78v0c1.25,4.73,2.58,9.52,4,14.11.75,2.29,1.51,4.56,2.41,6.64a25.84,25.84,0,0,0,1.38,2.88,10.36,10.36,0,0,0,.72,1.07c.21.27.43.46.37.36a1.33,1.33,0,0,0-.43-.28,2.87,2.87,0,0,0-1.26-.2l-.17,0h0l.05,0,.2-.05.41-.1.81-.2c1.09-.23,2.14-.64,3.22-.94a57.61,57.61,0,0,0,6.21-2.57,60.88,60.88,0,0,0,5.88-3.34c.95-.6,1.87-1.24,2.78-1.9.44-.33.89-.66,1.31-1l.63-.5.51-.42.3-.25a5.26,5.26,0,0,1,6.91,7.92Z" style="fill:#7f3e3b"></path><path d="M335.61,179c.64,7.78-5.22,12.53,2.28,17.78,1,6.68,2.47,18.66,5.4,29.4,2.37,2.75,17.92.87,33.8-4.36-2.88-9.17-3.36-24.56.46-46.09a8.53,8.53,0,0,0-7.81-10c-1.35-.1-2.78-.17-4.24-.19a108.76,108.76,0,0,0-15.33.46c-1.65.2-3.35.46-5,.74A11.53,11.53,0,0,0,335.61,179Z" style="fill:#407BFF"></path><path d="M335.61,179c.64,7.78-5.22,12.53,2.28,17.78,1,6.68,2.47,18.66,5.4,29.4,2.37,2.75,17.92.87,33.8-4.36-2.88-9.17-3.36-24.56.46-46.09a8.53,8.53,0,0,0-7.81-10c-1.35-.1-2.78-.17-4.24-.19a108.76,108.76,0,0,0-15.33.46c-1.65.2-3.35.46-5,.74A11.53,11.53,0,0,0,335.61,179Z" style="opacity:0.6000000000000001"></path><path d="M363.46,148.32c-.82,5-1.51,14,2,17.21,0,0-12.91,5.2-18.79,15.85-4.31-10.45,3.46-15.39,3.46-15.39,5.46-1.48,5.2-5.55,4.12-9.35Z" style="fill:#7f3e3b"></path><path d="M343.29,226.17c-5.36,36.75,3.78,115.34,8.43,128.65,5.84,0,13.87-8.08,15.68-13.4s3.61-7,13.72-6.81,15.66-4.06,16.06-10.21c.53-8.19,6.17-15.87,17.87-17.83s14.78-9.72,12.23-12.49-20.74-3.19-25.89-15.15c-3.1-7.19-2.67-51-24.72-58.57C352.45,224.36,343.29,226.17,343.29,226.17Z" style="fill:#407BFF"></path><path d="M432.38,152.15a2.29,2.29,0,0,1,.38,2.33L432,156.4l-1.43,3.85-2.87,7.7L422,183.34l-11.49,30.78c-7.68,20.51-15.27,41.06-23,61.55l-23.18,61.48L340.9,398.56a1,1,0,0,1-1.88-.7l22.33-61.8,22.56-61.72c7.49-20.59,15.15-41.11,22.72-61.66L418,181.86l5.69-15.41,2.85-7.71,1.42-3.85.71-1.92a2.3,2.3,0,0,1,1.82-1.52A1.75,1.75,0,0,1,432.38,152.15Z" style="fill:#263238"></path><path d="M388.35,265l15.14-37.75c-2.84,3.36-5.88,6.48-8.6,9.24C388.93,242.5,389.56,256.45,388.35,265Z" style="fill:#263238"></path><path d="M388.35,265l-2.65,6.61C387.16,270.64,387.89,268.19,388.35,265Z" style="fill:#263238"></path><path d="M403.49,227.2c5.76-6.8,10.66-14.58,10.29-22.31,0-1,0-2.13,0-3.32Z" style="fill:#263238"></path><path d="M431.89,150.37c-3.11,0-5,.63-8.89,9.52-3.55,8.11-8.76,29.26-9.22,41.68l13.55-33.79C432.56,161.11,435,150.33,431.89,150.37Z" style="fill:#263238"></path><path d="M356.35,324.47a.2.2,0,0,1-.11,0,.25.25,0,0,1-.11-.34,5,5,0,0,1,1.16-1.5,10.17,10.17,0,0,1,3.73-1.8l1.05-.34a18,18,0,0,0,11.49-18.8,37.15,37.15,0,0,0-1.63-6.32c-1.11-3.47-2.26-7.06-1.51-10.67,1-5,5.18-8.18,9.2-11.3,3.37-2.62,6.86-5.33,8.59-9.08,1.4-3.05,1.51-6.53,1.6-9.89a45.52,45.52,0,0,1,.47-6.17c1.42-8.32,7.38-14.75,13.14-21,1.86-2,3.79-4.09,5.52-6.19,2-2.38,4.31-5.59,5.08-9.29s0-7.24-.74-10.8a39.08,39.08,0,0,1-1.08-8.06,19.42,19.42,0,0,1,9.23-16.16c.82-.49,1.68-.92,2.52-1.35a20.12,20.12,0,0,0,4.39-2.69c2.71-2.4,4.12-6.41,3.77-10.72s-2.27-8.2-3.89-11.17a.25.25,0,0,1,.09-.34.26.26,0,0,1,.34.1c1.65,3,3.6,7,4,11.37s-1.1,8.63-3.93,11.13a20.43,20.43,0,0,1-4.49,2.77c-.83.42-1.69.85-2.49,1.33a18.9,18.9,0,0,0-9,15.74,38.2,38.2,0,0,0,1.07,7.94c.74,3.61,1.5,7.35.74,11-.79,3.81-3.19,7.08-5.19,9.51-1.74,2.11-3.67,4.19-5.53,6.21-5.71,6.16-11.62,12.54-13,20.71a44.4,44.4,0,0,0-.46,6.11c-.1,3.41-.2,6.94-1.65,10.08-1.78,3.86-5.32,6.61-8.74,9.27-4.12,3.2-8,6.23-9,11-.72,3.48.36,6.85,1.5,10.42a37.48,37.48,0,0,1,1.65,6.41,18.53,18.53,0,0,1-11.83,19.33l-1.06.35a9.88,9.88,0,0,0-3.55,1.69,4.81,4.81,0,0,0-1.05,1.36A.25.25,0,0,1,356.35,324.47Z" style="fill:#263238"></path><path d="M423.69,150.79c-.27-5.61,4.42-13.89,11.84-8.56,5.8,4.18,3.05,11.28-4.06,11.28-.91,2.35-4.61,3.59-8,2.76S423.69,150.79,423.69,150.79Z" style="fill:#407BFF"></path><path d="M429.64,146.58c1.7-.42,2.69,2.64,1.61,3.79s-2.47-.31-2.64-.93S428.75,146.81,429.64,146.58Z" style="fill:#263238"></path><path d="M424.92,145a12.79,12.79,0,0,0-1.12,3.69,1.19,1.19,0,0,0,1.42-.32A2.73,2.73,0,0,0,424.92,145Z" style="fill:#263238"></path><path d="M431.92,152.06h-.24a.26.26,0,0,1-.23-.27.25.25,0,0,1,.27-.23,2.32,2.32,0,0,0,1.74-.54,1.61,1.61,0,0,0,.11-1.52c-.31-1.05.57-3.87.67-4.19a.25.25,0,0,1,.48.15c-.26.82-.9,3.13-.67,3.9a2.07,2.07,0,0,1-.21,2A2.55,2.55,0,0,1,431.92,152.06Z" style="fill:#263238;opacity:0.30000000000000004"></path><path d="M342.64,223.65a.41.41,0,0,0-.46.34,13.86,13.86,0,0,0,.25,3.44s-.5,1.87,15.1-.1c13.27-1.67,19.68-4.89,21.29-5.82a.42.42,0,0,0,.12-.64,8.91,8.91,0,0,0-2.35-2.11.43.43,0,0,0-.4,0c-1.84.87-9.19,3.38-19.46,4.44C347.87,224.1,343.79,223.79,342.64,223.65Z" style="fill:#263238"></path><path d="M359.72,151.71l-5.42,4.92a15.33,15.33,0,0,1,.55,2.71c2.09-.37,4.91-2.76,5.07-5A7.44,7.44,0,0,0,359.72,151.71Z" style="opacity:0.2"></path><path d="M370.58,142.37c-3.26,7.58-4.48,10.85-9.75,13.44-7.93,3.9-16.34-1.71-15.36-10.09.88-7.55,6.06-18.67,14.61-19.07S373.84,134.79,370.58,142.37Z" style="fill:#7f3e3b"></path><path d="M352.63,147.39a7,7,0,0,1-1.25-.29.22.22,0,0,1-.14-.28.21.21,0,0,1,.28-.14,6,6,0,0,0,5.42-.74.22.22,0,0,1,.28.35A6.26,6.26,0,0,1,352.63,147.39Z" style="fill:#263238"></path><path d="M366.67,135.65c-2.15,5.85,1.66,11.59,1.66,11.59s7.4-3.22,5.39-8.48C368.61,133.12,366.67,135.65,366.67,135.65Z" style="fill:#e0e0e0"></path><path d="M358.1,126.17c-9.56.64-8.45,7.39-5.83,9.35-.2-1.68,3.13-4.59,4.72-4.5-1.23,3.18-1.11,7.76,6.49,10.86s9.4-.71,9-4.41A37.4,37.4,0,0,0,358.1,126.17Z" style="fill:#e0e0e0"></path><path d="M367.74,128.17a20.75,20.75,0,0,0-15.91-4.28,81.82,81.82,0,0,1,13,8.26,86.2,86.2,0,0,1,10.45,9.33S375.67,134.21,367.74,128.17Z" style="fill:#263238"></path><path d="M358.47,140.38c-.23.63-.75,1-1.16.87s-.56-.78-.34-1.41.75-1,1.16-.87S358.7,139.75,358.47,140.38Z" style="fill:#263238"></path><path d="M350.67,137.69c-.23.63-.75,1-1.16.87s-.56-.78-.33-1.41.74-1,1.16-.87S350.9,137.06,350.67,137.69Z" style="fill:#263238"></path><path d="M350.51,136.38l-1.36-1S349.5,136.86,350.51,136.38Z" style="fill:#263238"></path><path d="M352.84,139.56a17.8,17.8,0,0,1-3.7,3.21,2.88,2.88,0,0,0,2.09,1.24Z" style="fill:#630f0f"></path><path d="M371.4,148.73a5.32,5.32,0,0,1-4,1.63c-1.89-.14-2.07-2.34-.89-4.08,1.06-1.57,3.32-3.38,4.91-2.39S372.8,147.32,371.4,148.73Z" style="fill:#7f3e3b"></path><path d="M358.55,135.32a.39.39,0,0,1,.29.09,3.14,3.14,0,0,0,2.75.75.39.39,0,0,1,.48.27.4.4,0,0,1-.27.49,3.9,3.9,0,0,1-3.47-.91.39.39,0,0,1,0-.56A.36.36,0,0,1,358.55,135.32Z" style="fill:#263238"></path><path d="M349.79,131.63a.39.39,0,0,1,0-.72,3.91,3.91,0,0,1,3.59.16.4.4,0,1,1-.44.66,3.09,3.09,0,0,0-2.84-.1A.42.42,0,0,1,349.79,131.63Z" style="fill:#263238"></path><path d="M358.3,139.07l-1.35-1S357.3,139.55,358.3,139.07Z" style="fill:#263238"></path><path d="M402.94,209.12l1.07,7.27,7.62-3.56s-2-5-5.45-7.18l-1.13.09C403.49,206.69,403,207.29,402.94,209.12Z" style="fill:#7f3e3b"></path><path d="M408.85,219.37l3-2a2.09,2.09,0,0,0,.71-2.74l-1-1.82L404,216.39l2.09,2.55A2.1,2.1,0,0,0,408.85,219.37Z" style="fill:#7f3e3b"></path><path d="M373.09,167.13c4.19,2.1,8.17,4.34,12.14,6.82,2,1.25,3.94,2.54,5.88,4,1,.72,1.95,1.45,2.93,2.27a26.93,26.93,0,0,1,3,2.92,17.83,17.83,0,0,1,1.38,1.88c.32.54.69,1.1,1,1.63.6,1.06,1.14,2.1,1.68,3.14,1.07,2.06,2,4.16,3,6.23,1.89,4.18,3.63,8.39,5.2,12.71a2.63,2.63,0,0,1-4.62,2.41v0c-2.6-3.72-5.11-7.5-7.56-11.26l-3.67-5.6c-.61-.91-1.22-1.82-1.83-2.67l-.89-1.22c-.26-.29-.52-.64-.7-.79a20.64,20.64,0,0,0-2-1.6c-.81-.57-1.67-1.15-2.56-1.72-1.79-1.13-3.67-2.23-5.57-3.33-3.8-2.16-7.75-4.32-11.58-6.41l-.06,0a5.27,5.27,0,0,1,4.88-9.33Z" style="fill:#7f3e3b"></path></g></svg>