<svg xmlns="http://www.w3.org/2000/svg" viewBox="0 0 500 500"><g id="background-complete"><rect y="382.4" width="500" height="0.25" style="fill:#ebebeb"></rect><rect x="52.46" y="398.49" width="33.12" height="0.25" style="fill:#ebebeb"></rect><rect x="171.14" y="401.21" width="8.69" height="0.25" style="fill:#ebebeb"></rect><rect x="86.58" y="389.21" width="25.42" height="0.25" style="fill:#ebebeb"></rect><rect x="422" y="390.89" width="27.9" height="0.25" style="fill:#ebebeb"></rect><rect x="391.47" y="390.89" width="21.63" height="0.25" style="fill:#ebebeb"></rect><rect x="277.21" y="395.11" width="51.45" height="0.25" style="fill:#ebebeb"></rect><path d="M237,337.8H43.91a5.71,5.71,0,0,1-5.7-5.71V60.66A5.71,5.71,0,0,1,43.91,55H237a5.71,5.71,0,0,1,5.71,5.71V332.09A5.71,5.71,0,0,1,237,337.8ZM43.91,55.2a5.46,5.46,0,0,0-5.45,5.46V332.09a5.46,5.46,0,0,0,5.45,5.46H237a5.47,5.47,0,0,0,5.46-5.46V60.66A5.47,5.47,0,0,0,237,55.2Z" style="fill:#ebebeb"></path><path d="M453.31,337.8H260.21a5.72,5.72,0,0,1-5.71-5.71V60.66A5.72,5.72,0,0,1,260.21,55h193.1A5.71,5.71,0,0,1,459,60.66V332.09A5.71,5.71,0,0,1,453.31,337.8ZM260.21,55.2a5.47,5.47,0,0,0-5.46,5.46V332.09a5.47,5.47,0,0,0,5.46,5.46h193.1a5.47,5.47,0,0,0,5.46-5.46V60.66a5.47,5.47,0,0,0-5.46-5.46Z" style="fill:#ebebeb"></path><path d="M342.87,136.9a15.89,15.89,0,0,0,6-1.19,15.86,15.86,0,0,0,24.9.5,19.2,19.2,0,0,0,28.41-13.33,15.88,15.88,0,0,0-10.24-28h-.11a15.88,15.88,0,0,0-30.32-3.1,15.71,15.71,0,0,0-8.63-2.56A15.88,15.88,0,0,0,337,105.08c0,.39,0,.77.06,1.15a15.88,15.88,0,0,0,5.78,30.67Z" style="fill:#f0f0f0"></path><path d="M171.45,176.79c.12-.52.24-1,.32-1.59A22.42,22.42,0,0,0,140.65,151a22.43,22.43,0,0,0-43-2.59l-.14,0a22.42,22.42,0,0,0-20.68,36.7,27.14,27.14,0,0,0,36.56,25.09,22.44,22.44,0,0,0,34.84,5,22.07,22.07,0,0,0,8.11,3,22.43,22.43,0,0,0,15.08-41.42Z" style="fill:#f0f0f0"></path><path d="M416.63,238.58a24.64,24.64,0,0,0-23-15.56c-.18-.56-.37-1.12-.59-1.67a24.63,24.63,0,0,0-43-5.23,24.63,24.63,0,0,0-41.94,21.8L308,238a24.63,24.63,0,0,0,1.21,46.24,29.8,29.8,0,0,0,36.34,12.06,29.47,29.47,0,0,0,12.26-9,24.63,24.63,0,0,0,35.63-14.94,24.64,24.64,0,0,0,23.18-33.71Z" style="fill:#f0f0f0"></path><path d="M356.2,75.14,355.71,73l1.93-1a.56.56,0,0,0,0-1l-2.43-1.12a3.67,3.67,0,0,0-3.26.09l-1.33.69.34,1.45A3.71,3.71,0,0,0,353,74.65l2.42,1.12A.56.56,0,0,0,356.2,75.14Z" style="fill:#e0e0e0"></path><path d="M294.26,41.43A2.06,2.06,0,0,0,293,44.08,2.06,2.06,0,0,0,294.47,48l3.87-1.43-1.43-3.87A2.06,2.06,0,0,0,294.26,41.43Z" style="fill:#e0e0e0"></path><path d="M297.5,46.31a.16.16,0,0,1,.17-.28l58.14,26.78a.16.16,0,0,1,.08.22.16.16,0,0,1-.22.08L297.53,46.33Z" style="fill:#ebebeb"></path><path d="M379.38,172.58l.36,2.14-2,.89a.56.56,0,0,0,0,1l2.35,1.26a3.67,3.67,0,0,0,3.26.12l1.37-.61-.25-1.47a3.7,3.7,0,0,0-1.9-2.65L380.19,172A.56.56,0,0,0,379.38,172.58Z" style="fill:#e0e0e0"></path><path d="M439.17,210a2.07,2.07,0,0,0,1.38-2.58,2.06,2.06,0,0,0-1.19-3.95l-4,1.2,1.2,4A2.06,2.06,0,0,0,439.17,210Z" style="fill:#e0e0e0"></path><path d="M436.24,204.9a.17.17,0,0,1,0,.2.17.17,0,0,1-.23.07l-56.41-30.24a.17.17,0,0,1,.16-.3l56.41,30.24Z" style="fill:#ebebeb"></path><path d="M96.21,75.28l.11,1.52-1.45.49a.39.39,0,0,0-.09.7l1.56,1a2.58,2.58,0,0,0,2.27.3l1-.33-.07-1a2.65,2.65,0,0,0-1.15-2l-1.56-1A.39.39,0,0,0,96.21,75.28Z" style="fill:#e0e0e0"></path><path d="M135.46,105.36a1.44,1.44,0,0,0,1.13-1.7,1.45,1.45,0,1,0-.57-2.84l-2.84.57.57,2.84A1.45,1.45,0,0,0,135.46,105.36Z" style="fill:#e0e0e0"></path><path d="M133.75,101.63a.12.12,0,0,1,0,.14.12.12,0,0,1-.17,0L96.23,76.94a.13.13,0,0,1,0-.17.14.14,0,0,1,.17,0l37.36,24.87Z" style="fill:#ebebeb"></path><path d="M157.67,238.62l-3.12-.81v-3.22a.82.82,0,0,0-1.33-.64l-3.12,2.42a5.5,5.5,0,0,0-2.12,4.34v2.21l2.14.55a5.43,5.43,0,0,0,4.73-1l3.12-2.42A.83.83,0,0,0,157.67,238.62Z" style="fill:#e0e0e0"></path><path d="M71.18,297a3.05,3.05,0,0,0,2.65,3.42,3.05,3.05,0,1,0,6.06.76l.76-6.07-6.06-.76A3.05,3.05,0,0,0,71.18,297Z" style="fill:#e0e0e0"></path><path d="M79.8,296.11a.25.25,0,0,1-.3-.07.25.25,0,0,1,0-.35l74.79-58.15a.24.24,0,0,1,.35,0,.25.25,0,0,1-.05.35L79.85,296.08Z" style="fill:#ebebeb"></path><path d="M465.93,291.34,463.72,290l.75-2.47a.66.66,0,0,0-.87-.81l-3,1.13a4.38,4.38,0,0,0-2.64,2.83l-.52,1.7,1.51.92a4.38,4.38,0,0,0,3.86.36l3-1.12A.67.67,0,0,0,465.93,291.34Z" style="fill:#e0e0e0"></path><path d="M385.84,315.8a2.46,2.46,0,0,0,1.24,3.24,2.45,2.45,0,1,0,4.47,2l2-4.48-4.48-2A2.46,2.46,0,0,0,385.84,315.8Z" style="fill:#e0e0e0"></path><path d="M392.68,317.12a.22.22,0,0,1-.22-.13.21.21,0,0,1,.12-.26l71-27a.2.2,0,0,1,.15.38l-71,27Z" style="fill:#ebebeb"></path></g><g id="background-simple"><path d="M399.12,227.47c5.42-55.5-16.81-101.42-59.39-104.34-52.1-.81-99.58,45.33-149.55,10.83C121.42,70.39,75.86,178.46,88,210.22c23.21,71,160.88,105.26,195.7,109.44C353.85,329.76,390.89,307.08,399.12,227.47Z" style="fill:#407BFF"></path><path d="M399.12,227.47c5.42-55.5-16.81-101.42-59.39-104.34-52.1-.81-99.58,45.33-149.55,10.83C121.42,70.39,75.86,178.46,88,210.22c23.21,71,160.88,105.26,195.7,109.44C353.85,329.76,390.89,307.08,399.12,227.47Z" style="fill:#fff;opacity:0.9"></path></g><g id="Shadow"><ellipse id="path" cx="250" cy="416.24" rx="193.89" ry="11.32" style="fill:#f5f5f5"></ellipse></g><g id="Hearts"><path d="M325.37,167.19a2.61,2.61,0,0,0-3.25-1.77,2.63,2.63,0,0,0-5,1.47l1.48,5,5-1.48A2.63,2.63,0,0,0,325.37,167.19Z" style="fill:#407BFF"></path><path d="M323.32,151.86a515.28,515.28,0,0,1-4.5.49,1.6,1.6,0,0,0,.25,2.25l2.49,2,2-2.49A1.61,1.61,0,0,0,323.32,151.86Z" style="fill:#407BFF"></path><path d="M232.79,229.93a1406,1406,0,0,1-1.64,4.21,1.6,1.6,0,0,0,2.11.82l2.92-1.29-1.29-2.92A1.58,1.58,0,0,0,232.79,229.93Z" style="fill:#407BFF"></path><path d="M338.28,151.31a419,419,0,0,1-2.94-2.19,1.3,1.3,0,0,0-1.1,1.47l.38,2.57,2.57-.38A1.28,1.28,0,0,0,338.28,151.31Z" style="fill:#407BFF"></path><path d="M341.56,363a763.91,763.91,0,0,1-5.65-3.09,2.29,2.29,0,0,0-1.55,2.83l1.29,4.37,4.37-1.28A2.29,2.29,0,0,0,341.56,363Z" style="fill:#407BFF"></path><path d="M350.88,354.55A3619.86,3619.86,0,0,1,347,355a1.39,1.39,0,0,0,.22,1.95l2.16,1.74,1.74-2.16A1.38,1.38,0,0,0,350.88,354.55Z" style="fill:#407BFF"></path><path d="M170.76,277.56a1.6,1.6,0,0,0-2.22.43,1.6,1.6,0,1,0-1.78,2.65l2.65,1.78,1.78-2.65A1.58,1.58,0,0,0,170.76,277.56Z" style="fill:#407BFF"></path><path d="M344.53,347.45a1.78,1.78,0,0,0-3.51-.63l.33,2.23,2.23-.32A1.13,1.13,0,0,0,344.53,347.45Z" style="fill:#407BFF"></path><path d="M157.61,286.69a1.14,1.14,0,0,0-.85,1.35,1.13,1.13,0,0,0,.5,2.2l2.2-.5-.5-2.2A1.14,1.14,0,0,0,157.61,286.69Z" style="fill:#407BFF"></path><path d="M250.24,287.3a43496883352538.23,43496883352538.23,0,0,1-2.92-1.28,1.13,1.13,0,0,0-.64,1.46l.82,2.1,2.1-.82A1.13,1.13,0,0,0,250.24,287.3Z" style="fill:#407BFF"></path><path d="M181.57,81.81a1.59,1.59,0,0,0-1.35,1.81,1.6,1.6,0,0,0,.46,3.16l3.17-.46-.47-3.17A1.59,1.59,0,0,0,181.57,81.81Z" style="fill:#407BFF"></path><path d="M191.33,70.45a2.05,2.05,0,0,0-3.28,2.47l2.14,1.47,1.47-2.14A1.29,1.29,0,0,0,191.33,70.45Z" style="fill:#407BFF"></path><path d="M240.57,77.24a1.29,1.29,0,0,0-1.82-.2,1.3,1.3,0,1,0-2,1.64l1.63,2,2-1.64A1.29,1.29,0,0,0,240.57,77.24Z" style="fill:#407BFF"></path></g><g id="Character"><path d="M232.73,105.73c-6.94-2-10.49,8.1-4.34,13.69C239.38,117.18,232.73,105.73,232.73,105.73Z" style="fill:#407BFF"></path><path d="M244.37,126.72c5.43-11.33,5.76-21.8,6-29.85.18-7.41-1-11.47,3.8-16.25,6.47-6.41,26.35-19.73,33.18-22.06,3.68,6.7-.74,15.71-3.55,18.67,3.73.62,1.85,9.92-4.59,14.2,4.26-1.71,5.32,7.48-2,12.15,5.05.66,1.67,10.23-2.08,11.94,1,6.18-5.22,9.85-13,8.91C254.77,134.29,244.37,126.72,244.37,126.72Z" style="fill:#407BFF"></path><path d="M244.37,126.72c5.43-11.33,5.76-21.8,6-29.85.18-7.41-1-11.47,3.8-16.25,6.47-6.41,26.35-19.73,33.18-22.06,3.68,6.7-.74,15.71-3.55,18.67,3.73.62,1.85,9.92-4.59,14.2,4.26-1.71,5.32,7.48-2,12.15,5.05.66,1.67,10.23-2.08,11.94,1,6.18-5.22,9.85-13,8.91C254.77,134.29,244.37,126.72,244.37,126.72Z" style="fill:#fff;opacity:0.7000000000000001"></path><path d="M222.53,137.63c-9.51-.62-16.55-4.3-21.95-7.16-5-2.63-7.21-4.93-12.16-3.53-6.65,1.89-22.87,10.06-27,13.7,3.06,4.92,10.66,5.36,13.66,4.6-1,2.7,5.87,4.91,11.1,2.25-2.72,2.17,3,6.3,8.79,3.18-1.45,3.58,6.14,4.91,8.67,3.07,3.69,3,8.45.22,10.73-5.25C223.65,147.32,222.53,137.63,222.53,137.63Z" style="fill:#407BFF"></path><path d="M222.53,137.63c-9.51-.62-16.55-4.3-21.95-7.16-5-2.63-7.21-4.93-12.16-3.53-6.65,1.89-22.87,10.06-27,13.7,3.06,4.92,10.66,5.36,13.66,4.6-1,2.7,5.87,4.91,11.1,2.25-2.72,2.17,3,6.3,8.79,3.18-1.45,3.58,6.14,4.91,8.67,3.07,3.69,3,8.45.22,10.73-5.25C223.65,147.32,222.53,137.63,222.53,137.63Z" style="fill:#fff;opacity:0.7000000000000001"></path><path d="M294.54,189c12.53-12.49,40-7.73,45.45-23.94a14.83,14.83,0,0,1,4.1,6.33s3-1.74,3.84-3.52c4.25,7.26,4.69,12.82,3.26,17-7.06-1.1-12.17,12.29-24.64,9.55s-10.22,11.37-10.22,11.37S298.58,204.61,294.54,189Z" style="fill:#407BFF"></path><path d="M309.81,181.14c-5.82,1.71-11.3,3.93-15.28,7.9,4,15.57,21.79,16.83,21.79,16.83s-1.86-11.72,7.24-11.72a1.23,1.23,0,0,0,1-1.91c-2.38-3.31-7-6.75-12.17-10.61A3,3,0,0,0,309.81,181.14Z" style="opacity:0.1"></path><path d="M344.93,177.18c-5.79,7.11-10.22,9.73-15.48,12.11C343,185.54,344.93,177.18,344.93,177.18Z" style="opacity:0.1"></path><path d="M342.35,172.82c-11.57,7.19-17.76,7.17-24.89,8.6C335.47,181.83,342.35,172.82,342.35,172.82Z" style="opacity:0.1"></path><path d="M347.48,174.23a19.67,19.67,0,0,1-4.57,10.46C349.21,179.09,347.48,174.23,347.48,174.23Z" style="opacity:0.1"></path><path d="M235.39,151.68l-1,1.3-.9,1.15c-.59.76-1.21,1.48-1.82,2.21-1.22,1.44-2.49,2.82-3.77,4.19-2.57,2.72-5.26,5.3-8.08,7.77-1.39,1.24-2.84,2.43-4.29,3.62s-3,2.3-4.48,3.41a107.73,107.73,0,0,1-9.59,6.25c-.44.25-.81.5-1.31.75l-1.47.73-1.48.73-1.38.58c-1.87.78-3.67,1.39-5.49,2-3.59,1.21-7.18,2.07-10.74,2.9s-7.12,1.39-10.69,1.88-7.11.86-10.81,1a5.4,5.4,0,0,1-2.38-10.35l.15-.06c6.24-2.7,12.66-5.26,18.74-8,3.06-1.32,6-2.76,8.87-4.16,1.39-.74,2.79-1.46,4-2.24l1-.55.8-.53.81-.53c.27-.16.59-.45.89-.66,1.2-.93,2.4-1.83,3.64-2.88s2.46-2,3.68-3.05c2.39-2.12,4.77-4.27,7.05-6.54s4.55-4.55,6.71-6.92c1.09-1.17,2.15-2.37,3.21-3.56l1.54-1.77,1.37-1.62.44-.51a10.74,10.74,0,0,1,16.76,13.43Z" style="fill:#ffc3bd"></path><path d="M161,180.56l-10.44.46,2.57,14s9.86.29,10.59-4.92Z" style="fill:#ffc3bd"></path><path d="M148.9,195.13l4.18-.12-2.57-14-6.84,2a3.42,3.42,0,0,0-2.42,3.68l.24,2A7.25,7.25,0,0,0,148.9,195.13Z" style="fill:#ffc3bd"></path><path d="M346.81,312c-3.66-1.34-7.28.95-15.62-9.56,0,0-9.49,10.24-6.63,12.26,11.74,8.35,9.7,17.62,10.56,27.4.12,1.37,3.86-.17,5-3.13,2.67-6.71,1.78-10.93,4.45-14.56,2.29-3.1,4.37-2.72,5.9-6.61C351.57,315.07,349.51,313,346.81,312Z" style="fill:#ffc3bd"></path><path d="M334.85,204.85c1.81,3.41,5,2.56,5.06,15.81,0,0,13.77.41,12.36-2.8-5.8-13.18.93-19.37,6.39-26.61,1.79-2.38-2-3.12-4.44-1.74-5.53,3.14-7.21,6.83-11.06,7.71-3.29.75-4.53-.92-7.73.91C333.21,199.41,333.5,202.32,334.85,204.85Z" style="fill:#ffc3bd"></path><path d="M213.08,148.23c2.4-7.64,10.6-17,20.54-23.66a19.74,19.74,0,0,1,28.9,8.15c7.79,16.92,19.94,37.41,40.18,49.6l-51.43,40.62s-27.41-12.18-31.14-39.17C212.09,172.45,209.5,159.6,213.08,148.23Z" style="fill:#ffc3bd"></path><path d="M271.6,149.9,249,169.66c4.93,4.2,13.34,3.27,18.93,1,3.39-1.38,9.1-4.87,13.1-7.42A117.67,117.67,0,0,1,271.6,149.9Z" style="opacity:0.2"></path><path d="M262.51,132.72c-.22-.49-.46-1-.71-1.42l-13.41,4.41a2.27,2.27,0,0,0,.33,4.38,39.76,39.76,0,0,1,12.22,3.82c3.8,1.92,6.34,5.16,10.39,5.54A168.3,168.3,0,0,1,262.51,132.72Z" style="opacity:0.2"></path><path d="M259.36,203.23a1,1,0,0,1,.46,1.27,1,1,0,0,1-1.38.06,1,1,0,0,1-.46-1.28A1,1,0,0,1,259.36,203.23Z" style="opacity:0.2"></path><path d="M251.27,222.94s7.38,28.83,32.7,60.9c14,17.69,48.95,35.39,48.95,35.39l8.09-7.71c-14.75-6.95-16.15-31-37.05-47.25-1.31-23.81-6.89-39.95-21.83-66.35C260.69,206.66,251.27,222.94,251.27,222.94Z" style="fill:#ffc3bd"></path><path d="M267.64,205.13s23.79,27,61.13,43.66C376.11,269.86,350.28,213,350.28,213l-9.48-3.54s-1.2,5-.91,14.42c-13-23.44-20-33.83-37.19-41.51C285.53,193.4,267.64,205.13,267.64,205.13Z" style="fill:#ffc3bd"></path><path d="M248.49,155.48c.19.58,0,1.16-.42,1.29s-.93-.22-1.13-.8a1,1,0,0,1,.42-1.29A1,1,0,0,1,248.49,155.48Z" style="opacity:0.2"></path><path d="M223.28,177.54a1,1,0,0,1-.11,1.35,1,1,0,0,1-1.28-.52A1,1,0,0,1,222,177,1,1,0,0,1,223.28,177.54Z" style="opacity:0.2"></path><path d="M220.85,105.81l-7.48,24c5.49,2.57,10,6.5,4,15.3l12.38-.05c15.92-14.62,12.74-22.37,12.74-22.37C232.91,124.52,224.61,112.87,220.85,105.81Z" style="fill:#ffc3bd"></path><path d="M217.8,115.6l-4.43,14.2a17.66,17.66,0,0,1,3.83,2.29c2.81-1.4,6.58-5,5.36-13.19C222.3,117.18,218.89,115,217.8,115.6Z" style="opacity:0.2"></path><path d="M196.44,100.7c-6.62,2.87-3,12.9,5.3,13.34C208.83,105.35,196.44,100.7,196.44,100.7Z" style="fill:#407BFF"></path><path d="M224.79,100.84c3.61,9.81,6.12,12.91,3.46,19.93-4,10.56-17.63,13.82-24.09,5.29-5.82-7.67-10.75-22.42-3.08-30.32A14.26,14.26,0,0,1,224.79,100.84Z" style="fill:#ffc3bd"></path><path d="M237.83,97c.59,1.21-.9,3-2.58,2.3,1.08-1.9,2.55-5.67-.14-8.91-3.79-4.55-6.41-.9-6.41-.9s1.61-5.32-2.48-8.25-10.81,1.44-10.81,1.44-5.62-16.63-14.51-6a22.16,22.16,0,0,0-4.58,11.75c-4.1-1.09-5.53-6.48-2.93-8.83-7.24,4.87-3.94,11.62,2.12,13.77-2.74.55-8.3,2.33-4.11,7.28,2,2.42,6.59,5.23,12.93,1.13,1.94,2,8.93-.36,14.78-3.87-.83,3.61,3,11.2,8.18,11.1,9.13,1,10.63-5.89,8.8-7.94C238,100.78,239.34,99.17,237.83,97Z" style="fill:#407BFF"></path><path d="M216.35,113.71c-2,1.5-4.34,1.67-5.33.39s-.18-3.54,1.78-5,4.35-1.67,5.33-.39S218.32,112.21,216.35,113.71Z" style="fill:#ed847e;opacity:0.30000000000000004"></path><path d="M199.9,114.81a4.59,4.59,0,0,0-1.35.19,36.81,36.81,0,0,0,2.24,5.57,3.16,3.16,0,0,0,2.89-2.83C203.69,116.12,202,114.81,199.9,114.81Z" style="fill:#ed847e;opacity:0.30000000000000004"></path><path d="M211.48,109.88c.34.78.21,1.59-.3,1.81s-1.2-.22-1.54-1-.21-1.59.3-1.81S211.14,109.1,211.48,109.88Z" style="fill:#263238"></path><path d="M202.69,113.74c.35.78.21,1.59-.3,1.81s-1.19-.22-1.54-1-.2-1.59.31-1.81S202.35,113,202.69,113.74Z" style="fill:#263238"></path><path d="M205.66,112.9s.2,5.26-.79,8.28c1.94.68,4-.93,4-.93Z" style="fill:#ed847e"></path><path d="M213.72,120.45a8.64,8.64,0,0,1-1.63,1,.25.25,0,0,1-.2-.46,6.72,6.72,0,0,0,4-4.62.25.25,0,0,1,.28-.2.25.25,0,0,1,.21.29A7,7,0,0,1,213.72,120.45Z" style="fill:#263238"></path><path d="M214.21,104.86a.52.52,0,0,1-.55,0,3.93,3.93,0,0,0-3.51-.78.5.5,0,1,1-.33-1,5,5,0,0,1,4.46.94.5.5,0,0,1,.08.7A.37.37,0,0,1,214.21,104.86Z" style="fill:#263238"></path><path d="M196.66,111.9a.47.47,0,0,1-.33,0,.51.51,0,0,1-.31-.64,4.93,4.93,0,0,1,3.22-3.21.5.5,0,0,1,.61.36.52.52,0,0,1-.37.61A3.93,3.93,0,0,0,197,111.6.47.47,0,0,1,196.66,111.9Z" style="fill:#263238"></path><path d="M231.4,107.91a8.5,8.5,0,0,1-2.14,6.23c-2,2.26-4.7.87-5.52-1.88-.74-2.47-.57-6.62,2.14-7.87A3.92,3.92,0,0,1,231.4,107.91Z" style="fill:#ffc3bd"></path><path d="M245.84,220.47c-3.13,2.5,3.37,8.11,4.34,11.32s3.54,9.68,11.72,6.06,22.54-2.06,33.54-4.1c8.44-1.55,3-14.91,7.45-30.48,2.29-8,6.75-14,11.76-14-1.75-5.47-5.68-5.1-9.77-7-6.14-2.85-5.1-4.84-9.3-1.79-5.23,3.8-16.18,22.33-27.75,29.47S251.39,216.06,245.84,220.47Z" style="fill:#407BFF"></path><path d="M208,258.22a.35.35,0,0,1-.14,0,.31.31,0,0,1-.14-.42c.4-.82,40.36-82,37.36-94.39S169.47,97,168.74,96.44a.31.31,0,0,1-.06-.44.32.32,0,0,1,.44-.07c3,2.23,73.51,54.69,76.55,67.3s-35.75,91.47-37.41,94.82A.3.3,0,0,1,208,258.22Z" style="fill:#263238"></path><path d="M201.12,257.11a9.27,9.27,0,0,0-1.38,2.94,4.62,4.62,0,0,0,.19,2.93,3.44,3.44,0,0,0,2,1.88,3,3,0,0,0,2.67-.27,4.52,4.52,0,0,0,1.81-2.4,11,11,0,0,0,.6-3.33V258c0-.29-.06-.57-.09-.85l-.08-.85c-.05-.28-.14-.55-.21-.83l-.23-.83a7.75,7.75,0,0,0-.33-.79,9.47,9.47,0,0,0-.78-1.56,24.68,24.68,0,0,0-4.54-5.5,63.45,63.45,0,0,0-5.65-4.65c-3.94-2.94-8.1-5.62-12.24-8.36s-8.35-5.44-12.29-8.63a79.86,79.86,0,0,1-11.06-10.48,66.19,66.19,0,0,1-8.67-12.73c-.63-1.14-1.11-2.34-1.67-3.5s-1-2.39-1.47-3.59l-1.21-3.68-1-3.73-.78-3.79-.59-3.83c-.12-1.29-.26-2.57-.34-3.86s-.15-2.58-.11-3.88a65.94,65.94,0,0,1,1.91-15.29,80.26,80.26,0,0,1,5.05-14.37c2-4.63,4.59-9,7-13.29s4.91-8.6,7.07-13a61.81,61.81,0,0,0,2.91-6.71,24.16,24.16,0,0,0,1.53-7,9.19,9.19,0,0,0,0-1.74,8.1,8.1,0,0,0-.06-.86l-.18-.84c-.06-.28-.11-.56-.19-.83l-.31-.8c-.11-.26-.2-.53-.31-.79l-.41-.78a11.06,11.06,0,0,0-2.05-2.69,4.56,4.56,0,0,0-2.71-1.3,3,3,0,0,0-2.5,1,3.45,3.45,0,0,0-.91,2.59A4.64,4.64,0,0,0,160.61,98a9.5,9.5,0,0,0,2.58,2h0a1.26,1.26,0,1,1-1.2,2.21l-.05,0a11.67,11.67,0,0,1-3.16-2.69,7,7,0,0,1-1.58-4.07,5.7,5.7,0,0,1,1.61-4.19A5.53,5.53,0,0,1,160.76,90a5.43,5.43,0,0,1,2.29-.27,6.77,6.77,0,0,1,3.86,1.89,12.79,12.79,0,0,1,2.42,3.21l.45.87c.13.31.24.63.36.94l.36.94c.09.32.14.65.21,1l.21,1c.05.33.05.66.08,1a11.79,11.79,0,0,1,0,2A25.82,25.82,0,0,1,169.4,110a63.93,63.93,0,0,1-2.91,7c-2.16,4.51-4.53,8.88-6.85,13.26-1.15,2.19-2.33,4.37-3.42,6.58-.53,1.1-1.07,2.19-1.54,3.32s-1,2.23-1.38,3.38a62.86,62.86,0,0,0-3.53,14.06A82.3,82.3,0,0,0,162.91,212a63,63,0,0,0,9.56,10.9c.88.84,1.82,1.62,2.77,2.38s1.92,1.52,2.89,2.26c2,1.46,4,2.86,6,4.28,4.06,2.85,8.17,5.65,12.15,8.68a66.36,66.36,0,0,1,5.77,4.87,26.24,26.24,0,0,1,4.86,5.94,11.22,11.22,0,0,1,.88,1.77c.13.31.28.6.38.92l.27,1c.08.32.19.64.25,1l.12,1c0,.33.08.67.1,1v1a12.41,12.41,0,0,1-.69,4,6.77,6.77,0,0,1-2.57,3.45,5.28,5.28,0,0,1-2.16.8,5.44,5.44,0,0,1-2.3-.23,5.67,5.67,0,0,1-3.34-3,7,7,0,0,1-.45-4.35,11.61,11.61,0,0,1,1.58-3.83,1.26,1.26,0,1,1,2.14,1.32l0,0Z" style="fill:#407BFF"></path><path d="M245.83,158.17,241,159.34a6.88,6.88,0,0,0-4.68,3.88l-1.14,2.54,10.19-2.46,1.66-3.7A1,1,0,0,0,245.83,158.17Z" style="fill:#407BFF"></path><path d="M248.13,167.66l-4.84,1.17a6.91,6.91,0,0,1-5.94-1.33l-2.17-1.74,10.19-2.46,3.16,2.54A1,1,0,0,1,248.13,167.66Z" style="fill:#407BFF"></path><path d="M129.38,191.5a.31.31,0,0,1-.07-.62l116-28a.32.32,0,0,1,.38.23.32.32,0,0,1-.24.38l-115.95,28Z" style="fill:#263238"></path><path d="M119,188.09a3.86,3.86,0,0,0,1.28,5.29,3.85,3.85,0,1,0,6.57,4l4-6.56-6.57-4A3.86,3.86,0,0,0,119,188.09Z" style="fill:#407BFF"></path><path d="M161.85,187.38c-4-4.36-9.06-2.89-13.36-3-.73,0-1.47,1.79-.4,2.57a6.08,6.08,0,0,0,4.5,1.49c.6,1.74,4,5.89,8.89,4.24A7.46,7.46,0,0,0,161.85,187.38Z" style="fill:#ffc3bd"></path><path d="M241,121.58c2.95-.49,6.13-.89,9.31-1.18s6.45-.48,9.83-.45a58.55,58.55,0,0,1,10.87.92,27.82,27.82,0,0,1,6.85,2.14,17.52,17.52,0,0,1,4.48,3,14.38,14.38,0,0,1,2.34,2.82,13.56,13.56,0,0,1,1.64,3.77l.14.52a7.31,7.31,0,0,1,.22,1.79,20.73,20.73,0,0,1-1.26,6.93,28.19,28.19,0,0,1-2.57,5.25,39.93,39.93,0,0,1-6.33,7.62,58.2,58.2,0,0,1-7,5.64c-1.21.84-2.46,1.61-3.71,2.35l-1.92,1.07-2,1a5.39,5.39,0,0,1-6.69-8.11l.34-.44,2.29-2.95c.79-1,1.54-2,2.29-3s1.45-2,2.14-3,1.34-2,1.92-3,1.17-1.95,1.63-2.9.85-1.86,1.16-2.7c.61-1.66.59-3.05.36-3.16l.36,2.31a6.19,6.19,0,0,0,1.55,2.83c.5.5.68.6.64.65s-.93-.14-1.89-.19-2.15-.09-3.38-.06-2.53.06-3.86.15c-2.67.19-5.45.42-8.27.74s-5.66.65-8.71.93a10.76,10.76,0,0,1-2.8-21.32Z" style="fill:#ffc3bd"></path><path d="M262.1,161.78l-1.72-2.26a7.25,7.25,0,0,0-8.67-2.28l-4.28,2-3.66,3.47a2.69,2.69,0,0,0-.41,3.28l2.17,3.64a2.68,2.68,0,0,0,2.95,1.24l5.12-1.26S262.85,166.29,262.1,161.78Z" style="fill:#ffc3bd"></path><path d="M262.67,230.28c31.37-20.52,28.58-38.25,36-47.75C294.91,203.92,287.82,214.92,262.67,230.28Z" style="opacity:0.1"></path><path d="M299.83,193.18c-1.63,10.56-4.56,15.55-8.49,20.68C302.89,203.27,299.83,193.18,299.83,193.18Z" style="opacity:0.1"></path><path d="M275.64,215.82c-11.15,7.67-18.13,9.32-26,10.17C268.67,227.36,275.64,215.82,275.64,215.82Z" style="opacity:0.1"></path></g><g id="Cloud"><path d="M247.39,309.47c-6.18-24.22-59.71-30.06-64.49-7.85-28.21-13.95-47.22,27.37-27.78,38.65-3.57,19.37,20.19,37.87,46.8,29,11.68,20.41,45.19,18.67,52.55,4.5,9.27,23,55,22.63,50.76,5.57,20.46-.44,27.46-42.68-.83-47.82C307.09,299,249.63,290.86,247.39,309.47Z" style="fill:#407BFF"></path><path d="M247.39,309.47c-6.18-24.22-59.71-30.06-64.49-7.85-28.21-13.95-47.22,27.37-27.78,38.65-3.57,19.37,20.19,37.87,46.8,29,11.68,20.41,45.19,18.67,52.55,4.5,9.27,23,55,22.63,50.76,5.57,20.46-.44,27.46-42.68-.83-47.82C307.09,299,249.63,290.86,247.39,309.47Z" style="fill:#fff;opacity:0.8"></path></g></svg>