<svg xmlns="http://www.w3.org/2000/svg" viewBox="0 0 500 500"><g id="background-complete"><path d="M443.92,350.14H263.17a5.87,5.87,0,0,1-5.86-5.86V81a5.87,5.87,0,0,1,5.86-5.86H443.92A5.87,5.87,0,0,1,449.78,81V344.28A5.87,5.87,0,0,1,443.92,350.14ZM263.17,75.4A5.61,5.61,0,0,0,257.56,81V344.28a5.61,5.61,0,0,0,5.61,5.61H443.92a5.61,5.61,0,0,0,5.61-5.61V81a5.61,5.61,0,0,0-5.61-5.61Z" style="fill:#e0e0e0"></path><path d="M235.49,350.14H54.75a5.87,5.87,0,0,1-5.87-5.86V81a5.87,5.87,0,0,1,5.87-5.86H235.49A5.86,5.86,0,0,1,241.35,81V344.28A5.86,5.86,0,0,1,235.49,350.14ZM54.75,75.4A5.62,5.62,0,0,0,49.13,81V344.28a5.62,5.62,0,0,0,5.62,5.61H235.49a5.61,5.61,0,0,0,5.61-5.61V81a5.61,5.61,0,0,0-5.61-5.61Z" style="fill:#e0e0e0"></path><rect y="411.21" width="500" height="0.25" style="fill:#e0e0e0"></rect><g id="freepik--Moon--inject-158"><circle cx="255.2" cy="153.84" r="114.89" transform="translate(-34.03 225.51) rotate(-45)" style="fill:#f0f0f0"></circle><path d="M182.45,114.69c-3.76-4.29,4.7-17.88,18.87-30.19S230,65.57,233.79,69.89s-4.7,17.88-18.88,30.19S186.2,119,182.45,114.69Z" style="fill:#e6e6e6"></path><path d="M270.31,115.74c12.64,4.06,16.74,22.44,10.63,41.58s-22,33-34.05,27.25c-12.47-5.94-17.88-23-11.8-42S257.64,111.68,270.31,115.74Z" style="fill:#e6e6e6"></path><path d="M303.64,174.39c4.7,1.53,6.82,8,4.74,14.4s-7.53,10.37-12.23,8.89-6.82-8-4.74-14.4S299,172.91,303.64,174.39Z" style="fill:#e0e0e0;isolation:isolate"></path><path d="M302.26,174.11c3.44,1.06,3.63,6.76,1.59,13.2s-5.12,11.13-8.55,10-6-7.62-3.89-14.06S299.45,173.25,302.26,174.11Z" style="fill:#e6e6e6"></path><path d="M301.93,74.66c3.3-3.24,11.09-.69,17.45,5.75s8.81,14.25,5.51,17.5-11.11.69-17.44-5.72S298.64,77.91,301.93,74.66Z" style="fill:#e0e0e0;isolation:isolate"></path><path d="M300.83,75.74c2.71-2.56,10,.35,16.38,6.79S326.48,96.3,323.8,99s-10-.38-16.38-6.79S298.28,78.39,300.83,75.74Z" style="fill:#e6e6e6"></path><path d="M174.48,235.58s92,47.61,150-8.79c49.5-48.09,23.91-140.2,23.91-140.2,30.22,43.42,29.81,107.28-12.41,149C289.54,281.25,217.11,277.49,174.48,235.58Z" style="fill:#e6e6e6;isolation:isolate"></path><path d="M178,131c-3.24-1.05-7.66,3.34-9.58,9.78s-1.07,12.49,2.17,13.54,7.54-3.37,9.58-9.81S181.25,132,178,131Z" style="fill:#e0e0e0;isolation:isolate"></path><path d="M179.05,131.29c-2.56-.84-6.46,3.68-8.51,10.22s-1.56,12.36,1.13,13.2,6.46-3.7,8.5-10.21S181.73,132.13,179.05,131.29Z" style="fill:#e6e6e6"></path><path d="M199.76,230.42c-5.26,3.91-16.09-1.76-24.19-12.77s-10.39-23-5.1-26.8,16.09,1.74,24.18,12.62S205,226.49,199.76,230.42Z" style="fill:#e0e0e0;isolation:isolate"></path><path d="M199.77,230.39c-4.32,3.2-14.38-3-22.48-13.92s-11.16-22.32-6.84-25.54,14.25-.54,24.2,12.54C204.3,216.15,204.09,227.17,199.77,230.39Z" style="fill:#e6e6e6"></path></g><path d="M139.89,59.38c-3.59-2.55-7-6.94-11.37-6.59a11.75,11.75,0,0,0-17.3-11.9c-2.22-3.81-9.62-5.86-14-5.19a15.12,15.12,0,0,0-9.62,5.93A9.55,9.55,0,0,0,74.42,52.37c-2.84-.69-5.72,1.05-7.78,3.13s-3.71,4.61-6.16,6.22-6.13,1.94-8-.3l-2.22.52A12.36,12.36,0,0,0,68.32,66.6a20.15,20.15,0,0,0,13.16,6.91c4.78.31,10.09-1.87,12.43-5.23.58,1.73,3.81,5.43,7.29,6.47s9.41-.29,11.24-3.43A12.78,12.78,0,0,0,126,72.94c2.48-1.22,5.69-3.87,8.24-4.93,3.39-1.4,6.19.87,9.84.52s8.2-2.33,9.15-5.87C149.06,64.45,143.47,61.94,139.89,59.38Z" style="fill:#f0f0f0"></path><path d="M102,57.93a8.75,8.75,0,0,1-4.37-1.12A7.18,7.18,0,0,1,94,50.58a5.83,5.83,0,0,1,4.58-5.46,5.31,5.31,0,0,1,5.33,2.5.5.5,0,0,1-.18.68.51.51,0,0,1-.69-.18,4.25,4.25,0,0,0-4.29-2A4.8,4.8,0,0,0,95,50.62a6.14,6.14,0,0,0,3.13,5.32,8.3,8.3,0,0,0,6.42.63,10.09,10.09,0,0,0,5.56-15.37.5.5,0,0,1,.14-.69.49.49,0,0,1,.69.13,11.09,11.09,0,0,1-6.12,16.89A10.22,10.22,0,0,1,102,57.93Z" style="fill:#e0e0e0"></path><path d="M113.09,72a.46.46,0,0,1-.23,0c-2.09-1.06-2.69-3.51-2.57-5.45a10.66,10.66,0,0,1,6.42-8.81c2.53-1.09,4.73-1,6.54.14A4.71,4.71,0,0,1,125,63.52a5.14,5.14,0,0,1-5.5,2.79.5.5,0,0,1-.4-.59.49.49,0,0,1,.58-.39,4.17,4.17,0,0,0,4.4-2.21,3.68,3.68,0,0,0-1.4-4.48c-1.52-1-3.4-1-5.59-.07a9.66,9.66,0,0,0-5.83,8c-.1,1.55.37,3.65,2,4.49a.5.5,0,0,1-.22.94Z" style="fill:#e0e0e0"></path><path d="M121.11,58.11a.52.52,0,0,1-.21,0,.5.5,0,0,1-.24-.67c1-2.22,2.76-4.55,7.45-5a.51.51,0,0,1,.55.46.5.5,0,0,1-.46.54c-4.18.38-5.66,2.34-6.64,4.41A.48.48,0,0,1,121.11,58.11Z" style="fill:#e0e0e0"></path><path d="M91.93,70.42a.5.5,0,0,1-.34-.87c2.23-2,3-6,2.36-8.67a6.66,6.66,0,0,0-5.62-4.94,7.53,7.53,0,0,0-6.91,3.27,4.08,4.08,0,0,0-.76,3.47,3.36,3.36,0,0,0,2.85,2.08,6.42,6.42,0,0,0,3.81-.94A.5.5,0,0,1,88,64a.51.51,0,0,1-.2.68,7.41,7.41,0,0,1-4.4,1.06A4.39,4.39,0,0,1,79.71,63a5.07,5.07,0,0,1,.88-4.35A8.57,8.57,0,0,1,88.45,55a7.66,7.66,0,0,1,6.47,5.71c.65,2.92-.06,7.28-2.66,9.63A.51.51,0,0,1,91.93,70.42Z" style="fill:#e0e0e0"></path><path d="M402.68,78.76a18.46,18.46,0,0,1,12.79,1.79l.23-.52c-1.51-3,.31-8.33,2.93-10.47s5.41-2.65,8.79-2.81a18.63,18.63,0,0,1,8.64,1.48,12,12,0,0,1,5.88,7.6,6.25,6.25,0,0,1,4.86,5,7.89,7.89,0,0,1-2.27,6.78,10.79,10.79,0,0,1-6.66,3c.67,1.76-.37,3.72-1.66,5.09A15.73,15.73,0,0,1,425,100.39a21.24,21.24,0,0,1-11.76-3.59c-3.48-2.26-6.36-5.33-9.74-7.73s-7.6-4.15-11.64-3.21A18.53,18.53,0,0,1,402.68,78.76Z" style="fill:#f0f0f0"></path><path d="M425.07,86.63a8.68,8.68,0,0,1-2.6-.39,13.82,13.82,0,0,1-7-5.53.5.5,0,0,1,.12-.7.51.51,0,0,1,.7.11,13,13,0,0,0,6.46,5.17,7,7,0,0,0,7.43-1.89,5.44,5.44,0,0,0-8.44-6.85.51.51,0,0,1-.71.06.49.49,0,0,1-.06-.7A6.44,6.44,0,0,1,431,84,7.55,7.55,0,0,1,425.07,86.63Z" style="fill:#e0e0e0"></path><path d="M119.72,365.36c-1.33-2.76-4.17-5-7.91-3.22a9.69,9.69,0,0,0-2.12,1.44c0-.36,0-.72-.09-1.06-.64-4.1-4.12-5.14-7.15-4.67s-6,2.52-5.39,6.63a8.88,8.88,0,0,0,.36,1.46l0,0c-4-.94-6.31,1.9-7,4.88s.08,6.54,4.13,7.48a10.14,10.14,0,0,0,2.55.23,7,7,0,0,0-.59.87c-2.09,3.59,0,6.59,2.61,8.13s6.27,1.83,8.36-1.76a10,10,0,0,0,1-2.37c.21.29.43.56.66.82,2.83,3,6.3,2,8.54-.12s3.59-5.47.76-8.51a9.6,9.6,0,0,0-2-1.61,9.55,9.55,0,0,0,1-.4C121.08,371.75,121.06,368.12,119.72,365.36Z" style="fill:#f0f0f0"></path><path d="M109,372.26a2.9,2.9,0,1,1-3.31-2.42A2.9,2.9,0,0,1,109,372.26Z" style="fill:#e0e0e0"></path><path d="M106.44,367.33a1.11,1.11,0,1,1-1.27-.93A1.11,1.11,0,0,1,106.44,367.33Z" style="fill:#e0e0e0"></path><path d="M108.06,377.74a1.11,1.11,0,1,1-1.26-.92A1.1,1.1,0,0,1,108.06,377.74Z" style="fill:#e0e0e0"></path><polygon points="106.77 377.94 105.15 367.53 105.54 367.46 107.16 377.88 106.77 377.94" style="fill:#e0e0e0"></polygon><path d="M111.53,373a1.11,1.11,0,1,1,.93-1.27A1.11,1.11,0,0,1,111.53,373Z" style="fill:#e0e0e0"></path><path d="M101.12,374.61a1.11,1.11,0,1,1,.92-1.26A1.1,1.1,0,0,1,101.12,374.61Z" style="fill:#e0e0e0"></path><polygon points="100.98 373.71 100.92 373.32 111.33 371.7 111.39 372.09 100.98 373.71" style="fill:#e0e0e0"></polygon><path d="M110.16,369.1a1.11,1.11,0,1,1-.24-1.55A1.11,1.11,0,0,1,110.16,369.1Z" style="fill:#e0e0e0"></path><path d="M103.94,377.61a1.11,1.11,0,1,1-.24-1.54A1.1,1.1,0,0,1,103.94,377.61Z" style="fill:#e0e0e0"></path><polygon points="103.21 377.08 102.89 376.84 109.11 368.33 109.42 368.56 103.21 377.08" style="fill:#e0e0e0"></polygon><path d="M109.76,376.71a1.11,1.11,0,0,1-.24-1.55,1.11,1.11,0,0,1,1.79,1.31A1.12,1.12,0,0,1,109.76,376.71Z" style="fill:#e0e0e0"></path><path d="M101.25,370.49a1.11,1.11,0,1,1,1.54-.24A1.1,1.1,0,0,1,101.25,370.49Z" style="fill:#e0e0e0"></path><rect x="105.96" y="367.43" width="0.39" height="10.54" transform="translate(-257.42 238.59) rotate(-53.85)" style="fill:#e0e0e0"></rect><path d="M425.67,163.69c-1.73-3.57-5.41-6.5-10.24-4.16a12.4,12.4,0,0,0-2.75,1.85,12.06,12.06,0,0,0-.12-1.36c-.82-5.31-5.33-6.66-9.25-6.05s-7.79,3.27-7,8.58a12.14,12.14,0,0,0,.47,1.89l-.05,0c-5.23-1.22-8.17,2.45-9.07,6.31s.11,8.46,5.34,9.68a12.77,12.77,0,0,0,3.3.29,10.15,10.15,0,0,0-.76,1.13c-2.7,4.64-.05,8.53,3.38,10.52s8.11,2.37,10.81-2.28A12.65,12.65,0,0,0,411,187a12.81,12.81,0,0,0,.86,1.06c3.65,3.94,8.14,2.54,11.05-.15s4.64-7.07,1-11a12.68,12.68,0,0,0-2.57-2.09,10.85,10.85,0,0,0,1.27-.51C427.42,172,427.4,167.26,425.67,163.69Z" style="fill:#f0f0f0"></path><path d="M411.82,172.62a3.75,3.75,0,1,1-4.28-3.13A3.75,3.75,0,0,1,411.82,172.62Z" style="fill:#e0e0e0"></path><path d="M408.48,166.23a1.43,1.43,0,1,1-1.64-1.19A1.43,1.43,0,0,1,408.48,166.23Z" style="fill:#e0e0e0"></path><path d="M410.58,179.71a1.43,1.43,0,0,1-1.2,1.63,1.43,1.43,0,1,1,1.2-1.63Z" style="fill:#e0e0e0"></path><polygon points="408.91 179.97 406.81 166.49 407.32 166.41 409.42 179.89 408.91 179.97" style="fill:#e0e0e0"></polygon><path d="M415.07,173.56a1.43,1.43,0,0,1-.44-2.83,1.43,1.43,0,1,1,.44,2.83Z" style="fill:#e0e0e0"></path><path d="M401.6,175.66a1.43,1.43,0,1,1,1.19-1.64A1.44,1.44,0,0,1,401.6,175.66Z" style="fill:#e0e0e0"></path><polygon points="401.42 174.5 401.34 173.99 414.81 171.89 414.89 172.4 401.42 174.5" style="fill:#e0e0e0"></polygon><path d="M413.29,168.53a1.43,1.43,0,1,1-.31-2A1.43,1.43,0,0,1,413.29,168.53Z" style="fill:#e0e0e0"></path><path d="M405.25,179.54a1.44,1.44,0,0,1-2.32-1.69,1.44,1.44,0,0,1,2.32,1.69Z" style="fill:#e0e0e0"></path><polygon points="404.3 178.85 403.88 178.55 411.93 167.54 412.34 167.84 404.3 178.85" style="fill:#e0e0e0"></polygon><path d="M412.77,178.37a1.44,1.44,0,0,1-.31-2,1.44,1.44,0,1,1,.31,2Z" style="fill:#e0e0e0"></path><path d="M401.76,170.33a1.44,1.44,0,1,1,2-.31A1.44,1.44,0,0,1,401.76,170.33Z" style="fill:#e0e0e0"></path><rect x="407.86" y="166.37" width="0.51" height="13.64" transform="translate(27.54 400.6) rotate(-53.85)" style="fill:#e0e0e0"></rect><path d="M442.41,379.63c-.88-1.81-2.75-3.3-5.2-2.11a6.6,6.6,0,0,0-1.4.94,5.2,5.2,0,0,0-.06-.69c-.42-2.69-2.7-3.38-4.69-3.07s-4,1.66-3.54,4.35a5.62,5.62,0,0,0,.24,1h0c-2.65-.62-4.15,1.25-4.61,3.21s.06,4.29,2.72,4.91a6.5,6.5,0,0,0,1.67.15c-.14.18-.27.38-.39.57-1.37,2.36,0,4.33,1.72,5.34s4.12,1.21,5.49-1.15a6.53,6.53,0,0,0,.63-1.56,5.75,5.75,0,0,0,.44.54c1.85,2,4.13,1.29,5.61-.08s2.35-3.59.49-5.59a6.2,6.2,0,0,0-1.3-1.06,6.11,6.11,0,0,0,.64-.26C443.3,383.83,443.28,381.44,442.41,379.63Z" style="fill:#f0f0f0"></path><path d="M435.38,384.16a1.91,1.91,0,1,1-2.18-1.58A1.91,1.91,0,0,1,435.38,384.16Z" style="fill:#e0e0e0"></path><path d="M433.68,380.92a.74.74,0,0,1-.61.84.73.73,0,1,1,.61-.84Z" style="fill:#e0e0e0"></path><path d="M434.74,387.77a.72.72,0,1,1-.83-.61A.72.72,0,0,1,434.74,387.77Z" style="fill:#e0e0e0"></path><polygon points="433.9 387.9 432.83 381.06 433.09 381.02 434.15 387.86 433.9 387.9" style="fill:#e0e0e0"></polygon><path d="M437,384.64a.73.73,0,0,1-.83-.6.72.72,0,0,1,1.43-.23A.73.73,0,0,1,437,384.64Z" style="fill:#e0e0e0"></path><path d="M430.19,385.71a.73.73,0,0,1-.83-.61.72.72,0,0,1,.6-.83.73.73,0,0,1,.23,1.44Z" style="fill:#e0e0e0"></path><polygon points="430.09 385.12 430.05 384.86 436.89 383.8 436.93 384.05 430.09 385.12" style="fill:#e0e0e0"></polygon><path d="M436.12,382.09a.73.73,0,1,1-1.17-.86.73.73,0,1,1,1.17.86Z" style="fill:#e0e0e0"></path><path d="M432,387.68a.72.72,0,0,1-1,.16.74.74,0,0,1-.16-1,.73.73,0,0,1,1-.15A.72.72,0,0,1,432,387.68Z" style="fill:#e0e0e0"></path><polygon points="431.56 387.33 431.35 387.18 435.43 381.58 435.64 381.74 431.56 387.33" style="fill:#e0e0e0"></polygon><path d="M435.86,387.09a.73.73,0,1,1,1-.16A.74.74,0,0,1,435.86,387.09Z" style="fill:#e0e0e0"></path><path d="M430.27,383a.73.73,0,1,1,.86-1.17.73.73,0,1,1-.86,1.17Z" style="fill:#e0e0e0"></path><rect x="433.36" y="381" width="0.26" height="6.92" transform="translate(-132.66 507.74) rotate(-53.85)" style="fill:#e0e0e0"></rect><path d="M117.69,136.8c-.88-1.81-2.74-3.3-5.2-2.11a6.81,6.81,0,0,0-1.39.94q0-.34-.06-.69c-.42-2.69-2.71-3.38-4.7-3.07s-4,1.66-3.54,4.35a6.74,6.74,0,0,0,.24,1h0c-2.66-.63-4.15,1.24-4.61,3.2s.06,4.29,2.71,4.91a6.62,6.62,0,0,0,1.68.15,6.42,6.42,0,0,0-.39.57c-1.37,2.36,0,4.33,1.72,5.34s4.12,1.21,5.49-1.15a6.53,6.53,0,0,0,.63-1.56,5.66,5.66,0,0,0,.43.54c1.86,2,4.14,1.29,5.61-.08s2.36-3.59.5-5.59a6.26,6.26,0,0,0-1.31-1.06,6.29,6.29,0,0,0,.65-.26C118.58,141,118.57,138.62,117.69,136.8Z" style="fill:#f0f0f0"></path><path d="M110.66,141.33a1.9,1.9,0,1,1-2.17-1.58A1.91,1.91,0,0,1,110.66,141.33Z" style="fill:#e0e0e0"></path><path d="M109,138.1a.74.74,0,0,1-.61.83.73.73,0,0,1-.22-1.44A.74.74,0,0,1,109,138.1Z" style="fill:#e0e0e0"></path><path d="M110,144.94a.73.73,0,1,1-1.44.22.73.73,0,1,1,1.44-.22Z" style="fill:#e0e0e0"></path><polygon points="109.18 145.07 108.12 138.23 108.38 138.19 109.44 145.03 109.18 145.07" style="fill:#e0e0e0"></polygon><path d="M112.31,141.81a.72.72,0,1,1,.61-.83A.72.72,0,0,1,112.31,141.81Z" style="fill:#e0e0e0"></path><path d="M105.47,142.88a.73.73,0,1,1,.61-.83A.73.73,0,0,1,105.47,142.88Z" style="fill:#e0e0e0"></path><polygon points="105.38 142.29 105.34 142.03 112.18 140.97 112.22 141.22 105.38 142.29" style="fill:#e0e0e0"></polygon><path d="M111.41,139.26a.72.72,0,0,1-1,.16.74.74,0,0,1-.16-1,.73.73,0,0,1,1-.15A.72.72,0,0,1,111.41,139.26Z" style="fill:#e0e0e0"></path><path d="M107.32,144.85a.71.71,0,0,1-1,.16.73.73,0,1,1,1-.16Z" style="fill:#e0e0e0"></path><polygon points="106.84 144.5 106.63 144.35 110.72 138.76 110.93 138.91 106.84 144.5" style="fill:#e0e0e0"></polygon><path d="M111.15,144.26a.73.73,0,1,1,1-.16A.73.73,0,0,1,111.15,144.26Z" style="fill:#e0e0e0"></path><path d="M105.56,140.17a.72.72,0,1,1,1-.16A.71.71,0,0,1,105.56,140.17Z" style="fill:#e0e0e0"></path><rect x="108.65" y="138.17" width="0.26" height="6.92" transform="translate(-69.75 145.93) rotate(-53.85)" style="fill:#e0e0e0"></rect><rect x="420.91" y="431.21" width="34.72" height="0.25" style="fill:#e9e9e9"></rect><rect x="322.11" y="433.93" width="9.11" height="0.25" style="fill:#e9e9e9"></rect><rect x="399.75" y="421.93" width="20.12" height="0.25" style="fill:#e9e9e9"></rect><rect x="38.99" y="423.61" width="45.28" height="0.25" style="fill:#e9e9e9"></rect><rect x="93.61" y="423.61" width="6.64" height="0.25" style="fill:#e9e9e9"></rect><rect x="121.82" y="427.83" width="98.21" height="0.25" style="fill:#e9e9e9"></rect></g><g id="background-simple"><path d="M367.42,108.12A107.92,107.92,0,0,0,331,71.34C312.66,60,286.91,50.83,262,64.62c-45.94,25.45-32.49,67.85-68.26,70.65-40.51,3.18-82,24.46-79.65,71.33,4.56,89,173.08,141.08,237.94,88.23C392.42,261.93,413.24,185.11,367.42,108.12Z" style="fill:#407BFF"></path><path d="M367.42,108.12A107.92,107.92,0,0,0,331,71.34C312.66,60,286.91,50.83,262,64.62c-45.94,25.45-32.49,67.85-68.26,70.65-40.51,3.18-82,24.46-79.65,71.33,4.56,89,173.08,141.08,237.94,88.23C392.42,261.93,413.24,185.11,367.42,108.12Z" style="fill:#fff;opacity:0.9"></path></g><g id="Shadow"><path d="M458.88,443.32c0,3.39-93.52,6.13-208.88,6.13s-208.88-2.74-208.88-6.13,93.52-6.13,208.88-6.13S458.88,439.93,458.88,443.32Z" style="fill:#f5f5f5"></path></g><g id="Plants"><path d="M98,179.8c-1.38-2.85-4.31-5.19-8.17-3.32A10.17,10.17,0,0,0,87.63,178a9.44,9.44,0,0,0-.09-1.08c-.66-4.24-4.26-5.32-7.38-4.83s-6.23,2.6-5.57,6.84A9.54,9.54,0,0,0,75,180.4h0c-4.18-1-6.52,2-7.24,5s.08,6.75,4.26,7.72a9.84,9.84,0,0,0,2.63.23,10.32,10.32,0,0,0-.61.91c-2.15,3.7,0,6.8,2.7,8.39s6.48,1.89,8.63-1.82a10.47,10.47,0,0,0,1-2.45,9.73,9.73,0,0,0,.68.85c2.92,3.14,6.5,2,8.82-.12s3.7-5.64.79-8.79a10,10,0,0,0-2.06-1.66,8.2,8.2,0,0,0,1-.41C99.39,186.4,99.37,182.65,98,179.8Z" style="fill:#407BFF"></path><path d="M98,179.8c-1.38-2.85-4.31-5.19-8.17-3.32A10.17,10.17,0,0,0,87.63,178a9.44,9.44,0,0,0-.09-1.08c-.66-4.24-4.26-5.32-7.38-4.83s-6.23,2.6-5.57,6.84A9.54,9.54,0,0,0,75,180.4h0c-4.18-1-6.52,2-7.24,5s.08,6.75,4.26,7.72a9.84,9.84,0,0,0,2.63.23,10.32,10.32,0,0,0-.61.91c-2.15,3.7,0,6.8,2.7,8.39s6.48,1.89,8.63-1.82a10.47,10.47,0,0,0,1-2.45,9.73,9.73,0,0,0,.68.85c2.92,3.14,6.5,2,8.82-.12s3.7-5.64.79-8.79a10,10,0,0,0-2.06-1.66,8.2,8.2,0,0,0,1-.41C99.39,186.4,99.37,182.65,98,179.8Z" style="fill:#fff;opacity:0.5"></path><path d="M86.94,186.92a3,3,0,1,1-3.42-2.49A3,3,0,0,1,86.94,186.92Z" style="fill:#263238"></path><path d="M84.28,181.83a1.14,1.14,0,1,1-2.26.35,1.14,1.14,0,0,1,2.26-.35Z" style="fill:#263238"></path><path d="M86,192.59a1.14,1.14,0,0,1-2.26.35,1.14,1.14,0,1,1,2.26-.35Z" style="fill:#263238"></path><polygon points="84.65 192.79 82.97 182.04 83.32 181.98 85 192.74 84.65 192.79" style="fill:#263238"></polygon><path d="M89.54,187.68a1.14,1.14,0,1,1-.35-2.26,1.14,1.14,0,0,1,.35,2.26Z" style="fill:#263238"></path><path d="M78.78,189.35a1.14,1.14,0,0,1-.35-2.26,1.14,1.14,0,1,1,.35,2.26Z" style="fill:#263238"></path><polygon points="78.64 188.4 78.58 188.05 89.33 186.38 89.39 186.72 78.64 188.4" style="fill:#263238"></polygon><path d="M88.12,183.67a1.15,1.15,0,1,1-.25-1.6A1.14,1.14,0,0,1,88.12,183.67Z" style="fill:#263238"></path><path d="M81.7,192.45a1.14,1.14,0,1,1-.25-1.59A1.14,1.14,0,0,1,81.7,192.45Z" style="fill:#263238"></path><polygon points="80.92 191.88 80.63 191.68 87.05 182.89 87.34 183.09 80.92 191.88" style="fill:#263238"></polygon><path d="M87.7,191.52a1.15,1.15,0,1,1,1.6-.25A1.14,1.14,0,0,1,87.7,191.52Z" style="fill:#263238"></path><path d="M78.92,185.1a1.14,1.14,0,1,1,1.59-.25A1.14,1.14,0,0,1,78.92,185.1Z" style="fill:#263238"></path><polygon points="88.28 190.74 79.49 184.32 79.69 184.03 88.48 190.45 88.28 190.74" style="fill:#263238"></polygon><path d="M86.49,287.87c-.75-1.54-2.34-2.81-4.43-1.8a5.58,5.58,0,0,0-1.18.8,5.44,5.44,0,0,0,0-.58c-.36-2.3-2.31-2.88-4-2.62s-3.37,1.41-3,3.71a4.79,4.79,0,0,0,.2.81h0c-2.26-.53-3.53,1.05-3.92,2.72s0,3.66,2.31,4.18a5.08,5.08,0,0,0,1.42.13,5.25,5.25,0,0,0-.33.49c-1.17,2,0,3.68,1.46,4.54s3.51,1,4.67-1a5.62,5.62,0,0,0,.54-1.33,5.72,5.72,0,0,0,.37.46c1.58,1.7,3.52,1.1,4.78-.07s2-3.05.42-4.75a5.2,5.2,0,0,0-1.11-.9l.55-.22C87.25,291.44,87.23,289.41,86.49,287.87Z" style="fill:#407BFF"></path><path d="M80.5,291.73a1.62,1.62,0,1,1-1.85-1.35A1.62,1.62,0,0,1,80.5,291.73Z" style="fill:#263238"></path><path d="M79.06,289a.63.63,0,0,1-.52.71.62.62,0,0,1-.7-.52.62.62,0,1,1,1.22-.19Z" style="fill:#263238"></path><path d="M80,294.79a.62.62,0,1,1-.71-.51A.62.62,0,0,1,80,294.79Z" style="fill:#263238"></path><polygon points="79.18 294.92 78.28 289.09 78.62 289.04 79.53 294.86 79.18 294.92" style="fill:#263238"></polygon><path d="M81.91,292.14a.62.62,0,1,1,.52-.71A.63.63,0,0,1,81.91,292.14Z" style="fill:#263238"></path><path d="M76.09,293a.62.62,0,1,1,.51-.7A.61.61,0,0,1,76.09,293Z" style="fill:#263238"></path><polygon points="76.02 292.6 75.97 292.26 81.79 291.35 81.84 291.7 76.02 292.6" style="fill:#263238"></polygon><path d="M81.14,290a.61.61,0,0,1-.86.14.62.62,0,0,1-.14-.87.63.63,0,0,1,.87-.13A.62.62,0,0,1,81.14,290Z" style="fill:#263238"></path><path d="M77.66,294.72a.62.62,0,1,1-1-.73.62.62,0,0,1,.86-.13A.6.6,0,0,1,77.66,294.72Z" style="fill:#263238"></path><polygon points="77.31 294.46 77.02 294.25 80.5 289.49 80.78 289.7 77.31 294.46" style="fill:#263238"></polygon><path d="M80.92,294.21a.62.62,0,1,1,.73-1,.62.62,0,0,1,.13.86A.6.6,0,0,1,80.92,294.21Z" style="fill:#263238"></path><path d="M76.16,290.74a.62.62,0,0,1-.14-.87.63.63,0,0,1,.87-.13.62.62,0,0,1,.13.86A.61.61,0,0,1,76.16,290.74Z" style="fill:#263238"></path><rect x="78.73" y="289.03" width="0.35" height="5.89" transform="translate(-203.42 183.47) rotate(-53.85)" style="fill:#263238"></rect><path d="M431,295.81c-.75-1.54-2.33-2.81-4.42-1.79a5.07,5.07,0,0,0-1.19.8,5.63,5.63,0,0,0,0-.59c-.36-2.29-2.3-2.88-4-2.61s-3.37,1.41-3,3.7a5.15,5.15,0,0,0,.2.82h0c-2.26-.53-3.53,1.06-3.92,2.73s0,3.65,2.31,4.18a5.53,5.53,0,0,0,1.42.12,5.25,5.25,0,0,0-.33.49c-1.16,2,0,3.69,1.46,4.55s3.51,1,4.68-1a5.14,5.14,0,0,0,.53-1.32c.12.16.24.31.37.46,1.58,1.7,3.52,1.09,4.78-.07s2-3.06.42-4.76a5.2,5.2,0,0,0-1.11-.9,4.5,4.5,0,0,0,.55-.22C431.71,299.39,431.7,297.36,431,295.81Z" style="fill:#407BFF"></path><path d="M431,295.81c-.75-1.54-2.33-2.81-4.42-1.79a5.07,5.07,0,0,0-1.19.8,5.63,5.63,0,0,0,0-.59c-.36-2.29-2.3-2.88-4-2.61s-3.37,1.41-3,3.7a5.15,5.15,0,0,0,.2.82h0c-2.26-.53-3.53,1.06-3.92,2.73s0,3.65,2.31,4.18a5.53,5.53,0,0,0,1.42.12,5.25,5.25,0,0,0-.33.49c-1.16,2,0,3.69,1.46,4.55s3.51,1,4.68-1a5.14,5.14,0,0,0,.53-1.32c.12.16.24.31.37.46,1.58,1.7,3.52,1.09,4.78-.07s2-3.06.42-4.76a5.2,5.2,0,0,0-1.11-.9,4.5,4.5,0,0,0,.55-.22C431.71,299.39,431.7,297.36,431,295.81Z" style="fill:#fff;opacity:0.5"></path><path d="M425,299.67a1.62,1.62,0,1,1-1.85-1.35A1.63,1.63,0,0,1,425,299.67Z" style="fill:#263238"></path><path d="M423.52,296.91a.61.61,0,0,1-.51.71.62.62,0,1,1-.19-1.22A.61.61,0,0,1,423.52,296.91Z" style="fill:#263238"></path><path d="M424.43,302.74a.62.62,0,0,1-.52.7.61.61,0,0,1-.7-.51.62.62,0,1,1,1.22-.19Z" style="fill:#263238"></path><polygon points="423.65 302.86 422.74 297.04 423.09 296.98 423.99 302.81 423.65 302.86" style="fill:#263238"></polygon><path d="M426.37,300.08a.61.61,0,0,1-.7-.52.6.6,0,0,1,.51-.7.61.61,0,0,1,.71.51A.62.62,0,0,1,426.37,300.08Z" style="fill:#263238"></path><path d="M420.55,301a.62.62,0,1,1,.52-.71A.63.63,0,0,1,420.55,301Z" style="fill:#263238"></path><polygon points="420.48 300.55 420.43 300.2 426.25 299.29 426.31 299.64 420.48 300.55" style="fill:#263238"></polygon><path d="M425.6,297.91a.62.62,0,0,1-.86.13.61.61,0,0,1-.14-.86.62.62,0,1,1,1,.73Z" style="fill:#263238"></path><path d="M422.13,302.66a.62.62,0,0,1-.87.14.63.63,0,0,1-.13-.87.62.62,0,0,1,.86-.13A.61.61,0,0,1,422.13,302.66Z" style="fill:#263238"></path><rect x="420.42" y="299.75" width="5.89" height="0.35" transform="translate(-68.61 464.7) rotate(-53.83)" style="fill:#263238"></rect><path d="M425.38,302.16a.62.62,0,0,1,.73-1,.6.6,0,0,1,.13.86A.61.61,0,0,1,425.38,302.16Z" style="fill:#263238"></path><path d="M420.62,298.68a.62.62,0,0,1-.13-.86.61.61,0,0,1,.86-.14.62.62,0,0,1,.14.87A.63.63,0,0,1,420.62,298.68Z" style="fill:#263238"></path><rect x="423.19" y="296.97" width="0.35" height="5.89" transform="translate(-68.54 464.92) rotate(-53.86)" style="fill:#263238"></rect><path d="M303.66,142.11c-.75-1.54-2.33-2.81-4.42-1.79a5.07,5.07,0,0,0-1.19.8,5.63,5.63,0,0,0-.05-.59c-.36-2.3-2.3-2.88-4-2.62s-3.37,1.42-3,3.71a5.15,5.15,0,0,0,.2.82h0c-2.26-.53-3.53,1.06-3.92,2.73s.05,3.65,2.31,4.18a5.53,5.53,0,0,0,1.42.12,5.25,5.25,0,0,0-.33.49c-1.16,2,0,3.69,1.46,4.55s3.51,1,4.68-1a5.14,5.14,0,0,0,.53-1.32,5.54,5.54,0,0,0,.37.45c1.58,1.71,3.52,1.1,4.78-.06s2-3.06.42-4.76a5.2,5.2,0,0,0-1.11-.9c.19-.07.38-.14.55-.22C304.42,145.69,304.41,143.66,303.66,142.11Z" style="fill:#407BFF"></path><path d="M303.66,142.11c-.75-1.54-2.33-2.81-4.42-1.79a5.07,5.07,0,0,0-1.19.8,5.63,5.63,0,0,0-.05-.59c-.36-2.3-2.3-2.88-4-2.62s-3.37,1.42-3,3.71a5.15,5.15,0,0,0,.2.82h0c-2.26-.53-3.53,1.06-3.92,2.73s.05,3.65,2.31,4.18a5.53,5.53,0,0,0,1.42.12,5.25,5.25,0,0,0-.33.49c-1.16,2,0,3.69,1.46,4.55s3.51,1,4.68-1a5.14,5.14,0,0,0,.53-1.32,5.54,5.54,0,0,0,.37.45c1.58,1.71,3.52,1.1,4.78-.06s2-3.06.42-4.76a5.2,5.2,0,0,0-1.11-.9c.19-.07.38-.14.55-.22C304.42,145.69,304.41,143.66,303.66,142.11Z" style="fill:#fff;opacity:0.5"></path><path d="M297.68,146a1.62,1.62,0,1,1-1.85-1.35A1.63,1.63,0,0,1,297.68,146Z" style="fill:#263238"></path><path d="M296.23,143.21a.62.62,0,0,1-.51.71.62.62,0,1,1-.19-1.22A.61.61,0,0,1,296.23,143.21Z" style="fill:#263238"></path><path d="M297.14,149a.62.62,0,0,1-.52.7.62.62,0,0,1-.19-1.22A.62.62,0,0,1,297.14,149Z" style="fill:#263238"></path><polygon points="296.35 149.16 295.45 143.34 295.8 143.28 296.7 149.1 296.35 149.16" style="fill:#263238"></polygon><path d="M299.08,146.38a.61.61,0,0,1-.7-.52.6.6,0,0,1,.51-.7.61.61,0,0,1,.71.51A.62.62,0,0,1,299.08,146.38Z" style="fill:#263238"></path><path d="M293.26,147.28a.61.61,0,0,1-.71-.51.62.62,0,0,1,1.23-.19A.61.61,0,0,1,293.26,147.28Z" style="fill:#263238"></path><polygon points="293.19 146.85 293.14 146.5 298.96 145.59 299.01 145.94 293.19 146.85" style="fill:#263238"></polygon><path d="M298.31,144.21a.62.62,0,0,1-.86.13.61.61,0,0,1-.14-.86.62.62,0,1,1,1,.73Z" style="fill:#263238"></path><path d="M294.84,149a.62.62,0,0,1-.87.14.63.63,0,0,1-.13-.87.62.62,0,0,1,.86-.13A.61.61,0,0,1,294.84,149Z" style="fill:#263238"></path><polygon points="294.48 148.7 294.19 148.5 297.67 143.74 297.95 143.94 294.48 148.7" style="fill:#263238"></polygon><path d="M298.09,148.46a.62.62,0,0,1-.14-.87.63.63,0,0,1,.87-.13.6.6,0,0,1,.13.86A.61.61,0,0,1,298.09,148.46Z" style="fill:#263238"></path><path d="M293.33,145a.62.62,0,0,1-.13-.86.61.61,0,0,1,.86-.14.62.62,0,0,1,.14.87A.63.63,0,0,1,293.33,145Z" style="fill:#263238"></path><polygon points="298.35 148.1 293.59 144.62 293.8 144.34 298.56 147.82 298.35 148.1" style="fill:#263238"></polygon><path d="M445.76,238.25c.37-3.76-1.16-8-6.26-8.47a12,12,0,0,0-3.15.14,9.65,9.65,0,0,0,.58-1.16c2-4.73-1-8.07-4.51-9.52s-8-1.21-9.93,3.51a11.41,11.41,0,0,0-.56,1.77l0,0c-3.65-3.6-7.86-2.07-10.51.62s-4.11,6.92-.47,10.52a12.35,12.35,0,0,0,2.54,1.87,10.6,10.6,0,0,0-1.18.54c-4.5,2.44-4.28,6.91-2.48,10.23s5.42,6,9.92,3.52a11.83,11.83,0,0,0,2.54-1.88,8.91,8.91,0,0,0,.17,1.29c1,5,5.36,6.11,9.06,5.36s7.28-3.44,6.27-8.46a11.89,11.89,0,0,0-1.06-3,11.76,11.76,0,0,0,1.28.21C443.08,245.84,445.39,242,445.76,238.25Z" style="fill:#407BFF"></path><path d="M430.07,238.62a3.57,3.57,0,1,1-1.93-4.67A3.57,3.57,0,0,1,430.07,238.62Z" style="fill:#263238"></path><path d="M430.52,231.78a1.37,1.37,0,0,1-2.52-1.05,1.37,1.37,0,1,1,2.52,1.05Z" style="fill:#263238"></path><path d="M425.54,243.78a1.37,1.37,0,0,1-2.52-1.05,1.36,1.36,0,0,1,1.78-.74A1.38,1.38,0,0,1,425.54,243.78Z" style="fill:#263238"></path><rect x="420.27" y="237.08" width="12.99" height="0.35" transform="translate(43.88 540.27) rotate(-67.43)" style="fill:#263238"></rect><path d="M432.24,241a1.37,1.37,0,0,1,1.05-2.52,1.37,1.37,0,1,1-1.05,2.52Z" style="fill:#263238"></path><path d="M420.25,236a1.36,1.36,0,1,1,1.78-.74A1.36,1.36,0,0,1,420.25,236Z" style="fill:#263238"></path><polygon points="432.7 239.91 420.7 234.92 420.84 234.6 432.83 239.58 432.7 239.91" style="fill:#263238"></polygon><path d="M433.29,236a1.37,1.37,0,1,1,.74-1.79A1.38,1.38,0,0,1,433.29,236Z" style="fill:#263238"></path><path d="M421.29,241a1.37,1.37,0,1,1,.74-1.78A1.37,1.37,0,0,1,421.29,241Z" style="fill:#263238"></path><polygon points="420.83 239.89 420.7 239.57 432.71 234.61 432.84 234.94 420.83 239.89" style="fill:#263238"></polygon><path d="M428,243.78a1.36,1.36,0,1,1,2.52-1,1.36,1.36,0,0,1-2.52,1Z" style="fill:#263238"></path><path d="M423,231.77a1.36,1.36,0,1,1,1.78.74A1.35,1.35,0,0,1,423,231.77Z" style="fill:#263238"></path><rect x="426.59" y="230.76" width="0.35" height="12.99" transform="translate(-58.24 180.78) rotate(-22.43)" style="fill:#263238"></rect><path d="M276.91,116.19c-1.9-3.93-6-7.16-11.27-4.58a14.2,14.2,0,0,0-3,2,12.3,12.3,0,0,0-.13-1.5c-.91-5.84-5.86-7.32-10.17-6.65s-8.58,3.59-7.67,9.43a12.13,12.13,0,0,0,.51,2.08l0,0c-5.76-1.34-9,2.7-10,7s.12,9.3,5.88,10.64a14,14,0,0,0,3.63.32,13.53,13.53,0,0,0-.84,1.24c-3,5.12-.06,9.39,3.72,11.58s8.93,2.61,11.9-2.5a13.82,13.82,0,0,0,1.36-3.38,10.88,10.88,0,0,0,1,1.16c4,4.34,9,2.8,12.16-.17s5.1-7.77,1.08-12.11a13.9,13.9,0,0,0-2.83-2.29,14.39,14.39,0,0,0,1.39-.56C278.84,125.29,278.81,120.12,276.91,116.19Z" style="fill:#407BFF"></path><path d="M261.67,126a4.12,4.12,0,1,1-4.71-3.44A4.13,4.13,0,0,1,261.67,126Z" style="fill:#263238"></path><path d="M258,119a1.58,1.58,0,1,1-1.8-1.31A1.59,1.59,0,0,1,258,119Z" style="fill:#263238"></path><path d="M260.31,133.82a1.58,1.58,0,1,1-1.8-1.32A1.57,1.57,0,0,1,260.31,133.82Z" style="fill:#263238"></path><polygon points="258.58 134.09 256.27 119.26 256.62 119.2 258.92 134.03 258.58 134.09" style="fill:#263238"></polygon><path d="M265.25,127.05a1.58,1.58,0,1,1,1.32-1.8A1.59,1.59,0,0,1,265.25,127.05Z" style="fill:#263238"></path><path d="M250.43,129.36a1.58,1.58,0,1,1,1.31-1.8A1.58,1.58,0,0,1,250.43,129.36Z" style="fill:#263238"></path><polygon points="250.21 127.97 250.16 127.63 264.98 125.32 265.04 125.67 250.21 127.97" style="fill:#263238"></polygon><path d="M263.29,121.52a1.57,1.57,0,1,1-.34-2.21A1.58,1.58,0,0,1,263.29,121.52Z" style="fill:#263238"></path><path d="M254.44,133.63a1.57,1.57,0,1,1-.34-2.2A1.58,1.58,0,0,1,254.44,133.63Z" style="fill:#263238"></path><rect x="250.09" y="126.47" width="15.01" height="0.35" transform="translate(3.33 259.86) rotate(-53.83)" style="fill:#263238"></rect><path d="M262.72,132.34a1.57,1.57,0,1,1,2.21-.34A1.58,1.58,0,0,1,262.72,132.34Z" style="fill:#263238"></path><path d="M250.61,123.49a1.57,1.57,0,1,1,2.2-.34A1.57,1.57,0,0,1,250.61,123.49Z" style="fill:#263238"></path><polygon points="263.55 131.21 251.43 122.36 251.64 122.08 263.76 130.93 263.55 131.21" style="fill:#263238"></polygon></g><g id="Kitsune"><path d="M175.41,217.29c-21.11-15.08-50.93-16.88-73.7-4.44,14.81,8.26,25.28,22.53,33.66,37.28s15.17,30.45,25.12,44.18S184.31,320,201,322.93c0,0,20.08,44.37,30.24,31.23s-1.93-59-15.46-89.93S175.41,217.29,175.41,217.29Z" style="fill:#407BFF"></path><g style="opacity:0.1"><path d="M175.41,217.29c-21.11-15.08-50.93-16.88-73.7-4.44,14.81,8.26,25.28,22.53,33.66,37.28s15.17,30.45,25.12,44.18S184.31,320,201,322.93c0,0,20.08,44.37,30.24,31.23s-1.93-59-15.46-89.93S175.41,217.29,175.41,217.29Z"></path></g><path d="M101.71,212.85c14.81,8.26,25.28,22.53,33.66,37.28,1.76,3.11,3.46,6.26,5.13,9.43a31.47,31.47,0,0,0,.65-16.78l20.29,16.47a50.08,50.08,0,0,0-13.38-26.48,28.48,28.48,0,0,1,21.6,2.37,73,73,0,0,0-16.29-15.68,30.72,30.72,0,0,1,21.68.23,48.11,48.11,0,0,0-3.69-5.06C150.61,202,123.06,201.18,101.71,212.85Z" style="fill:#407BFF"></path><g style="opacity:0.1"><path d="M175.41,217.29c-21.11-15.08-50.93-16.88-73.7-4.44,14.81,8.26,25.28,22.53,33.66,37.28s15.17,30.45,25.12,44.18S184.31,320,201,322.93c0,0,20.08,44.37,30.24,31.23s-1.93-59-15.46-89.93S175.41,217.29,175.41,217.29Z"></path></g><path d="M263,212.7c-14.35-24.06-43.06-38.73-71-36.28,11.08,14.57,15.26,33.23,17.16,51.43s1.84,36.68,5.74,54.56,12.47,35.68,27.69,45.84c0,0,.67,52.58,16.41,44s23.61-59.16,23.61-95.63S263,212.7,263,212.7Z" style="fill:#407BFF"></path><g style="opacity:0.1"><path d="M263,212.7c-14.35-24.06-43.06-38.73-71-36.28,11.08,14.57,15.26,33.23,17.16,51.43s1.84,36.68,5.74,54.56,12.47,35.68,27.69,45.84c0,0,.67,52.58,16.41,44s23.61-59.16,23.61-95.63S263,212.7,263,212.7Z" style="fill:#fff"></path></g><path d="M192.05,176.42c11.08,14.57,15.26,33.23,17.16,51.43.41,3.84.72,7.69,1,11.55a34,34,0,0,0,7.9-16.32l12.94,25.07a54,54,0,0,0-1.77-32,30.81,30.81,0,0,1,20.34,11.69,79.31,79.31,0,0,0-9.33-22.56,33.15,33.15,0,0,1,21.34,9.62,51.27,51.27,0,0,0-1.46-6.61C245.09,186.88,218.22,174.12,192.05,176.42Z" style="fill:#407BFF"></path><path d="M343.25,224.63q-3.13,5.31-6.28,10.62a70.79,70.79,0,0,0-89.28-67.11c13.47,8.23,20.1,24.66,20.82,40.42s-3.52,31.28-7.28,46.6-7.09,31.22-4.54,46.79c2,12.18,7.51,23.58,9.44,35.78s-.93,26.57-11.53,32.91l3.07,24.81c33.08-10.83,75.08-37.54,88.58-69.62A123.68,123.68,0,0,0,343.25,224.63Z" style="fill:#407BFF"></path><g style="opacity:0.30000000000000004"><path d="M343.25,224.63q-3.13,5.31-6.28,10.62a70.79,70.79,0,0,0-89.28-67.11c13.47,8.23,20.1,24.66,20.82,40.42s-3.52,31.28-7.28,46.6-7.09,31.22-4.54,46.79c2,12.18,7.51,23.58,9.44,35.78s-.93,26.57-11.53,32.91l3.07,24.81c33.08-10.83,75.08-37.54,88.58-69.62A123.68,123.68,0,0,0,343.25,224.63Z" style="fill:#fff"></path></g><path d="M308.73,179.89a71.9,71.9,0,0,0-61-11.75c13.47,8.23,20.1,24.66,20.82,40.42a83.83,83.83,0,0,1-.09,9c.1,1.12.19,2.24.25,3.36a25.59,25.59,0,0,0,10.78-17.29A69.92,69.92,0,0,1,293,228.69c.35,1.17,1,2.62,2.23,2.55,1-.06,1.58-1.11,2-2a57.45,57.45,0,0,0,4-23.8,41.3,41.3,0,0,1,20.88,26.42,41.48,41.48,0,0,0-.66-28.47,88.45,88.45,0,0,1,11,8.37A71.54,71.54,0,0,0,308.73,179.89Z" style="fill:#407BFF"></path><path d="M397.82,317.41c-.09-46.9-3.56-96.45-36.81-129.54a179.7,179.7,0,0,1-8.94,48.5s-12.27,16.83-16.29,38.57-8,56.2-23.83,72.56S254.51,391.15,254.51,392s2,22.69,2,21.83,23.26-4.6,68.06-9.77S397.84,325.8,397.82,317.41Z" style="fill:#407BFF"></path><g style="opacity:0.5"><path d="M397.82,317.41c-.09-46.9-3.56-96.45-36.81-129.54a179.7,179.7,0,0,1-8.94,48.5s-12.27,16.83-16.29,38.57-8,56.2-23.83,72.56S254.51,391.15,254.51,392s2,22.69,2,21.83,23.26-4.6,68.06-9.77S397.84,325.8,397.82,317.41Z" style="fill:#fff"></path></g><path d="M361,187.87a180,180,0,0,1-8.61,47.46,36.18,36.18,0,0,0,7.68-5.23A231.67,231.67,0,0,1,361.41,257,25.75,25.75,0,0,0,372,242c4.1,9.8,4.87,20.62,5.58,31.22q2.86-11.22,5.75-22.43c.12-.47.31-1,.77-1.14s1.05.36,1.39.84l9.28,13C390.7,235,381.52,208.28,361,187.87Z" style="fill:#407BFF"></path><path d="M421.81,356.05a63,63,0,0,0-19.87-45.46,130.21,130.21,0,0,0-14.25-11c-6.9-4.71-19.21-10.58-24.3-8.4-4.2,1.8-2.44,27-2.19,36.27s2.76,18.46,2.05,27.71a40.62,40.62,0,0,1-16.11,29.15c-9.05,6.69-20.48,9.27-31.66,10.57S293,396.38,282,399.07s-21.71,8.29-27.68,17.83l-2.45,16.5c9.07-3.59,19.44-1.83,28.53,1.72s17.42,8.82,26.46,12.48a81.8,81.8,0,0,0,106.77-45.76l-11.51-.25A63,63,0,0,0,421.81,356.05Z" style="fill:#407BFF"></path><g style="opacity:0.7000000000000001"><path d="M421.81,356.05a63,63,0,0,0-19.87-45.46,130.21,130.21,0,0,0-14.25-11c-6.9-4.71-19.21-10.58-24.3-8.4-4.2,1.8-2.44,27-2.19,36.27s2.76,18.46,2.05,27.71a40.62,40.62,0,0,1-16.11,29.15c-9.05,6.69-20.48,9.27-31.66,10.57S293,396.38,282,399.07s-21.71,8.29-27.68,17.83l-2.45,16.5c9.07-3.59,19.44-1.83,28.53,1.72s17.42,8.82,26.46,12.48a81.8,81.8,0,0,0,106.77-45.76l-11.51-.25A63,63,0,0,0,421.81,356.05Z" style="fill:#fff"></path></g><path d="M401.94,310.59a130.21,130.21,0,0,0-14.25-11c-6.9-4.71-19.21-10.58-24.3-8.4-4.2,1.8-2.44,27-2.19,36.27.15,5.6,1.12,11.17,1.72,16.74a60,60,0,0,0,6.75-20.23,91,91,0,0,1,5.16,28.95,39.73,39.73,0,0,0,8.62-23.18c0-1.09.49-2.59,1.56-2.39a1.87,1.87,0,0,1,.9.6,48.4,48.4,0,0,1,12.57,22.13A75.31,75.31,0,0,0,391,320.91a82.52,82.52,0,0,1,19.57,12.92q-5.59-9.34-11.17-18.7L410.19,320A60.84,60.84,0,0,0,401.94,310.59Z" style="fill:#407BFF"></path><g style="opacity:0.1"><path d="M401.94,310.59a130.21,130.21,0,0,0-14.25-11c-6.9-4.71-19.21-10.58-24.3-8.4-4.2,1.8-2.44,27-2.19,36.27.15,5.6,1.12,11.17,1.72,16.74a60,60,0,0,0,6.75-20.23,91,91,0,0,1,5.16,28.95,39.73,39.73,0,0,0,8.62-23.18c0-1.09.49-2.59,1.56-2.39a1.87,1.87,0,0,1,.9.6,48.4,48.4,0,0,1,12.57,22.13A75.31,75.31,0,0,0,391,320.91a82.52,82.52,0,0,1,19.57,12.92q-5.59-9.34-11.17-18.7L410.19,320A60.84,60.84,0,0,0,401.94,310.59Z"></path></g><path d="M257.53,424s2.1-17.72,2.69-29.42-2.8-38-3.78-38c0,0,6.27,12.64,8.23,25.2s-.66,25.9-.66,25.9Z" style="opacity:0.30000000000000004"></path><path d="M217.51,210.36a579.55,579.55,0,0,0,3.05,68.07,290,290,0,0,1-3.05-68.07Z" style="fill:#fff"></path><path d="M269.59,318.43a154.19,154.19,0,0,1,5.55-71.12l1.57-4.53-1.31,4.61a193,193,0,0,0-5.81,71Z" style="fill:#fff"></path><path d="M317.66,352.37a60.7,60.7,0,0,0,19.18-36.12c.24-1.73.47-4.23.58-6,.09,1.72,0,4.27-.1,6-1.24,14-8.39,27.58-19.66,36.06Z" style="fill:#fff"></path><path d="M347.63,393.86a47.26,47.26,0,0,0,20.72-16.15c.66-.9,1.53-2.24,2.14-3.18-.26.59-.53,1.17-.81,1.75a34.55,34.55,0,0,1-22.05,17.58Z" style="fill:#fff"></path><path d="M92.67,245.17s13-9.14,17.78-14.24,13.69-17.17,16-20.37c0,0-1.63-2.5-.18-12.15,1.53-10.19,3.56-10.68,5.6-16.81.68-2.07,2-5.13,2.38-6.32a2.06,2.06,0,0,1,3.19-1.09,19,19,0,0,1,8.09,15.41c.1,5.32.38,10.67.38,10.67l6.91-.29s1.54-11.2,3-19.74c.72-4.32.82-3,1.36-5.12.38-1.48,1.92-1.58,3.33-1,3.79,1.6,12.42,6.54,15.25,22.16s4.74,16,11.1,33.34c4.38,11.93,7.74,23.6,7.74,23.6l8.67,22.51s.78,4.51-2.66,1.79c0,0,5.81,13.87,6.4,14.7S237.3,312.86,246.31,333s13.4,36.62,14.47,53.22-4.19,47.89-8.45,53.58S145,442.55,145,442.55s-.83-6.87,7.94-11.73,29.64-.59,29.64-.59S170.91,417,167.71,403.55s-3.55-17.9-3.55-17.9-29.4,53.11-33.31,54.77-35.21.24-35.21.24,3.43-12.45,15.76-13.75,16.36-15.77,20.16-23.83,6-22.17,6.28-24.54.71-16.12.71-16.12l-1.3-2s-12.45-6.52-15.3-19.08-2.79-34.78-2.79-34.78l-3,6.51s-3.11-7.25,2.36-17.46c4.1-7.64,17-27.83,19.1-37.07h0s-32.9,1.35-37,.52-6.53-1.82-8.78-7.23C90,247.44,92.67,245.17,92.67,245.17Z" style="fill:#407BFF"></path><path d="M92.67,245.17s13-9.14,17.78-14.24,13.69-17.17,16-20.37c0,0-1.63-2.5-.18-12.15,1.53-10.19,3.56-10.68,5.6-16.81.68-2.07,2-5.13,2.38-6.32a2.06,2.06,0,0,1,3.19-1.09,19,19,0,0,1,8.09,15.41c.1,5.32.38,10.67.38,10.67l6.91-.29s1.54-11.2,3-19.74c.72-4.32.82-3,1.36-5.12.38-1.48,1.92-1.58,3.33-1,3.79,1.6,12.42,6.54,15.25,22.16s4.74,16,11.1,33.34c4.38,11.93,7.74,23.6,7.74,23.6l8.67,22.51s.78,4.51-2.66,1.79c0,0,5.81,13.87,6.4,14.7S237.3,312.86,246.31,333s13.4,36.62,14.47,53.22-4.19,47.89-8.45,53.58S145,442.55,145,442.55s-.83-6.87,7.94-11.73,29.64-.59,29.64-.59S170.91,417,167.71,403.55s-3.55-17.9-3.55-17.9-29.4,53.11-33.31,54.77-35.21.24-35.21.24,3.43-12.45,15.76-13.75,16.36-15.77,20.16-23.83,6-22.17,6.28-24.54.71-16.12.71-16.12l-1.3-2s-12.45-6.52-15.3-19.08-2.79-34.78-2.79-34.78l-3,6.51s-3.11-7.25,2.36-17.46c4.1-7.64,17-27.83,19.1-37.07h0s-32.9,1.35-37,.52-6.53-1.82-8.78-7.23C90,247.44,92.67,245.17,92.67,245.17Z" style="fill:#fff;opacity:0.7000000000000001"></path><g style="opacity:0.4"><path d="M163,256.57l-4.08-.79c.77,4.52.14,5.15-.21,5l-7-3.21c-3.91,3.15-10.83,5.39-16.22,6.49-4.38,10.19-13.7,25-17.06,31.27-5.48,10.21-2.37,17.46-2.37,17.46l3-6.51s0,22.21,2.8,34.78a26.27,26.27,0,0,0,5.36,10.7c3.15-7.49,4.93-17.89,5.28-25.35.4-8.48,1.27-17.43,6.27-24.29,5.79-7.94,16.07-11.59,22.07-19.37A25,25,0,0,0,163,256.57Z" style="fill:#fff"></path><g style="opacity:0.30000000000000004"><path d="M162.25,255.06c.23.38.43.78.64,1.17l.73-.14Z" style="fill:#fff"></path></g></g><g style="opacity:0.30000000000000004"><path d="M200.58,348.7a34.73,34.73,0,0,0-27.69,11.07c-6.93,7.6-10.4,16.32-8.72,26.47a55.14,55.14,0,0,1,11.49-21.07c5.43-6,12.68-10.42,20.64-11.73s16.58.78,22.55,6.2C215.83,352.82,208,349.23,200.58,348.7Z"></path></g><path d="M141.91,220.86c-.43,3.2-2.47,11.79-7.08,14.33a69.21,69.21,0,0,1-12.44,5c.14-2.53,2.16-9.69,7-13.79A25.29,25.29,0,0,1,141.91,220.86Z" style="fill:#407BFF"></path><path d="M137.66,258.52a36.37,36.37,0,0,0,7.57-.81,24.55,24.55,0,0,0,7.3-2.88l4.32,2.7-.45-4.87s7.39,3.36,8.48,3,1.35-2.45,1.35-2.45,2.7,3,.72,3.39-7.75-.94-7.75-.94,1,5.72-.36,5-6.85-3.16-6.85-3.16c-3.79,3.11-9.61,5-16.22,6.49A36.91,36.91,0,0,0,137.66,258.52Z" style="opacity:0.30000000000000004"></path><path d="M122.57,245c3.58-3.62,9.14-4.33,13.52-6.94a17.68,17.68,0,0,0,8.4-13.72.15.15,0,0,1,.29,0,19.84,19.84,0,0,1-.95,9.4,13.63,13.63,0,0,1-7.38,7.94c-2.36,1-5,1.1-7.48,1.45s-5.14,1-7,2.69" style="fill:#407BFF"></path><path d="M157.37,199.9A32.25,32.25,0,0,1,170,204.22c.36.21-.47-7.86-2.45-14.83A25,25,0,0,0,160,177.94C159.82,177.63,157.37,199.9,157.37,199.9Z" style="opacity:0.30000000000000004"></path><path d="M153.81,207.16a2.13,2.13,0,0,0-1.92-.08,5.25,5.25,0,0,0-1.61,1.16,21.66,21.66,0,0,0-6.39,12.28l.14.34a81.22,81.22,0,0,0,9.25-9.11,5.74,5.74,0,0,0,1.31-2.26A2.18,2.18,0,0,0,153.81,207.16Z" style="fill:#407BFF"></path><path d="M180.75,428.05s20.24,2,26.61,3.24l-24.83-1.06Z" style="opacity:0.30000000000000004"></path><path d="M156.13,217.5c-.41-.75-1.48-.79-2.31-.57a8.15,8.15,0,0,0-4.36,3.27,17.69,17.69,0,0,0-2.29,5v0c2-2,5.43-3.6,8-5.34a2.76,2.76,0,0,0,.88-1.09A1.55,1.55,0,0,0,156.13,217.5Z" style="fill:#407BFF"></path><path d="M143,208.72c.73.22,1,1.15.93,1.92a7.3,7.3,0,0,1-2,4.45,16.25,16.25,0,0,1-4,3h0c1.36-2.14,2.14-5.45,3.18-8.08a2.38,2.38,0,0,1,.8-1A1.33,1.33,0,0,1,143,208.72Z" style="fill:#407BFF"></path><path d="M138.55,362.42s.81-15,0-18.64c-.53-2.37-.93,1.8-2,6a93.33,93.33,0,0,0-1.69,9.18,23.85,23.85,0,0,0,2.36,1.46Z" style="opacity:0.30000000000000004"></path><path d="M103.91,246.38a4.63,4.63,0,0,0-2-.38,47.89,47.89,0,0,0-8.87.62,2.16,2.16,0,0,0-1.76,1.79h0a2.43,2.43,0,0,0,0,.66c.26,1.78.69,3.7,2.18,4.66a6.29,6.29,0,0,0,4,.59,13.5,13.5,0,0,0,4.8-1,5.35,5.35,0,0,0,3.08-3.64A3.08,3.08,0,0,0,103.91,246.38Z" style="fill:#263238"></path><path d="M126.42,210.56a85.92,85.92,0,0,1,9.82-8.23c4.18-2.76,9.64-2.06,9.64-2.06l-.2-4.51a22.66,22.66,0,0,0-10.77,3.53C130.06,202.61,126.42,210.56,126.42,210.56Z" style="opacity:0.30000000000000004"></path><path d="M124.9,237.62c2.77-2.17,5.75-4,8.36-6.22s4.49-5.11,6.84-7.74c-1.82,7.47-7.84,12.38-15.2,14Z" style="fill:#263238"></path><path d="M131.42,244c-3.55.37-7.39,1.46-9.32,4.45,1.7-1.7,5.51-2.66,7.92-2.61a32.64,32.64,0,0,0,7.13-.16c2.36-.47,4.41-1.14,4.73-3.52C138.67,243.74,135,243.66,131.42,244Z" style="fill:#407BFF"></path><path d="M132.5,216.06c-.93-.9-3.22-.78-4.41,0a3.76,3.76,0,0,0-1.65,3,17.78,17.78,0,0,0,.8,4.63,19.49,19.49,0,0,0,5.09-5.13C132.84,217.74,133.25,216.77,132.5,216.06Z" style="fill:#407BFF"></path><path d="M144,306.64c0,1.06,1.57,9.77,3.11,6.12,1.44-3.16,2.94-6.3,4.46-9.43l.44.71A13.41,13.41,0,0,0,160.5,310l-.55.46a56.75,56.75,0,0,1,1.18-12.19,14.37,14.37,0,0,0,7.41,2.36,13.34,13.34,0,0,1-7.36-1.67l.42-.19a70.6,70.6,0,0,0-.72,12.24l-.56-.11a13.66,13.66,0,0,1-9.09-6.34l.81,0q-2.13,4.31-4.34,8.56a2.46,2.46,0,0,1-.83,1.07c-2.4,1.14-2.87-6-2.86-7.47Z" style="fill:#263238"></path><g style="opacity:0.7000000000000001"><path d="M101,247.87c-2.68-.38-7.15-.55-7.11,1,.17.59,4.63.23,7.14,0,.29,0,.65-.13.69-.41S101.3,247.91,101,247.87Z" style="fill:#fff"></path></g><path d="M170.38,390.85c.5-11.94,7.87-23.18,18.27-28.92l2.45-1.24,2.54-1c.88-.28,1.75-.53,2.62-.78a53,53,0,0,0-4.94,2.22,40.65,40.65,0,0,0-20.94,29.72Z" style="fill:#fff"></path><path d="M130.67,290.24A101.94,101.94,0,0,0,125,328.29c0,.86.09,1.72.13,2.59-.14-.86-.28-1.71-.39-2.57a69.73,69.73,0,0,1,6-38.07Z" style="fill:#fff"></path></g></svg>
