<svg xmlns="http://www.w3.org/2000/svg" viewBox="0 0 500 500"><g id="background-complete"><path d="M238.4,337.8H45.3a5.71,5.71,0,0,1-5.71-5.71V60.66A5.71,5.71,0,0,1,45.3,55H238.4a5.71,5.71,0,0,1,5.71,5.71V332.09A5.71,5.71,0,0,1,238.4,337.8ZM45.3,55.2a5.47,5.47,0,0,0-5.46,5.46V332.09a5.47,5.47,0,0,0,5.46,5.46H238.4a5.47,5.47,0,0,0,5.46-5.46V60.66a5.47,5.47,0,0,0-5.46-5.46Z" style="fill:#ebebeb"></path><path d="M454.7,337.8H261.6a5.71,5.71,0,0,1-5.71-5.71V60.66A5.71,5.71,0,0,1,261.6,55H454.7a5.71,5.71,0,0,1,5.71,5.71V332.09A5.71,5.71,0,0,1,454.7,337.8ZM261.6,55.2a5.47,5.47,0,0,0-5.46,5.46V332.09a5.47,5.47,0,0,0,5.46,5.46H454.7a5.47,5.47,0,0,0,5.46-5.46V60.66a5.47,5.47,0,0,0-5.46-5.46Z" style="fill:#ebebeb"></path><rect x="416.78" y="398.49" width="33.12" height="0.25" style="fill:#ebebeb"></rect><rect x="322.53" y="401.21" width="8.69" height="0.25" style="fill:#ebebeb"></rect><rect x="396.59" y="389.21" width="19.19" height="0.25" style="fill:#ebebeb"></rect><rect x="52.46" y="390.89" width="43.19" height="0.25" style="fill:#ebebeb"></rect><rect x="104.56" y="390.89" width="6.33" height="0.25" style="fill:#ebebeb"></rect><rect x="131.47" y="395.11" width="93.68" height="0.25" style="fill:#ebebeb"></rect><rect y="382.4" width="500" height="0.25" style="fill:#ebebeb"></rect><path d="M395.28,244.46h0c-.06-.82-.15-.77,0-.17-.1-.3-.07.65.06,2.67C395.34,245.76,395.31,245,395.28,244.46Zm-90,75c.7.86,1.54,4.86,2.49,4C307.09,322.58,306.25,318.62,305.28,319.48Zm-234.38,28-.09-1.77A1.5,1.5,0,0,0,70.9,347.51Z" style="fill:#e6e6e6"></path><path d="M435.78,382.26h2.32v0Z" style="fill:#f5f5f5"></path><path d="M300.75,359.88c-1.74,2.73-3.51,5.52-5.41,8.57.12-.32,2.2-5.85,4.35-14C300.08,356.27,300.44,358.07,300.75,359.88Z" style="fill:#fafafa"></path><path d="M303.78,355.09c-.81,4.26-1.47,8.52-1.91,12.78-.29-2.67-.66-5.34-1.12-8C301.76,358.28,302.77,356.7,303.78,355.09Z" style="fill:#fafafa"></path><path d="M423.69,382.29l12.09,0c-4,.05-8.22.16-12.09.18Z" style="fill:#f5f5f5"></path><path d="M451.38,298.53q0-3.31-.15-6.62A56.23,56.23,0,0,1,451.38,298.53Z" style="fill:#f5f5f5"></path><rect x="216.15" y="276.02" width="235.04" height="105.5" rx="19.67" style="fill:#e0e0e0"></rect><rect x="207.82" y="276.8" width="235.04" height="105.5" rx="19.67" style="fill:#f5f5f5"></rect><path d="M233.71,286.75H418.35a13.74,13.74,0,0,1,13.74,13.74v25.62a0,0,0,0,1,0,0H220a0,0,0,0,1,0,0V300.49A13.74,13.74,0,0,1,233.71,286.75Z" style="fill:#e0e0e0"></path><path d="M220,331.44H432.09a0,0,0,0,1,0,0v25.62a13.74,13.74,0,0,1-13.74,13.74H233.71A13.74,13.74,0,0,1,220,357.06V331.44A0,0,0,0,1,220,331.44Z" style="fill:#e0e0e0"></path><rect x="345.69" y="294.37" width="30.06" height="32" style="fill:#e6e6e6"></rect><rect x="337.99" y="294.37" width="7.7" height="32" style="fill:#f5f5f5"></rect><rect x="361.05" y="289.43" width="22.58" height="36.94" style="fill:#e6e6e6"></rect><rect x="354.53" y="289.43" width="6.53" height="36.94" style="fill:#f5f5f5"></rect><rect x="367.7" y="294.37" width="19.04" height="32" style="fill:#ebebeb"></rect><rect x="363.35" y="294.37" width="4.35" height="32" style="fill:#f5f5f5"></rect><rect x="383.29" y="299.78" width="24.97" height="26.59" style="fill:#e6e6e6"></rect><rect x="376.89" y="299.78" width="6.39" height="26.59" style="fill:#f5f5f5"></rect><rect x="396.05" y="295.68" width="18.76" height="30.69" style="fill:#e6e6e6"></rect><rect x="390.63" y="295.68" width="5.42" height="30.69" style="fill:#f5f5f5"></rect><rect x="401.58" y="299.78" width="18.22" height="26.59" style="fill:#e6e6e6"></rect><rect x="397.96" y="299.78" width="3.61" height="26.59" style="fill:#f0f0f0"></rect><rect x="346.88" y="337.58" width="30.06" height="32" style="fill:#e6e6e6"></rect><rect x="339.18" y="337.58" width="7.7" height="32" style="fill:#f5f5f5"></rect><rect x="362.24" y="332.65" width="22.58" height="36.94" style="fill:#e6e6e6"></rect><rect x="355.73" y="332.65" width="6.53" height="36.94" style="fill:#f5f5f5"></rect><rect x="249.12" y="293.86" width="30.06" height="32" style="fill:#e6e6e6"></rect><rect x="241.42" y="293.86" width="7.7" height="32" style="fill:#f5f5f5"></rect><rect x="264.48" y="288.92" width="22.58" height="36.94" style="fill:#e6e6e6"></rect><rect x="257.96" y="288.92" width="6.53" height="36.94" style="fill:#f5f5f5"></rect><rect x="368.9" y="337.58" width="19.04" height="32" style="fill:#ebebeb"></rect><rect x="364.55" y="337.58" width="4.35" height="32" style="fill:#f5f5f5"></rect><rect x="384.48" y="343" width="24.97" height="26.59" style="fill:#e6e6e6"></rect><rect x="378.09" y="343" width="6.39" height="26.59" style="fill:#f5f5f5"></rect><rect x="397.24" y="338.9" width="18.76" height="30.69" style="fill:#e6e6e6"></rect><rect x="391.83" y="338.9" width="5.42" height="30.69" style="fill:#f5f5f5"></rect><rect x="402.77" y="343" width="18.22" height="26.59" style="fill:#ebebeb"></rect><rect x="399.15" y="343" width="3.61" height="26.59" style="fill:#f0f0f0"></rect><path d="M247.13,339.56a3.22,3.22,0,0,0-3.43-1.71,3.41,3.41,0,0,0-2.56,3,2.84,2.84,0,0,0-3.25-.08,3.25,3.25,0,0,0-1.31,3.15,2.4,2.4,0,0,0-3.48.7,2.7,2.7,0,0,0,1.06,3.58,1.72,1.72,0,0,0,.09,3.43,1.86,1.86,0,0,0-1.71,1.64,1.92,1.92,0,0,0,1.29,2,1.57,1.57,0,0,0-.38,2.42,1.41,1.41,0,0,0,2.23-.71.46.46,0,0,0,.73.12.52.52,0,0,0-.14-.77.85.85,0,0,0,1.47-.37c-.29,1.54,1.55,3,2.86,2.26a1.31,1.31,0,0,0,.85,1.74,3,3,0,0,0,2.08-.4,4.64,4.64,0,0,1,2-.69,6.6,6.6,0,0,1,1.82.51,5.47,5.47,0,0,0,5.54-1.46,2.36,2.36,0,0,0,4-.61,1.78,1.78,0,0,0,1.56,1.41,1.74,1.74,0,0,0,1.69-1.21c0,.33,0,.67.05,1a2.1,2.1,0,0,0,2.15-2.81,2.15,2.15,0,0,0,2-1.87,2.21,2.21,0,0,0-1.52-2.35,4.16,4.16,0,0,0,.08-7.89,2,2,0,0,0-1.9.26,1.2,1.2,0,0,0,0,1.79,3.84,3.84,0,0,0-1.63-4.29,3.39,3.39,0,0,0-4.29.92,2.17,2.17,0,0,0,0-2.38,1.88,1.88,0,0,0-2.14-.71,2.14,2.14,0,0,0-2.31-1.76,2.24,2.24,0,0,0-1.75,2.39,1.08,1.08,0,0,0-2-.38C246.37,339.26,247.13,339.56,247.13,339.56Z" style="fill:#ebebeb"></path><path d="M247.51,349.83a2,2,0,0,0-1.47-.35,1.37,1.37,0,0,0-1.07,1,1,1,0,0,0,.72,1.21c.61.15,1.22-.36,1.85-.27a5.24,5.24,0,0,1,.64.2,3.16,3.16,0,0,0,2.53-.9,2.87,2.87,0,0,0,.71-.68.92.92,0,0,0,.07-.93,1.19,1.19,0,0,0-1.22-.39,4.83,4.83,0,0,0-2.5,1c0-.14,0-.29.07-.43Z" style="fill:#fafafa"></path><path d="M260.55,349.06a2.34,2.34,0,0,0-.78-.41.72.72,0,0,0-.59,1.3,2.29,2.29,0,0,0,1.14.39c.42.06.94.08,1.14-.29a.7.7,0,0,0-.19-.82,2,2,0,0,0-.81-.4Z" style="fill:#fafafa"></path><path d="M240,342.28a2.91,2.91,0,0,0-1.67,2c-.06.27,0,.6.18.74a.8.8,0,0,0,.57,0l2.38-.57a3.44,3.44,0,0,0-1.07.57,1.14,1.14,0,0,0-.41,1.09,1.11,1.11,0,0,0,1.1.75,2.43,2.43,0,0,0,1.32-.53,1.7,1.7,0,0,0,.83-1.22c0-.51-.64-1-1-.66a8.85,8.85,0,0,0,2.56-1.16,2.36,2.36,0,0,0,.74-.7,1,1,0,0,0,.08-1c-.82-1.48-1.85.69-2.35.88C242.24,342.88,241.16,341.78,240,342.28Z" style="fill:#fafafa"></path><path d="M236.25,348.61a.75.75,0,0,0,.21.82.5.5,0,0,0,.76-.15,2.62,2.62,0,0,0-1.43.8c-.34.45-.25,1.24.28,1.41a1.29,1.29,0,0,0,1-.22,17.47,17.47,0,0,0,2.46-1.63c-.24.55.33,1.17.93,1.22a2.88,2.88,0,0,0,1.66-.58c.62-.38,1.34-1,1.17-1.67a1.21,1.21,0,0,0-1.54-.71,3.55,3.55,0,0,0-1.5,1.14c.34-.48-.14-1.21-.72-1.29a1.8,1.8,0,0,0-1.5.69c.67-.36.81-1.31-.07-1.42C237.37,347,236.39,348.12,236.25,348.61Z" style="fill:#fafafa"></path><path d="M254.46,346.48a1,1,0,1,0-.48,1.84,1.52,1.52,0,0,0-1,.53.79.79,0,0,0-.22.59.72.72,0,0,0,.72.55,2.24,2.24,0,0,0,.93-.26,1.82,1.82,0,0,0-.92.26.59.59,0,0,0-.13.84.78.78,0,0,0,.76.09,3.79,3.79,0,0,0,1.56-.88,1.51,1.51,0,0,0,1.31.55.9.9,0,0,0,.75-1.07,1,1,0,0,0-.81-.59,2.43,2.43,0,0,0-1,.17,2,2,0,0,0,.83-.92c.12-.4-.15-.94-.57-.91s-.71.68-1.08.91C254.61,347.75,255.47,346.85,254.46,346.48Z" style="fill:#fafafa"></path><path d="M246,344.51a1.92,1.92,0,0,0-.69,1.73,2,2,0,0,0,1,1.77,1.64,1.64,0,0,0,2.1-1.27,2.31,2.31,0,0,0-1.28-2.31A1.27,1.27,0,0,0,246,344.51Z" style="fill:#fafafa"></path><path d="M252,343.74l.22.19a1.08,1.08,0,1,0-1.58,1.46,1.13,1.13,0,0,0,1.58-.12,1.61,1.61,0,0,0,1.88-.35,1.23,1.23,0,0,0-.26-1.79,1,1,0,0,0-1.44.86c-.09-.1-.17-.2-.26-.29Z" style="fill:#fafafa"></path><path d="M258.63,344.82a3.34,3.34,0,0,0-1,1.44,1.18,1.18,0,0,0,.68,1.46c.58.15,1.13-.33,1.46-.82a1.84,1.84,0,0,0,.35-1.52c-.17-.51-.91-.81-1.27-.41Z" style="fill:#fafafa"></path><path d="M249.05,341.33a1,1,0,0,0-1.36-.38,1.18,1.18,0,0,0-.42,1.41,1.49,1.49,0,0,0,1.23.88c.66.08,1.43-.45,1.28-1.09a1.41,1.41,0,0,0,1.25.47,3.37,3.37,0,0,0,1.3-.49c.55-.32,1.14-.8,1.08-1.43a1.13,1.13,0,0,0-1-.94,2,2,0,0,0-1.38.51c-.3.26-.55.58-.87.81a1.12,1.12,0,0,1-1.12.15Z" style="fill:#fafafa"></path><polygon points="257.23 370.58 240.75 370.58 239.14 353.98 258.84 353.98 257.23 370.58" style="fill:#f5f5f5"></polygon><polygon points="260.12 354.83 237.7 354.83 237.3 352.63 260.52 352.63 260.12 354.83" style="fill:#f5f5f5"></polygon><rect x="337.99" y="301.44" width="7.7" height="3.61" transform="translate(683.67 606.5) rotate(180)" style="fill:#fff"></rect><rect x="257.84" y="310.75" width="6.87" height="3.61" transform="translate(522.54 625.11) rotate(180)" style="fill:#fff"></rect><rect x="376.89" y="307.71" width="6.39" height="10.38" transform="translate(760.18 625.8) rotate(180)" style="fill:#fff"></rect><rect x="345.69" y="319.5" width="7.7" height="3.61" transform="translate(699.07 642.6) rotate(180)" style="fill:#fff"></rect><rect x="241.48" y="305.65" width="7.7" height="17.97" transform="translate(490.65 629.28) rotate(180)" style="fill:#fff"></rect><rect x="398.55" y="301.81" width="2.43" height="22.54" transform="translate(799.52 626.16) rotate(180)" style="fill:#fff"></rect><path d="M86.5,323.14l17.34,1.35s-2.92-21.66.72-24.07c4.48-3,6.35.86,6.87,7.61s.09,24.85-4.41,24.35-20.52,1.34-20.52,1.34Z" style="fill:#e6e6e6"></path><path d="M79.51,272.38l-20.08,1.55s3.39-25.08-.83-27.87c-5.18-3.43-7.35,1-8,8.82s-.1,28.77,5.11,28.19,23.76,1.55,23.76,1.55Z" style="fill:#e6e6e6"></path><path d="M77.24,352.57C78,351.09,74,221.35,74,221.35s.85-17.75,13.86-19.1c6.5-.67,10.44,4.35,12.75,9.52a31.76,31.76,0,0,1,2.47,16L94.3,352.57Z" style="fill:#ebebeb"></path><path d="M79.7,351.26,78.35,245.92c-.19-14.14-.16-29.09,7.07-41.24a112.85,112.85,0,0,0-4.56,20.44c-.82,6.44-.49,12.71-.63,19.17-.31,14.74.88,90.49.75,100a23.16,23.16,0,0,1-.94,7.52Z" style="fill:#e0e0e0"></path><path d="M92.89,351.08c1.44-35.09,4-69.27,5.47-104.36.58-14.12,1-29.07-5.91-41.42a114.32,114.32,0,0,1,4,20.57c.64,6.45.13,12.71.09,19.17-.1,14.75-4.58,89.53-4.71,99.08a22.76,22.76,0,0,0,.73,7.55Z" style="fill:#e0e0e0"></path><path d="M82.35,210a.26.26,0,0,1-.22-.13h0l0-.06h0l-.1-.19h0l-4.29-8.19.45-.23,2.2,4.22c1.23,2.34,1.81,3.44,2,4h0l.13.24-.06,0c.09.24,0,.27-.05.31A.2.2,0,0,1,82.35,210Z" style="fill:#fff"></path><path d="M93.34,205.23l-.47-.17a20,20,0,0,0,1-4.5l.5.05A20.42,20.42,0,0,1,93.34,205.23Z" style="fill:#fff"></path><path d="M104,227.24a5.28,5.28,0,0,1-2-.39l.19-.46a4.78,4.78,0,0,0,3.62,0l.2.46A5.19,5.19,0,0,1,104,227.24Z" style="fill:#fff"></path><path d="M73.52,230.57a7.16,7.16,0,0,1-2.74-.54l.19-.46a6.67,6.67,0,0,0,4.14.31l.12.48A7.08,7.08,0,0,1,73.52,230.57Z" style="fill:#fff"></path><path d="M100.75,215.06l-.31-.4a18.64,18.64,0,0,0,2.79-2.61l.38.33A19.09,19.09,0,0,1,100.75,215.06Z" style="fill:#fff"></path><path d="M75.62,214.28a2.05,2.05,0,0,0-2.08-.85l-.1-.48A2.51,2.51,0,0,1,76,214Z" style="fill:#fff"></path><path d="M102.61,264a23,23,0,0,1-5-2.91l.3-.4a22.6,22.6,0,0,0,4.92,2.85Z" style="fill:#fff"></path><path d="M74.71,268.81l-.07-.5a4.75,4.75,0,0,0,2.7-1.38l.36.35A5.3,5.3,0,0,1,74.71,268.81Z" style="fill:#fff"></path><rect x="76.71" y="312.71" width="5.42" height="0.5" transform="translate(-176.43 116) rotate(-38.17)" style="fill:#fff"></rect><path d="M99.08,320.84a3.23,3.23,0,0,0-3-1.07l-.09-.49a3.72,3.72,0,0,1,3.47,1.24Z" style="fill:#fff"></path><path d="M88.27,295.61l-.11-.49a8.19,8.19,0,0,0,2.57-1.07l.27.42A8.51,8.51,0,0,1,88.27,295.61Z" style="fill:#fff"></path><rect x="99.97" y="288.12" width="0.5" height="4.54" transform="translate(-200.03 355.35) rotate(-83.17)" style="fill:#fff"></rect><rect x="82.28" y="281.12" width="1.66" height="0.5" style="fill:#fff"></rect><path d="M94.17,280.93v-.5a2.16,2.16,0,0,0,1.27-.45l.3.4A2.66,2.66,0,0,1,94.17,280.93Z" style="fill:#fff"></path><rect x="81.22" y="303.4" width="0.5" height="0.75" transform="translate(-232.47 284.81) rotate(-71.53)" style="fill:#fff"></rect><rect x="96.86" y="305.65" width="0.5" height="3.17" transform="translate(-224.23 330.95) rotate(-76.68)" style="fill:#fff"></rect><rect x="78.82" y="246.71" width="1.52" height="0.5" transform="translate(-131.67 96.31) rotate(-36.65)" style="fill:#fff"></rect><rect x="100.21" y="242.65" width="0.5" height="2.62" transform="translate(-153.36 315.98) rotate(-83.46)" style="fill:#fff"></rect><rect x="81.8" y="221.66" width="0.5" height="1.06" transform="translate(-153.37 196.16) rotate(-63.42)" style="fill:#fff"></rect><path d="M87.52,214.6a12.26,12.26,0,0,0-.57-3.7l.48-.15A12.89,12.89,0,0,1,88,214.6Z" style="fill:#fff"></path><path d="M94.33,214.56l-.33-.37a6.59,6.59,0,0,0,1.41-1.82l.44.23A7.08,7.08,0,0,1,94.33,214.56Z" style="fill:#fff"></path><path d="M96.77,223a.64.64,0,0,1-.33-.08l.22-.44a.33.33,0,0,0,.38-.12l.43.25A.8.8,0,0,1,96.77,223Z" style="fill:#fff"></path><rect x="90.21" y="232.97" width="0.5" height="2.04" transform="translate(-150.93 165.66) rotate(-53.06)" style="fill:#fff"></rect><path d="M103.65,236.74a12.39,12.39,0,0,1-2.9-.55l.15-.48a11.48,11.48,0,0,0,2.78.53Z" style="fill:#fff"></path><rect x="79.08" y="237.63" width="1.86" height="0.5" transform="translate(-155.25 150.46) rotate(-51.03)" style="fill:#fff"></rect><path d="M86.3,246.41l-.36-.34a1.7,1.7,0,0,0,.34-1.67l.48-.16A2.21,2.21,0,0,1,86.3,246.41Z" style="fill:#fff"></path><rect x="95.5" y="239.4" width="0.5" height="1.19" transform="translate(-128.52 111.67) rotate(-38.47)" style="fill:#fff"></rect><path d="M102.72,255.46a9.55,9.55,0,0,0-2.25-1.69l.24-.44a10.59,10.59,0,0,1,2.37,1.78Z" style="fill:#fff"></path><rect x="73.38" y="257" width="3.53" height="0.5" transform="translate(-82.09 40.22) rotate(-19.64)" style="fill:#fff"></rect><path d="M81.15,262.82l-.13-.48a1.14,1.14,0,0,0,.79-1.14l.49-.05A1.62,1.62,0,0,1,81.15,262.82Z" style="fill:#fff"></path><path d="M97.73,258.94a2.34,2.34,0,0,0-1.48-1.09l.1-.49a2.84,2.84,0,0,1,1.81,1.32Z" style="fill:#fff"></path><path d="M89,270.16l-.09-.49a.34.34,0,0,0,.15-.51l.35-.36a.83.83,0,0,1-.41,1.36Z" style="fill:#fff"></path><rect x="88.56" y="259.26" width="0.5" height="0.75" transform="translate(-77.46 41.34) rotate(-18.41)" style="fill:#fff"></rect><path d="M101.22,270.86a2.58,2.58,0,0,0-1.63-1.2l.11-.49a3.12,3.12,0,0,1,2,1.44Z" style="fill:#fff"></path><path d="M52,252.37a11.57,11.57,0,0,1-3.36-3l.39-.3a11.29,11.29,0,0,0,3.22,2.82Z" style="fill:#fff"></path><rect x="55.18" y="243.12" width="0.5" height="2.61" style="fill:#fff"></rect><path d="M58.7,249.45l-.21-.46a8.22,8.22,0,0,0,3-2.53l.41.3A8.92,8.92,0,0,1,58.7,249.45Z" style="fill:#fff"></path><rect x="57.78" y="256.06" width="0.5" height="0.53" transform="translate(-197.14 193.39) rotate(-63.39)" style="fill:#fff"></rect><rect x="60.42" y="254.99" width="2.14" height="0.5" style="fill:#fff"></rect><path d="M50.12,260.91l-.3-.4a5.58,5.58,0,0,1,2.22-1l.11.49A5.16,5.16,0,0,0,50.12,260.91Z" style="fill:#fff"></path><path d="M52.18,271.2l-.5-.07A1.65,1.65,0,0,1,53,269.77l.08.5A1.13,1.13,0,0,0,52.18,271.2Z" style="fill:#fff"></path><path d="M58,266.91a2.58,2.58,0,0,1-1.29-.83l.38-.32a2,2,0,0,0,1,.66Z" style="fill:#fff"></path><rect x="60.66" y="261.64" width="1.66" height="0.5" style="fill:#fff"></rect><path d="M60.51,272a1.22,1.22,0,0,0-1.39-.32l-.21-.45a1.74,1.74,0,0,1,2,.45Z" style="fill:#fff"></path><path d="M52.87,280.62l-.14-.48a2.4,2.4,0,0,0,1.35-1l.42.27A2.86,2.86,0,0,1,52.87,280.62Z" style="fill:#fff"></path><path d="M61.36,284.83l-.43-.24a3.91,3.91,0,0,0,.41-2.68l.49-.11A4.44,4.44,0,0,1,61.36,284.83Z" style="fill:#fff"></path><polygon points="70.95 284.74 70.35 282.4 70.83 282.27 71.43 284.62 70.95 284.74" style="fill:#fff"></polygon><path d="M69,274.5l-.5,0a6.5,6.5,0,0,0-.37-2.55l.47-.17A7.12,7.12,0,0,1,69,274.5Z" style="fill:#fff"></path><rect x="61.59" y="277.46" width="0.5" height="0.98" transform="translate(-222.66 265.92) rotate(-75.04)" style="fill:#fff"></rect><rect x="73.48" y="277.47" width="1.44" height="0.5" transform="translate(-47.16 17.14) rotate(-10.01)" style="fill:#fff"></rect><path d="M66.42,281.6l-.13-.48.06-.06a.22.22,0,0,0,0-.08l.47-.16a.62.62,0,0,1-.41.78Z" style="fill:#fff"></path><path d="M75.59,291.42a13.33,13.33,0,0,1-1.41-.08l0-.49A13,13,0,0,0,78,290.7l.09.49A13.59,13.59,0,0,1,75.59,291.42Z" style="fill:#fff"></path><path d="M98.82,299.65a1.59,1.59,0,0,1-1.36-.78l.44-.25a1.12,1.12,0,0,0,1,.53l0,.5Z" style="fill:#fff"></path><path d="M74.08,302.88l-.35-.36a6.06,6.06,0,0,1,3.79-1.62l0,.5A5.59,5.59,0,0,0,74.08,302.88Z" style="fill:#fff"></path><rect x="89.26" y="313.66" width="0.5" height="1.52" transform="translate(-211.97 187.99) rotate(-51.36)" style="fill:#fff"></rect><path d="M75.46,332.47l-.39-.31a13.91,13.91,0,0,1,4.42-3.61l.23.45A13.27,13.27,0,0,0,75.46,332.47Z" style="fill:#fff"></path><polygon points="80.11 341.85 79.67 341.6 80.81 339.66 81.24 339.92 80.11 341.85" style="fill:#fff"></polygon><rect x="88.91" y="340.02" width="0.5" height="3.43" transform="translate(-175.99 108.44) rotate(-34.03)" style="fill:#fff"></rect><rect x="91.31" y="328.92" width="0.5" height="2.03" transform="translate(-248.7 291.71) rotate(-68.08)" style="fill:#fff"></rect><path d="M105,333.15a12.73,12.73,0,0,1-2.61-2.24l.38-.33a12,12,0,0,0,2.5,2.15Z" style="fill:#fff"></path><rect x="110.29" y="308.43" width="2.42" height="0.5" transform="translate(-53.62 25.04) rotate(-10.34)" style="fill:#fff"></rect><path d="M108.19,300.66a2.93,2.93,0,0,1,1-2.65l.33.39a2.38,2.38,0,0,0-.82,2.18Z" style="fill:#fff"></path><path d="M103.61,306.25A2.91,2.91,0,0,1,101.7,304l.5-.08a2.38,2.38,0,0,0,1.57,1.85Z" style="fill:#fff"></path><path d="M113.08,324.54a7.3,7.3,0,0,0-2.33-.87l.09-.49a7.45,7.45,0,0,1,2.49.94Z" style="fill:#fff"></path><path d="M100.2,324.87a3.34,3.34,0,0,1,.45-1.77l.43.25a2.83,2.83,0,0,0-.38,1.51Z" style="fill:#fff"></path><path d="M103.82,316.77a4.56,4.56,0,0,1-2-1.46l.39-.32A4.13,4.13,0,0,0,104,316.3Z" style="fill:#fff"></path><path d="M112,319a.8.8,0,0,1-.7-.38l.43-.25a.33.33,0,0,0,.39.11l.23.44A.72.72,0,0,1,112,319Z" style="fill:#fff"></path><rect x="106.74" y="312.74" width="0.5" height="0.48" style="fill:#fff"></rect><rect x="103.9" y="321.16" width="1.91" height="0.5" transform="translate(-50.07 20.91) rotate(-9.21)" style="fill:#fff"></rect><polygon points="110.38 330.96 109.15 329.57 109.52 329.24 110.75 330.63 110.38 330.96" style="fill:#fff"></polygon><rect x="98.18" y="328.52" width="0.24" height="0.5" style="fill:#fff"></rect><path d="M96.92,340.94a6.33,6.33,0,0,0-2.78-.86l0-.5a6.72,6.72,0,0,1,3,.93Z" style="fill:#fff"></path><rect x="100.21" y="277.41" width="0.5" height="2.45" transform="translate(-191.91 231.23) rotate(-60.96)" style="fill:#fff"></rect><rect x="86.64" y="200.58" width="0.5" height="1.67" transform="translate(-43.39 24.93) rotate(-13.1)" style="fill:#fff"></rect><path d="M99.6,208.24l-.49-.13a2.42,2.42,0,0,1,.85-1.3l.31.4A1.88,1.88,0,0,0,99.6,208.24Z" style="fill:#fff"></path><rect x="81.57" y="323.42" width="2.38" height="0.5" style="fill:#fff"></rect><path d="M68.68,347.69h34.74c1.41,0,2.36,2.51,1.82,4.8,0,0-1.2,4.63-1.47,6.26-.61,3.72-1.43,12.52-1.93,18.24-.26,3.05-1.75,5.29-3.5,5.29H73.76c-1.74,0-3.23-2.24-3.5-5.29-.49-5.72-1.31-14.52-1.93-18.24-.27-1.63-1.47-6.26-1.47-6.26C66.33,350.2,67.28,347.69,68.68,347.69Z" style="fill:#f5f5f5"></path><rect x="377.22" y="96.07" width="57.92" height="79.75" style="fill:#e0e0e0"></rect><rect x="374.78" y="96.07" width="57.92" height="79.75" style="fill:#f0f0f0"></rect><polygon points="374.78 103.97 382.69 96.07 374.79 96.07 374.78 103.97" style="fill:#e6e6e6"></polygon><polygon points="424.8 96.07 432.71 103.97 432.71 96.07 424.8 96.07" style="fill:#e6e6e6"></polygon><polygon points="374.78 175.82 382.69 175.82 374.78 167.91 374.78 175.82" style="fill:#e6e6e6"></polygon><polygon points="432.71 167.91 424.8 175.82 432.71 175.82 432.71 167.91" style="fill:#e6e6e6"></polygon><path d="M396,154s-17.11-18.44-11.19-24.17S396,154,396,154Z" style="fill:#fff"></path><path d="M400.15,146.4s-3.75-39,5.18-37.46S400.15,146.4,400.15,146.4Z" style="fill:#fff"></path><path d="M406.24,151s10.44-20.78,19.29-16.2S406.24,151,406.24,151Z" style="fill:#fff"></path></g><g id="background-simple"><path d="M345.21,380.19c34.54-3.32,64.57-24.38,82.07-52.76s23.23-63.38,20.4-97.79-13.82-68.37-27.92-100.87C404.93,94.59,367.7,67.86,330.9,62.31S256.44,72,236.21,100.62c-9.89,14-15.59,33.25-6.93,49.43,7.08,13.22,19.56,24.75,29.49,36.19s19,25,19.14,39.46A33.05,33.05,0,0,1,251,258c-12.08,2.14-24.76-2-37.15-4.49s-26.54-2.65-35,5.69c-9.46,9.33-8.49,26.75.44,37.95C243,377.12,310.63,383.51,345.21,380.19Z" style="fill:#407BFF"></path><g style="opacity:0.9"><path d="M345.21,380.19c34.54-3.32,64.57-24.38,82.07-52.76s23.23-63.38,20.4-97.79-13.82-68.37-27.92-100.87C404.93,94.59,367.7,67.86,330.9,62.31S256.44,72,236.21,100.62c-9.89,14-15.59,33.25-6.93,49.43,7.08,13.22,19.56,24.75,29.49,36.19s19,25,19.14,39.46A33.05,33.05,0,0,1,251,258c-12.08,2.14-24.76-2-37.15-4.49s-26.54-2.65-35,5.69c-9.46,9.33-8.49,26.75.44,37.95C243,377.12,310.63,383.51,345.21,380.19Z" style="fill:#fff"></path></g></g><g id="Table"><rect x="56.11" y="404.37" width="387.78" height="10.97" rx="4.92" style="fill:#263238"></rect><rect x="56.11" y="404.37" width="387.78" height="10.97" rx="4.92" style="fill:#fff;opacity:0.4"></rect></g><g id="Character"><path d="M318.78,242.8l-83.25,39.5L234,283l-.6.2a26.78,26.78,0,0,1-14.81.47,25,25,0,0,1-12.25-7.23,20.6,20.6,0,0,1-5.5-12.1,18.83,18.83,0,0,1,3.48-12.53l-1,1.88,47.26-72.15,13,15.36-34.7,66.11-1,1.89a3.68,3.68,0,0,0,.91-2.53,4.28,4.28,0,0,0-.86-2.57,4.79,4.79,0,0,0-2.44-1.67,6.42,6.42,0,0,0-3.36-.15l-2.17.94,78.65-46.36Z" style="fill:#ff8b7b"></path><path d="M255.47,228.21l23.11,40c39-16.92,49.35-31.22,50.75-46,2.35-24.74-12.21-34.93-36.16-14.34C280.79,218.6,255.47,228.21,255.47,228.21Z" style="fill:#407BFF"></path><path d="M255.47,228.21l23.11,40c39-16.92,49.35-31.22,50.75-46,2.35-24.74-12.21-34.93-36.16-14.34C280.79,218.6,255.47,228.21,255.47,228.21Z" style="isolation:isolate;opacity:0.1"></path><polygon points="263.1 197.42 273.75 190.41 267.04 166.98 250.07 182.05 263.1 197.42" style="fill:#ff8b7b"></polygon><path d="M273.75,190.41l10.12-4.75a2.34,2.34,0,0,0,1.27-2.72l-4.33-16.17a2.35,2.35,0,0,0-2.66-1.7L267,167Z" style="fill:#ff8b7b"></path><g id="freepik--Character--inject-2"><path d="M312,197.72c5.08-.67,22-1.29,27.18-1.72,46.29-.41,56.38.52,60.53.93,15.52,1.47,25.23,15.36,20.87,29.84-18.79,62.39-20.36,105.67-18.26,133.4-34.65,4.47-101.76,6-111.79-1.28C290.49,358.89,270.22,211.49,312,197.72Z" style="fill:#407BFF"></path><path d="M287,363.06c.21-2.07.42-4.15.62-6.26v0a2.26,2.26,0,0,1,2.45-2.07c33.57,3.7,77.55,3.7,111.13,0a2.16,2.16,0,0,1,2.24,1.39q1.28,3,2.56,6a3.38,3.38,0,0,1,.18.62,2.4,2.4,0,0,1-2,2.73c-34.91,4-80.25,4.06-115.17.21A2.35,2.35,0,0,1,287,363.06Z" style="fill:#407BFF"></path><path d="M406.7,368.52,413,404.18H286.93V368.52s81.45-4.44,119.77,0" style="fill:#263238"></path><path d="M406.7,368.52c-.14-1.54-.33-4.58-.57-5.78a96,96,0,0,0-4.46-14.7c-44.06-12.64-27.8-130.16-16.24-152.45a14.75,14.75,0,0,0-8.25-.07c-2.26,3.75-17.24,44.1-17.24,44.1a144.13,144.13,0,0,1-52.95-.13c-.28-22.44,23-43,23-43a25.37,25.37,0,0,0-8,.31c-14.82,11.31-23.86,27.23-26.06,49.31-5,50.37-8.89,70.85-9,122.36Z" style="fill:#263238"></path><path d="M303.83,349.2s8.74,9.7,18.22,11.81c5.55-2.18,19.81-11,19.81-11a194.17,194.17,0,0,0,0-42c-8.71,3.05-28.91,3.38-36.26.36C303.32,319.86,303.83,349.2,303.83,349.2Z" style="isolation:isolate;opacity:0.15"></path><path d="M337.11,293.1a20.26,20.26,0,0,0,27.65,1c17.3-15,44.32-47.47,46.3-49.16,1.33-1.1,2.65-2.21,3.94-3.37l2-1.79,1-.93,1.1-1.07v0c5.84-5.76,4.71-17.91-.53-24.23a15.82,15.82,0,0,0-22.28-2.06l-.59.5-3,2.61c-1.13.9-2.24,1.89-3.4,2.8-2.33,1.86-40.32,45.38-45.66,47.6Z" style="fill:#ff8b7b"></path><path d="M212.39,300.85c.12-.21-.32-.53-1.34-1.21-.49-.32-1.32-.87-1.3-1a5,5,0,0,1,1.6.45c1.16.42,1.67.58,1.79.37s-.32-.54-1.34-1.22c-.49-.33-1.32-.88-1.3-1a5.07,5.07,0,0,1,1.6.46c1.15.42,1.67.59,1.78.37s-.32-.53-1.34-1.22c-.49-.33-1.31-.88-1.29-1a5.14,5.14,0,0,1,1.59.45c1.16.44,1.67.6,1.78.39s-.31-.54-1.33-1.23c-.49-.33-1.31-.89-1.29-1a5.1,5.1,0,0,1,1.59.46c1.15.44,1.66.61,1.78.39s-.32-.54-1.33-1.23c-.49-.33-1.31-.89-1.29-1a5.41,5.41,0,0,1,1.58.47c1.15.44,1.67.61,1.78.4s-.32-.54-1.33-1.24c-.49-.34-1.3-.9-1.28-1a5.1,5.1,0,0,1,1.58.47c1.15.45,1.66.62,1.77.41s-.31-.55-1.32-1.25c-.49-.34-1.31-.9-1.28-1.05a5.32,5.32,0,0,1,1.58.49c1.14.44,1.65.62,1.76.4s-.31-.54-1.32-1.25c-.48-.34-1.3-.91-1.27-1a5,5,0,0,1,1.57.49c1.14.45,1.65.62,1.77.41s-.32-.55-1.32-1.26c-.49-.34-1.3-.91-1.27-1.05a5,5,0,0,1,1.57.49c1.14.45,1.64.63,1.76.42s-.31-.55-1.32-1.27c-.48-.34-1.29-.92-1.27-1.06a5.32,5.32,0,0,1,1.57.5c1.14.46,1.65.64,1.76.42s-.31-.55-1.31-1.26c-.48-.35-1.29-.93-1.27-1.07l-.15-.08c-.11.21.32.55,1.33,1.28.48.34,1.28.91,1.25,1.05a4.85,4.85,0,0,1-1.55-.49c-1.15-.46-1.66-.64-1.78-.43s.32.56,1.33,1.27c.48.35,1.28.92,1.26,1.06a5.25,5.25,0,0,1-1.56-.49c-1.14-.46-1.66-.64-1.77-.42s.31.55,1.33,1.26c.48.34,1.28.91,1.26,1.05a5.06,5.06,0,0,1-1.56-.48c-1.15-.46-1.67-.64-1.78-.42s.32.55,1.33,1.26c.48.34,1.29.9,1.27,1a5.06,5.06,0,0,1-1.57-.47c-1.15-.46-1.67-.63-1.78-.41s.32.55,1.33,1.25c.49.34,1.3.9,1.27,1a5.33,5.33,0,0,1-1.56-.47c-1.16-.45-1.68-.63-1.79-.41s.32.55,1.34,1.25c.48.33,1.3.89,1.27,1a5,5,0,0,1-1.57-.46c-1.15-.45-1.68-.62-1.79-.4s.32.54,1.34,1.24c.49.33,1.3.89,1.28,1a5.71,5.71,0,0,1-1.58-.46c-1.15-.44-1.67-.61-1.79-.4s.32.55,1.35,1.24c.48.33,1.3.88,1.27,1a5.14,5.14,0,0,1-1.57-.45c-1.16-.44-1.68-.61-1.8-.39s.33.54,1.35,1.23c.49.33,1.31.88,1.28,1a5.58,5.58,0,0,1-1.58-.45c-1.16-.43-1.68-.6-1.8-.38s.33.54,1.35,1.22c.49.33,1.31.87,1.29,1a5.18,5.18,0,0,1-1.59-.44c-1.16-.43-1.68-.59-1.8-.38s.33.54,1.36,1.22c.49.33,1.31.87,1.28,1Z" style="fill:#407BFF"></path><path d="M200.36,297.68l6.19-4,3.87,4.06s.12,1.46,4.16,6.5,12,14.89,12,14.89l-2.19,2s-16.5-17-18.53-18.54a9.89,9.89,0,0,0-2.57-1.47,3.63,3.63,0,0,1-1.82-1.52Z" style="fill:#263238"></path><path d="M198.47,293.59c1.58-2.67,2.83-3.27,5.25-5.26s8.1-1.7,8.22-1.69l.08-5.27c-5.5-.21-8.79-1.66-10.55-.35s-2.36.62-3.53,2.35c-3.28-2.08-10.31-3.59-14.25-3.41a17.3,17.3,0,0,0-10.63,4.14,45.32,45.32,0,0,1,14.22,2.51A40,40,0,0,1,198.47,293.59Z" style="fill:#407BFF"></path><g style="opacity:0.4"><path d="M198.47,293.59c1.58-2.67,2.83-3.27,5.25-5.26s8.1-1.7,8.22-1.69l.08-5.27c-5.5-.21-8.79-1.66-10.55-.35s-2.36.62-3.53,2.35c-3.28-2.08-10.31-3.59-14.25-3.41a17.3,17.3,0,0,0-10.63,4.14,45.32,45.32,0,0,1,14.22,2.51A40,40,0,0,1,198.47,293.59Z" style="fill:#fff"></path></g><path d="M201.17,297.34c-2.29-3.12-4.75-6.7-7.12-9.93.38-1.08,1.21-2.26,1.15-3.42a7.55,7.55,0,0,0-3.12-5.29,17.17,17.17,0,0,0-6.08-2.81,33.38,33.38,0,0,0-9.09-.88c8.42-4,20.13-2.23,27.59,3.57l-1.38,1.82a5.48,5.48,0,0,1,1.18,6.25c-.63,1.26-1.49,2.62-1.14,4a5.32,5.32,0,0,0,2.7,3.38A12.11,12.11,0,0,1,201.17,297.34Z" style="fill:#407BFF"></path><path d="M201.17,297.34c-2.29-3.12-4.75-6.7-7.12-9.93.38-1.08,1.21-2.26,1.15-3.42a7.55,7.55,0,0,0-3.12-5.29,17.17,17.17,0,0,0-6.08-2.81,33.38,33.38,0,0,0-9.09-.88c8.42-4,20.13-2.23,27.59,3.57l-1.38,1.82a5.48,5.48,0,0,1,1.18,6.25c-.63,1.26-1.49,2.62-1.14,4a5.32,5.32,0,0,0,2.7,3.38A12.11,12.11,0,0,1,201.17,297.34Z" style="fill:#fff;opacity:0.6000000000000001"></path><path d="M209.86,280.16l.18,7.32,5.54.88s13.82,2.4,23,.89c1.73-.29,4.14-1.88,5.18-2.61a1,1,0,0,0,.4-1h0a1,1,0,0,0-1.49-.72A5.62,5.62,0,0,1,238.9,286c-6.65-1.14-19.55-2.64-21.33-3.2-1.21-.38-2.67-.7-3.22-2.12-.29-.75-1.49-.69-2.28-.64Z" style="fill:#263238"></path><path d="M199.32,286.9a1.69,1.69,0,1,0-.85-2.35A1.76,1.76,0,0,0,199.32,286.9Z" style="fill:#fff"></path><path d="M216.82,314.35l9.3,8.18c3.15,2.72,11.52-4.1,14.24-7.25,0,0,13.12-11.9,13.79-20.29,0,0-.29-15.26-5.54-13.66a64.32,64.32,0,0,0-20.16,7.22C215.81,295.9,204.31,308.29,216.82,314.35Z" style="fill:#ff8b7b"></path><path d="M348.75,265.09c-2.86-1-100.14,16.24-100.14,16.24s-1.46,11.53,4.12,19.62l98.21,0c3,.14,10.34-3.5,11.9-6C370.82,281.94,364.66,270.54,348.75,265.09Z" style="fill:#ff8b7b"></path></g><path d="M405.27,293.48s8-43.66,12.42-56.93-35.81-8.85-35.81-8.85,0,53.57,23.08,67.94" style="isolation:isolate;opacity:0.2"></path><path d="M356.19,244.05l39.3,32.46c29.37-27.58,34-43.66,30.57-57.26-5.82-22.83-27.94-31.39-42.72-5.35C375.71,227.36,356.19,244.05,356.19,244.05Z" style="fill:#407BFF"></path><path d="M343.42,147.1c2.68,13.83,12.77,33.63,19.19,47.6,4.07,8.84-5.13,23.6-13.12,32.29-5.24,5.7-17.28,5.54-21.57-.9-1.86-2.8-2.53-6.42-.32-11,5.53-11.46,2.83-20.53-4-29.84Z" style="fill:#ff8b7b"></path><path d="M335.37,162.76,323.63,185.3a58.07,58.07,0,0,1,5.09,8.14c6.37-3.72,12.49-13.47,10.51-22.27A25.42,25.42,0,0,0,335.37,162.76Z" style="isolation:isolate;opacity:0.2"></path><path d="M335.62,122.48c7.39,22,12.84,34.55,6.45,50-9.6,23.21-40.12,24.13-54,4.73-12.44-17.43-22.44-50.55-4.86-67.61a31.68,31.68,0,0,1,52.37,12.89Z" style="fill:#ff8b7b"></path><path d="M283.66,170.08c2.71,8.67,8.53,25.17,9.9,34.46,14.3-6.72,28.28-12.29,42.58-19,1.26-2.44,11.63-25.93,9.74-26.65-7.15-2.73-15.74-5.59-12.72-13.86.92-2.5-1.44-5.17-2.31-7.69-1.54,10.21-22.82,21.63-32.8,24.25l-11.42,5.2Z" style="fill:#263238"></path><path d="M308.52,164.69c3.54-.33,2.91,16.22-1.8,18.72l-5.93,2.77a5.82,5.82,0,0,1-7-1.55c-1.38-1.74-2.4-4.15-3.88-7.07-2.33-4.61-3.19-7.07,2.38-9.67C302.12,163.63,303.87,165,308.52,164.69Z" style="fill:#ff8b7b"></path><path d="M313.82,119.6c-.26,3,1.87,12.37,3.21,15a42.52,42.52,0,0,1,9.18,4.57c4.19,2.8,7.23,7.34,11.85,9.34-.15,0,.89.1.74.1.35-5.63-.05-17.59-.27-23.22A71.8,71.8,0,0,0,313.82,119.6Z" style="fill:#fff"></path><path d="M290.25,147.14c-1.07,6.1-3.75,10-6.42,15.58,3.89,2.37,9.33-.66,9.33-.66Z" style="fill:#ff5652"></path><path d="M298.16,171.73c.55,2.18-.36,4.8-1.76,5.16s-3-1.14-3.54-3.29.17-4.22,1.57-4.57A3.21,3.21,0,0,1,298.16,171.73Z" style="fill:#263238"></path><path d="M306.64,131.48a1.1,1.1,0,0,0-1.28-.27c-4.89,2.14-10.57-1.36-10.62-1.4a1.12,1.12,0,0,0-1.17,1.92c.27.19,6.84,4.07,12.74,1.51a1.12,1.12,0,0,0,.6-1.47h0Z" style="fill:#263238"></path><path d="M273.61,142.81a1.08,1.08,0,0,0-.07,1.1,1.12,1.12,0,0,0,1.48.55h0a11.25,11.25,0,0,0,6.35-8.12,1.13,1.13,0,1,0-2.25-.3h0a8.87,8.87,0,0,1-5.09,6.37A1.43,1.43,0,0,0,273.61,142.81Z" style="fill:#263238"></path><path d="M298.6,145.68h.08a.79.79,0,0,0,.53-.32h0a1.54,1.54,0,0,1,.17-.19,6.72,6.72,0,0,1,2.2-1.57A6.89,6.89,0,0,1,305,143a.82.82,0,0,0,.76-.38,1,1,0,0,0,.14-.42.85.85,0,0,0-.81-.89,8.59,8.59,0,0,0-5,1.17,6.32,6.32,0,0,1,.36-.74,6.84,6.84,0,0,1,2.21-2.3.89.89,0,0,0,.36-.78,1,1,0,0,0-.14-.41.87.87,0,0,0-1.19-.22,8.53,8.53,0,0,0-3.81,6.35c0,.15,0,.31,0,.47A.8.8,0,0,0,298.6,145.68Z" style="fill:#263238"></path><path d="M286,150.73h0s0,0,0,0l0,0a.8.8,0,0,1-.61.12h0l-.26,0a6.75,6.75,0,0,0-2.68.31,6.91,6.91,0,0,0-2.88,1.84.84.84,0,0,1-.82.23,1,1,0,0,1-.38-.21.85.85,0,0,1,0-1.21,8.61,8.61,0,0,1,4.52-2.51,4.73,4.73,0,0,0-.77-.3,6.79,6.79,0,0,0-3.17-.23.88.88,0,0,1-.79-.33,1,1,0,0,1-.18-.41.87.87,0,0,1,.74-.95,8.52,8.52,0,0,1,7.08,2.14l.35.32A.81.81,0,0,1,286,150.73Z" style="fill:#263238"></path><path d="M275.77,122.05a4.13,4.13,0,0,1,1.5-3.81,3.83,3.83,0,0,1,4.18-.25c6.55,4.18,15,5.5,22.22,2.62-1-1.07-2.5-3.22-3.51-4.28,3.88-.71,8.26.59,12.1,1.52,1.48,3.89,3.1,8,6.39,10.51s7.44,3,11.46,3.52c3.63.44,6.44,1.31,10.06,1.75,3.14-5.06,6-10.48,6.76-16.38s-.91-12.43-5.54-16.17S330,97,323.94,97.12a366.52,366.52,0,0,0-36.57,2.48c-7.42.87-15.26,2.17-20.91,7.06C265.18,113.22,269.91,118.85,275.77,122.05Z" style="fill:#263238"></path><path d="M353,139.28a22.16,22.16,0,0,1-6.7,15.5c-5.6,5.36-12,1.24-13.53-6-1.36-6.45-.05-17,7-19.68S353,132.14,353,139.28Z" style="fill:#ff8b7b"></path><path d="M262,195.48a3.77,3.77,0,1,0-4,3.5A3.79,3.79,0,0,0,262,195.48Z" style="fill:#407BFF"></path><path d="M262,195.48a3.77,3.77,0,1,0-4,3.5A3.79,3.79,0,0,0,262,195.48Z" style="fill:#fff;opacity:0.7000000000000001"></path><path d="M260.73,210.7a2.41,2.41,0,1,0-2.57,2.23A2.41,2.41,0,0,0,260.73,210.7Z" style="fill:#407BFF"></path><path d="M260.73,210.7a2.41,2.41,0,1,0-2.57,2.23A2.41,2.41,0,0,0,260.73,210.7Z" style="fill:#fff;opacity:0.7000000000000001"></path><path d="M272.48,171.6a1.88,1.88,0,1,0-2,1.74A1.87,1.87,0,0,0,272.48,171.6Z" style="fill:#407BFF"></path><path d="M272.48,171.6a1.88,1.88,0,1,0-2,1.74A1.87,1.87,0,0,0,272.48,171.6Z" style="fill:#fff;opacity:0.7000000000000001"></path><path d="M250.87,189a1.19,1.19,0,1,0-2.38-.16,1.19,1.19,0,0,0,2.38.16Z" style="fill:#407BFF"></path><path d="M250.87,189a1.19,1.19,0,1,0-2.38-.16,1.19,1.19,0,0,0,2.38.16Z" style="fill:#fff;opacity:0.7000000000000001"></path><path d="M280.18,181.45a1,1,0,1,0-1.07.93A1,1,0,0,0,280.18,181.45Z" style="fill:#407BFF"></path><path d="M280.18,181.45a1,1,0,1,0-1.07.93A1,1,0,0,0,280.18,181.45Z" style="fill:#fff;opacity:0.7000000000000001"></path><path d="M270,187.36a1.19,1.19,0,1,0-2.38-.17,1.19,1.19,0,0,0,2.38.17Z" style="fill:#407BFF"></path><path d="M270,187.36a1.19,1.19,0,1,0-2.38-.17,1.19,1.19,0,0,0,2.38.17Z" style="fill:#fff;opacity:0.7000000000000001"></path><path d="M282.28,198a1.88,1.88,0,1,0-2,1.75A1.9,1.9,0,0,0,282.28,198Z" style="fill:#407BFF"></path><path d="M282.28,198a1.88,1.88,0,1,0-2,1.75A1.9,1.9,0,0,0,282.28,198Z" style="fill:#fff;opacity:0.7000000000000001"></path></g><g id="Lines"><path d="M80.77,252.59c0,.8-.26,1.45-.58,1.45s-.58-.65-.58-1.45.26-1.44.58-1.44S80.77,251.79,80.77,252.59Z" style="fill:#407BFF"></path><path d="M80.77,262.62c0,.8-.26,1.45-.58,1.45s-.58-.65-.58-1.45.26-1.44.58-1.44S80.77,261.82,80.77,262.62Z" style="fill:#407BFF"></path><ellipse cx="76.64" cy="254.06" rx="0.58" ry="1.45" transform="translate(-157.2 128.61) rotate(-45)" style="fill:#407BFF"></ellipse><path d="M84.14,260.75c.57.56.84,1.2.62,1.43s-.87-.05-1.43-.62-.84-1.2-.62-1.43S83.58,260.18,84.14,260.75Z" style="fill:#407BFF"></path><path d="M75.17,257c.8,0,1.45.26,1.45.58s-.65.57-1.45.57-1.44-.25-1.44-.57S74.37,257,75.17,257Z" style="fill:#407BFF"></path><ellipse cx="85.2" cy="257.61" rx="1.45" ry="0.58" style="fill:#407BFF"></ellipse><path d="M76.24,260.75c.56-.57,1.2-.84,1.43-.62s0,.87-.62,1.43-1.21.84-1.43.62S75.67,261.31,76.24,260.75Z" style="fill:#407BFF"></path><path d="M83.33,253.65c.56-.56,1.2-.84,1.43-.61s-.05.86-.62,1.43-1.2.84-1.43.62S82.76,254.22,83.33,253.65Z" style="fill:#407BFF"></path><ellipse cx="147.73" cy="177.96" rx="0.58" ry="1.45" style="fill:#407BFF"></ellipse><path d="M148.31,188c0,.8-.26,1.44-.58,1.44s-.57-.64-.57-1.44.26-1.45.57-1.45S148.31,187.19,148.31,188Z" style="fill:#407BFF"></path><path d="M144.6,179c.56.56.84,1.2.61,1.43s-.86,0-1.43-.62-.84-1.2-.62-1.43S144,178.45,144.6,179Z" style="fill:#407BFF"></path><path d="M151.69,186.11c.56.57.84,1.21.61,1.43s-.86,0-1.43-.61-.84-1.21-.61-1.44S151.12,185.54,151.69,186.11Z" style="fill:#407BFF"></path><path d="M142.72,182.39c.8,0,1.45.26,1.45.58s-.65.58-1.45.58-1.45-.26-1.45-.58S141.92,182.39,142.72,182.39Z" style="fill:#407BFF"></path><ellipse cx="152.75" cy="182.97" rx="1.45" ry="0.58" style="fill:#407BFF"></ellipse><path d="M143.78,186.11c.57-.57,1.21-.84,1.43-.62s-.05.87-.61,1.44-1.21.84-1.44.61S143.21,186.68,143.78,186.11Z" style="fill:#407BFF"></path><path d="M150.87,179c.57-.57,1.21-.84,1.43-.62s-.05.87-.61,1.43-1.21.84-1.43.62S150.31,179.58,150.87,179Z" style="fill:#407BFF"></path><ellipse cx="237.3" cy="129.12" rx="0.58" ry="1.45" style="fill:#407BFF"></ellipse><path d="M237.88,139.15c0,.8-.26,1.45-.58,1.45s-.58-.65-.58-1.45.26-1.44.58-1.44S237.88,138.35,237.88,139.15Z" style="fill:#407BFF"></path><path d="M234.16,130.19c.57.56.84,1.2.62,1.43s-.87-.05-1.43-.62-.85-1.2-.62-1.43S233.6,129.62,234.16,130.19Z" style="fill:#407BFF"></path><ellipse cx="240.85" cy="137.69" rx="0.58" ry="1.45" transform="translate(-26.82 210.63) rotate(-45)" style="fill:#407BFF"></ellipse><path d="M232.28,133.56c.8,0,1.45.26,1.45.58s-.65.58-1.45.58-1.44-.26-1.44-.58S231.49,133.56,232.28,133.56Z" style="fill:#407BFF"></path><path d="M242.31,133.56c.8,0,1.45.26,1.45.58s-.65.58-1.45.58-1.44-.26-1.44-.58S241.51,133.56,242.31,133.56Z" style="fill:#407BFF"></path><path d="M233.35,137.28c.56-.57,1.2-.84,1.43-.62s-.05.87-.62,1.43-1.2.84-1.43.62S232.78,137.84,233.35,137.28Z" style="fill:#407BFF"></path><path d="M240.44,130.19c.56-.57,1.2-.85,1.43-.62s-.05.87-.62,1.43-1.2.84-1.43.62S239.87,130.75,240.44,130.19Z" style="fill:#407BFF"></path><path d="M213.46,151.88c0,.55-.27,1-.6,1s-.59-.45-.59-1,.27-1,.59-1S213.46,151.33,213.46,151.88Z" style="fill:#407BFF"></path><path d="M213.46,158.81c0,.55-.27,1-.6,1s-.59-.44-.59-1,.27-1,.59-1S213.46,158.25,213.46,158.81Z" style="fill:#407BFF"></path><path d="M210.16,153.1c.48.28.74.73.57,1s-.68.29-1.16,0-.73-.73-.57-1S209.69,152.82,210.16,153.1Z" style="fill:#407BFF"></path><path d="M216.16,156.56c.48.28.73.73.57,1s-.69.29-1.16,0-.74-.73-.57-1S215.68,156.29,216.16,156.56Z" style="fill:#407BFF"></path><path d="M209.57,156.56c.48-.27,1-.27,1.16,0s-.09.73-.57,1-1,.27-1.16,0S209.09,156.84,209.57,156.56Z" style="fill:#407BFF"></path><path d="M215.57,153.1c.47-.28,1-.27,1.16,0s-.09.74-.57,1-1,.27-1.16,0S215.09,153.38,215.57,153.1Z" style="fill:#407BFF"></path><path d="M181.58,228.33c0,.55-.27,1-.6,1s-.59-.45-.59-1,.27-1,.59-1S181.58,227.78,181.58,228.33Z" style="fill:#407BFF"></path><path d="M181.58,235.25c0,.55-.27,1-.6,1s-.59-.45-.59-1,.27-1,.59-1S181.58,234.7,181.58,235.25Z" style="fill:#407BFF"></path><path d="M178.28,229.55c.48.27.73.73.57,1s-.68.29-1.16,0-.73-.73-.57-1S177.8,229.27,178.28,229.55Z" style="fill:#407BFF"></path><path d="M184.28,233c.48.27.73.73.57,1s-.69.29-1.17,0-.73-.73-.56-1S183.8,232.73,184.28,233Z" style="fill:#407BFF"></path><path d="M177.69,233c.48-.28,1-.27,1.16,0s-.09.74-.57,1-1,.27-1.16,0S177.21,233.28,177.69,233Z" style="fill:#407BFF"></path><path d="M183.68,229.55c.48-.28,1-.27,1.17,0s-.09.74-.57,1-1,.27-1.16,0S183.21,229.82,183.68,229.55Z" style="fill:#407BFF"></path><path d="M180.67,151.37c-.3.31-1,.76-1.23.58s.27-.93.57-1.23.7-.4.88-.22S181,151.07,180.67,151.37Z" style="fill:#407BFF"></path><path d="M176.82,155.22c.31-.3.76-1.05.58-1.23s-.93.27-1.23.58-.41.7-.23.88S176.52,155.53,176.82,155.22Z" style="fill:#407BFF"></path><path d="M176.82,150.72c.31.3.76,1.05.58,1.23s-.93-.27-1.23-.58-.41-.69-.23-.87S176.52,150.42,176.82,150.72Z" style="fill:#407BFF"></path><path d="M180.67,154.57c-.3-.31-1-.76-1.23-.58s.27.93.57,1.23.7.41.88.23S181,154.87,180.67,154.57Z" style="fill:#407BFF"></path><path d="M265.4,148.89c-.3.3-1,.75-1.23.57s.27-.92.58-1.23.69-.4.87-.22S265.71,148.58,265.4,148.89Z" style="fill:#407BFF"></path><path d="M261.55,152.74c.31-.31.76-1.05.58-1.23s-.93.27-1.23.57-.41.7-.23.88S261.25,153,261.55,152.74Z" style="fill:#407BFF"></path><path d="M261.55,148.23c.31.31.76,1.05.58,1.23s-.93-.27-1.23-.57-.41-.7-.23-.88S261.25,147.93,261.55,148.23Z" style="fill:#407BFF"></path><path d="M265.4,152.08c-.3-.3-1-.75-1.23-.57s.27.92.58,1.23.69.4.87.22S265.71,152.39,265.4,152.08Z" style="fill:#407BFF"></path><path d="M164.17,205c0,.43-.2,1.28-.46,1.28s-.46-.85-.46-1.28.21-.78.46-.78S164.17,204.59,164.17,205Z" style="fill:#407BFF"></path><path d="M164.17,210.47c0-.44-.2-1.28-.46-1.28s-.46.84-.46,1.28.21.77.46.77S164.17,210.9,164.17,210.47Z" style="fill:#407BFF"></path><path d="M161,207.28c.43,0,1.28.21,1.28.46s-.85.47-1.28.47-.78-.21-.78-.47S160.56,207.28,161,207.28Z" style="fill:#407BFF"></path><path d="M166.43,207.28c-.43,0-1.27.21-1.27.46s.84.47,1.27.47.78-.21.78-.47S166.86,207.28,166.43,207.28Z" style="fill:#407BFF"></path><path d="M100.17,233.46c0,.43-.21,1.27-.46,1.27s-.47-.84-.47-1.27.21-.78.47-.78S100.17,233,100.17,233.46Z" style="fill:#407BFF"></path><path d="M100.17,238.9c0-.43-.21-1.28-.46-1.28s-.47.85-.47,1.28.21.78.47.78S100.17,239.33,100.17,238.9Z" style="fill:#407BFF"></path><path d="M97,235.72c.43,0,1.27.2,1.27.46s-.84.46-1.27.46-.78-.21-.78-.46S96.55,235.72,97,235.72Z" style="fill:#407BFF"></path><path d="M102.43,235.72c-.43,0-1.28.2-1.28.46s.85.46,1.28.46.78-.21.78-.46S102.86,235.72,102.43,235.72Z" style="fill:#407BFF"></path><path d="M114.46,204.15c-.3.3-1,.76-1.23.57s.27-.92.58-1.22.69-.41.87-.23S114.76,203.85,114.46,204.15Z" style="fill:#407BFF"></path><path d="M110.61,208c.31-.31.76-1.05.58-1.23s-.93.27-1.23.57-.41.7-.23.88S110.31,208.3,110.61,208Z" style="fill:#407BFF"></path><path d="M110.61,203.5c.31.3.76,1,.58,1.22s-.93-.27-1.23-.57-.41-.7-.23-.88S110.31,203.19,110.61,203.5Z" style="fill:#407BFF"></path><path d="M114.46,207.34c-.3-.3-1-.75-1.23-.57s.27.92.58,1.23.69.4.87.22S114.76,207.65,114.46,207.34Z" style="fill:#407BFF"></path><g style="opacity:0.4"><path d="M80.77,252.59c0,.8-.26,1.45-.58,1.45s-.58-.65-.58-1.45.26-1.44.58-1.44S80.77,251.79,80.77,252.59Z" style="fill:#fff"></path><path d="M80.77,262.62c0,.8-.26,1.45-.58,1.45s-.58-.65-.58-1.45.26-1.44.58-1.44S80.77,261.82,80.77,262.62Z" style="fill:#fff"></path><ellipse cx="76.64" cy="254.06" rx="0.58" ry="1.45" transform="translate(-157.2 128.61) rotate(-45)" style="fill:#fff"></ellipse><path d="M84.14,260.75c.57.56.84,1.2.62,1.43s-.87-.05-1.43-.62-.84-1.2-.62-1.43S83.58,260.18,84.14,260.75Z" style="fill:#fff"></path><path d="M75.17,257c.8,0,1.45.26,1.45.58s-.65.57-1.45.57-1.44-.25-1.44-.57S74.37,257,75.17,257Z" style="fill:#fff"></path><ellipse cx="85.2" cy="257.61" rx="1.45" ry="0.58" style="fill:#fff"></ellipse><path d="M76.24,260.75c.56-.57,1.2-.84,1.43-.62s0,.87-.62,1.43-1.21.84-1.43.62S75.67,261.31,76.24,260.75Z" style="fill:#fff"></path><path d="M83.33,253.65c.56-.56,1.2-.84,1.43-.61s-.05.86-.62,1.43-1.2.84-1.43.62S82.76,254.22,83.33,253.65Z" style="fill:#fff"></path><ellipse cx="147.73" cy="177.96" rx="0.58" ry="1.45" style="fill:#fff"></ellipse><path d="M148.31,188c0,.8-.26,1.44-.58,1.44s-.57-.64-.57-1.44.26-1.45.57-1.45S148.31,187.19,148.31,188Z" style="fill:#fff"></path><path d="M144.6,179c.56.56.84,1.2.61,1.43s-.86,0-1.43-.62-.84-1.2-.62-1.43S144,178.45,144.6,179Z" style="fill:#fff"></path><path d="M151.69,186.11c.56.57.84,1.21.61,1.43s-.86,0-1.43-.61-.84-1.21-.61-1.44S151.12,185.54,151.69,186.11Z" style="fill:#fff"></path><path d="M142.72,182.39c.8,0,1.45.26,1.45.58s-.65.58-1.45.58-1.45-.26-1.45-.58S141.92,182.39,142.72,182.39Z" style="fill:#fff"></path><ellipse cx="152.75" cy="182.97" rx="1.45" ry="0.58" style="fill:#fff"></ellipse><path d="M143.78,186.11c.57-.57,1.21-.84,1.43-.62s-.05.87-.61,1.44-1.21.84-1.44.61S143.21,186.68,143.78,186.11Z" style="fill:#fff"></path><path d="M150.87,179c.57-.57,1.21-.84,1.43-.62s-.05.87-.61,1.43-1.21.84-1.43.62S150.31,179.58,150.87,179Z" style="fill:#fff"></path><ellipse cx="237.3" cy="129.12" rx="0.58" ry="1.45" style="fill:#fff"></ellipse><path d="M237.88,139.15c0,.8-.26,1.45-.58,1.45s-.58-.65-.58-1.45.26-1.44.58-1.44S237.88,138.35,237.88,139.15Z" style="fill:#fff"></path><path d="M234.16,130.19c.57.56.84,1.2.62,1.43s-.87-.05-1.43-.62-.85-1.2-.62-1.43S233.6,129.62,234.16,130.19Z" style="fill:#fff"></path><ellipse cx="240.85" cy="137.69" rx="0.58" ry="1.45" transform="translate(-26.82 210.63) rotate(-45)" style="fill:#fff"></ellipse><path d="M232.28,133.56c.8,0,1.45.26,1.45.58s-.65.58-1.45.58-1.44-.26-1.44-.58S231.49,133.56,232.28,133.56Z" style="fill:#fff"></path><path d="M242.31,133.56c.8,0,1.45.26,1.45.58s-.65.58-1.45.58-1.44-.26-1.44-.58S241.51,133.56,242.31,133.56Z" style="fill:#fff"></path><path d="M233.35,137.28c.56-.57,1.2-.84,1.43-.62s-.05.87-.62,1.43-1.2.84-1.43.62S232.78,137.84,233.35,137.28Z" style="fill:#fff"></path><path d="M240.44,130.19c.56-.57,1.2-.85,1.43-.62s-.05.87-.62,1.43-1.2.84-1.43.62S239.87,130.75,240.44,130.19Z" style="fill:#fff"></path><path d="M213.46,151.88c0,.55-.27,1-.6,1s-.59-.45-.59-1,.27-1,.59-1S213.46,151.33,213.46,151.88Z" style="fill:#fff"></path><path d="M213.46,158.81c0,.55-.27,1-.6,1s-.59-.44-.59-1,.27-1,.59-1S213.46,158.25,213.46,158.81Z" style="fill:#fff"></path><path d="M210.16,153.1c.48.28.74.73.57,1s-.68.29-1.16,0-.73-.73-.57-1S209.69,152.82,210.16,153.1Z" style="fill:#fff"></path><path d="M216.16,156.56c.48.28.73.73.57,1s-.69.29-1.16,0-.74-.73-.57-1S215.68,156.29,216.16,156.56Z" style="fill:#fff"></path><path d="M209.57,156.56c.48-.27,1-.27,1.16,0s-.09.73-.57,1-1,.27-1.16,0S209.09,156.84,209.57,156.56Z" style="fill:#fff"></path><path d="M215.57,153.1c.47-.28,1-.27,1.16,0s-.09.74-.57,1-1,.27-1.16,0S215.09,153.38,215.57,153.1Z" style="fill:#fff"></path><path d="M181.58,228.33c0,.55-.27,1-.6,1s-.59-.45-.59-1,.27-1,.59-1S181.58,227.78,181.58,228.33Z" style="fill:#fff"></path><path d="M181.58,235.25c0,.55-.27,1-.6,1s-.59-.45-.59-1,.27-1,.59-1S181.58,234.7,181.58,235.25Z" style="fill:#fff"></path><path d="M178.28,229.55c.48.27.73.73.57,1s-.68.29-1.16,0-.73-.73-.57-1S177.8,229.27,178.28,229.55Z" style="fill:#fff"></path><path d="M184.28,233c.48.27.73.73.57,1s-.69.29-1.17,0-.73-.73-.56-1S183.8,232.73,184.28,233Z" style="fill:#fff"></path><path d="M177.69,233c.48-.28,1-.27,1.16,0s-.09.74-.57,1-1,.27-1.16,0S177.21,233.28,177.69,233Z" style="fill:#fff"></path><path d="M183.68,229.55c.48-.28,1-.27,1.17,0s-.09.74-.57,1-1,.27-1.16,0S183.21,229.82,183.68,229.55Z" style="fill:#fff"></path><path d="M180.67,151.37c-.3.31-1,.76-1.23.58s.27-.93.57-1.23.7-.4.88-.22S181,151.07,180.67,151.37Z" style="fill:#fff"></path><path d="M176.82,155.22c.31-.3.76-1.05.58-1.23s-.93.27-1.23.58-.41.7-.23.88S176.52,155.53,176.82,155.22Z" style="fill:#fff"></path><path d="M176.82,150.72c.31.3.76,1.05.58,1.23s-.93-.27-1.23-.58-.41-.69-.23-.87S176.52,150.42,176.82,150.72Z" style="fill:#fff"></path><path d="M180.67,154.57c-.3-.31-1-.76-1.23-.58s.27.93.57,1.23.7.41.88.23S181,154.87,180.67,154.57Z" style="fill:#fff"></path><path d="M265.4,148.89c-.3.3-1,.75-1.23.57s.27-.92.58-1.23.69-.4.87-.22S265.71,148.58,265.4,148.89Z" style="fill:#fff"></path><path d="M261.55,152.74c.31-.31.76-1.05.58-1.23s-.93.27-1.23.57-.41.7-.23.88S261.25,153,261.55,152.74Z" style="fill:#fff"></path><path d="M261.55,148.23c.31.31.76,1.05.58,1.23s-.93-.27-1.23-.57-.41-.7-.23-.88S261.25,147.93,261.55,148.23Z" style="fill:#fff"></path><path d="M265.4,152.08c-.3-.3-1-.75-1.23-.57s.27.92.58,1.23.69.4.87.22S265.71,152.39,265.4,152.08Z" style="fill:#fff"></path><path d="M164.17,205c0,.43-.2,1.28-.46,1.28s-.46-.85-.46-1.28.21-.78.46-.78S164.17,204.59,164.17,205Z" style="fill:#fff"></path><path d="M164.17,210.47c0-.44-.2-1.28-.46-1.28s-.46.84-.46,1.28.21.77.46.77S164.17,210.9,164.17,210.47Z" style="fill:#fff"></path><path d="M161,207.28c.43,0,1.28.21,1.28.46s-.85.47-1.28.47-.78-.21-.78-.47S160.56,207.28,161,207.28Z" style="fill:#fff"></path><path d="M166.43,207.28c-.43,0-1.27.21-1.27.46s.84.47,1.27.47.78-.21.78-.47S166.86,207.28,166.43,207.28Z" style="fill:#fff"></path><path d="M100.17,233.46c0,.43-.21,1.27-.46,1.27s-.47-.84-.47-1.27.21-.78.47-.78S100.17,233,100.17,233.46Z" style="fill:#fff"></path><path d="M100.17,238.9c0-.43-.21-1.28-.46-1.28s-.47.85-.47,1.28.21.78.47.78S100.17,239.33,100.17,238.9Z" style="fill:#fff"></path><path d="M97,235.72c.43,0,1.27.2,1.27.46s-.84.46-1.27.46-.78-.21-.78-.46S96.55,235.72,97,235.72Z" style="fill:#fff"></path><path d="M102.43,235.72c-.43,0-1.28.2-1.28.46s.85.46,1.28.46.78-.21.78-.46S102.86,235.72,102.43,235.72Z" style="fill:#fff"></path><path d="M114.46,204.15c-.3.3-1,.76-1.23.57s.27-.92.58-1.22.69-.41.87-.23S114.76,203.85,114.46,204.15Z" style="fill:#fff"></path><path d="M110.61,208c.31-.31.76-1.05.58-1.23s-.93.27-1.23.57-.41.7-.23.88S110.31,208.3,110.61,208Z" style="fill:#fff"></path><path d="M110.61,203.5c.31.3.76,1,.58,1.22s-.93-.27-1.23-.57-.41-.7-.23-.88S110.31,203.19,110.61,203.5Z" style="fill:#fff"></path><path d="M114.46,207.34c-.3-.3-1-.75-1.23-.57s.27.92.58,1.23.69.4.87.22S114.76,207.65,114.46,207.34Z" style="fill:#fff"></path></g></g><g id="Plant"><path d="M115.59,314.27l41,.66c-8.84,14.2,1,62.15.8,74.09-.27,16.62-10.31,15-22.73,14.83s-22.5,1.07-22.24-15.55C112.59,376.35,124,328.74,115.59,314.27Z" style="fill:#407BFF"></path><path d="M115.39,388.35c.17-10.5,4.79-20.08,11.76-24.42l1.42-.88v-1.67c0-12-3.09-32.87-9.06-47.05l33.12.54c-6.42,14-10.18,34.72-10.56,46.73l-.06,1.66,1.39.93c6.83,4.56,11.13,14.29,11,24.78-.08,4.76-1,7.92-2.8,9.65-2.68,2.58-8,2.45-14.11,2.29-1.82,0-3.72-.07-5.54-.09-6.13-.05-11.43-.08-14-2.74C116.13,396.29,115.32,393.1,115.39,388.35Z" style="fill:#fff;opacity:0.4"></path><path d="M127.15,363.93l1.42-.88v-1.67a122.16,122.16,0,0,0-1.1-14.95c1.59,1.33,4.34,3,7.42,2.06,3.59-1.06,6.65,1.78,8,3.34-.46,3.61-.74,6.93-.83,9.77l-.06,1.66,1.39.93c6.83,4.56,11.13,14.29,11,24.78-.08,4.76-1,7.92-2.8,9.65-2.68,2.58-8,2.45-14.11,2.29-1.82,0-3.72-.07-5.54-.09-6.13-.05-11.43-.08-14-2.74-1.75-1.79-2.56-5-2.49-9.73C115.56,377.85,120.18,368.27,127.15,363.93Z" style="fill:#407BFF"></path><path d="M126.83,316.06a11.53,11.53,0,0,0-10.5-7.47s2.41.26,7.28,4.53C125.17,314.48,124.78,316.41,126.83,316.06Z" style="fill:#407BFF"></path><path d="M135.41,372.94a1,1,0,0,0,.69-1.15c-1.23-6.7-1.8-7.55-3.62-20.39-.71-5-4.91-40.8-6.77-45.46a4.09,4.09,0,0,1,.52-3.73,13.85,13.85,0,0,0,2.83-11.42,20.09,20.09,0,0,0-3.8-6.69,17.36,17.36,0,0,1,1.61,13.21c-.49,1.74-2.69,3.92-2.33,6.56-2.11-4.92-5.62-9.59-7.43-14.64-1.72-4.81-5.39-16.8-6.7-21.81-.43-1.63-1.46-1.47-1.89-1.14s-.31,1.13,0,2.12c1.59,4.94,6,18.52,8.08,23.29,1.85,4.3,8.86,12.76,10.11,25,.52,5.13,6.66,51.1,7.38,55.41a1,1,0,0,0,1.32.8Z" style="fill:#407BFF"></path><g style="opacity:0.8"><path d="M95.39,273.5a.92.92,0,0,1,.67,1.35,1.14,1.14,0,0,1,1,1.45.93.93,0,0,1,1,.23c.46.55.28.85.32,1.22A1.07,1.07,0,0,1,99.58,279a.56.56,0,0,1,.75-.24.94.94,0,0,1,.43.71.93.93,0,0,1,1.25.67,1.27,1.27,0,0,1,1.52.48,1,1,0,0,1,1.27.67c0-.15.45-.24.45-.24a1.17,1.17,0,0,1,1.09.75.91.91,0,0,1,1.52,0,.81.81,0,0,1,1.4.13c0-.29.18-.45.47-.49a.62.62,0,0,1,.65.47.74.74,0,0,1,.69-.69c.34,0,.59.7.59.7a1.5,1.5,0,0,1,1-1.13.86.86,0,0,1,1,.48l-.09-.2c-.13-.38.26-.77.75-.85a1.5,1.5,0,0,1,1.19.45s-.19-.69.07-.91a.74.74,0,0,1,1,.16.61.61,0,0,1,.26-.76.45.45,0,0,1,.66.13.82.82,0,0,1,1.07-.93.92.92,0,0,1,1.25-.87,1.17,1.17,0,0,1,.44-1.25s.46-.2.5-.06a1,1,0,0,1,.65-1.29,1.27,1.27,0,0,1,1-1.27.93.93,0,0,1,.63-1.27,1,1,0,0,1-.06-.83.57.57,0,0,1,.75-.25,1.06,1.06,0,0,1,.24-1.74c-.19-.33-.51-.46-.46-1.17a.91.91,0,0,1,.68-.77,1.15,1.15,0,0,1,0-1.76.92.92,0,0,1-.23-1.49.85.85,0,0,1-.66-.76c0-.36-.07-.91.27-1-.45-.18-.73-.3-.6-.77-.33.11-.4-.8-.14-.89a.73.73,0,0,1-.47-1.07c-.66-.14-.75-.93-.67-1.26a.59.59,0,0,1-.81-.21.61.61,0,0,1,.28-.79c-1.13.13-.94-1-.94-1-1-.14-.77-.91-.77-.91s-1.08,0-.86-.62c-.57.22-1.19-.05-1.18-.57-.42.43-.81-.45-.81-.45s-.22.25-.66,0c-.27-.09-.52-.33-.43-.58-.22.26-1-.07-1-.38,0,.28-.58.21-.76.18a.69.69,0,0,1-.52-.55c-.38.4-1.53.26-1.61-.37-1.16.73-2.1,0-2-.15-.46.52-1.87.51-2-.17a1.33,1.33,0,0,1-1.57.43c-.17.41-.84.55-1.32.5h-.06s0,0,0,0c-.36.33-1,.6-1.36.37a1.33,1.33,0,0,1-1.53.56c.27.63-.85,1.46-1.54,1.31.12.09-.2,1.23-1.57,1.31.29.57-.56,1.35-1.09,1.24a.69.69,0,0,1-.12.75c-.12.13-.54.52-.72.3.2.24-.28,1-.61.91.21.15.16.49,0,.72-.22.43-.55.37-.55.37s.2.93-.39.82c.31.43,0,1-.63,1.16.55.4-.34,1-.34,1s.62.5-.08,1.19a.83.83,0,0,1-.18,1.38.57.57,0,1,1,.15,1.12,1.07,1.07,0,0,1,.19,1.42.74.74,0,0,1,.24,1.14c.27-.08.74.7.4.81.39.3.23.56,0,1,.34-.11.61.37.8.67A.84.84,0,0,1,95.39,273.5Z" style="fill:#407BFF"></path></g><g style="opacity:0.7000000000000001"><path d="M95.39,273.5a.92.92,0,0,1,.67,1.35,1.14,1.14,0,0,1,1,1.45.93.93,0,0,1,1,.23c.46.55.28.85.32,1.22A1.07,1.07,0,0,1,99.58,279a.56.56,0,0,1,.75-.24.94.94,0,0,1,.43.71.93.93,0,0,1,1.25.67,1.27,1.27,0,0,1,1.52.48,1,1,0,0,1,1.27.67c0-.15.45-.24.45-.24a1.17,1.17,0,0,1,1.09.75.91.91,0,0,1,1.52,0,.81.81,0,0,1,1.4.13c0-.29.18-.45.47-.49a.62.62,0,0,1,.65.47.74.74,0,0,1,.69-.69c.34,0,.59.7.59.7a1.5,1.5,0,0,1,1-1.13.86.86,0,0,1,1,.48l-.09-.2c-.13-.38.26-.77.75-.85a1.5,1.5,0,0,1,1.19.45s-.19-.69.07-.91a.74.74,0,0,1,1,.16.61.61,0,0,1,.26-.76.45.45,0,0,1,.66.13.82.82,0,0,1,1.07-.93.92.92,0,0,1,1.25-.87,1.17,1.17,0,0,1,.44-1.25s.46-.2.5-.06a1,1,0,0,1,.65-1.29,1.27,1.27,0,0,1,1-1.27.93.93,0,0,1,.63-1.27,1,1,0,0,1-.06-.83.57.57,0,0,1,.75-.25,1.06,1.06,0,0,1,.24-1.74c-.19-.33-.51-.46-.46-1.17a.91.91,0,0,1,.68-.77,1.15,1.15,0,0,1,0-1.76.92.92,0,0,1-.23-1.49.85.85,0,0,1-.66-.76c0-.36-.07-.91.27-1-.45-.18-.73-.3-.6-.77-.33.11-.4-.8-.14-.89a.73.73,0,0,1-.47-1.07c-.66-.14-.75-.93-.67-1.26a.59.59,0,0,1-.81-.21.61.61,0,0,1,.28-.79c-1.13.13-.94-1-.94-1-1-.14-.77-.91-.77-.91s-1.08,0-.86-.62c-.57.22-1.19-.05-1.18-.57-.42.43-.81-.45-.81-.45s-.22.25-.66,0c-.27-.09-.52-.33-.43-.58-.22.26-1-.07-1-.38,0,.28-.58.21-.76.18a.69.69,0,0,1-.52-.55c-.38.4-1.53.26-1.61-.37-1.16.73-2.1,0-2-.15-.46.52-1.87.51-2-.17a1.33,1.33,0,0,1-1.57.43c-.17.41-.84.55-1.32.5h-.06s0,0,0,0c-.36.33-1,.6-1.36.37a1.33,1.33,0,0,1-1.53.56c.27.63-.85,1.46-1.54,1.31.12.09-.2,1.23-1.57,1.31.29.57-.56,1.35-1.09,1.24a.69.69,0,0,1-.12.75c-.12.13-.54.52-.72.3.2.24-.28,1-.61.91.21.15.16.49,0,.72-.22.43-.55.37-.55.37s.2.93-.39.82c.31.43,0,1-.63,1.16.55.4-.34,1-.34,1s.62.5-.08,1.19a.83.83,0,0,1-.18,1.38.57.57,0,1,1,.15,1.12,1.07,1.07,0,0,1,.19,1.42.74.74,0,0,1,.24,1.14c.27-.08.74.7.4.81.39.3.23.56,0,1,.34-.11.61.37.8.67A.84.84,0,0,1,95.39,273.5Z" style="fill:#fff"></path></g><g style="opacity:0.2"><path d="M126.83,316.06a11.53,11.53,0,0,0-10.5-7.47s2.41.26,7.28,4.53C125.17,314.48,124.78,316.41,126.83,316.06Z"></path><path d="M135.41,372.94a1,1,0,0,0,.69-1.15c-1.23-6.7-1.8-7.55-3.62-20.39-.71-5-4.91-40.8-6.77-45.46a4.09,4.09,0,0,1,.52-3.73,13.85,13.85,0,0,0,2.83-11.42,20.09,20.09,0,0,0-3.8-6.69,17.36,17.36,0,0,1,1.61,13.21c-.49,1.74-2.69,3.92-2.33,6.56-2.11-4.92-5.62-9.59-7.43-14.64-1.72-4.81-5.39-16.8-6.7-21.81-.43-1.63-1.46-1.47-1.89-1.14s-.31,1.13,0,2.12c1.59,4.94,6,18.52,8.08,23.29,1.85,4.3,8.86,12.76,10.11,25,.52,5.13,6.66,51.1,7.38,55.41a1,1,0,0,0,1.32.8Z"></path></g><path d="M108.88,266.46a.24.24,0,0,0,.15-.28,51.93,51.93,0,0,0-2-6.68.25.25,0,0,0-.3-.14.24.24,0,0,0-.14.3,51.66,51.66,0,0,1,2,6.63.22.22,0,0,0,.28.17Z" style="fill:#407BFF"></path><path d="M109.25,266.37a.26.26,0,0,0,.17-.22,54.22,54.22,0,0,0-.24-7,.23.23,0,0,0-.25-.21.23.23,0,0,0-.21.26,51.58,51.58,0,0,1,.23,6.92.23.23,0,0,0,.22.24Z" style="fill:#407BFF"></path><path d="M109.74,276.28a.23.23,0,0,0,.16-.21,52.63,52.63,0,0,0-.23-7,.24.24,0,0,0-.26-.21.24.24,0,0,0-.21.26,51.58,51.58,0,0,1,.24,6.92.22.22,0,0,0,.22.24Z" style="fill:#407BFF"></path><path d="M109.64,266.38a.24.24,0,0,0,.15-.16,52.83,52.83,0,0,0,1.59-6.8.24.24,0,0,0-.47-.08,51.85,51.85,0,0,1-1.56,6.74.24.24,0,0,0,.15.3Z" style="fill:#407BFF"></path><path d="M107.55,276.08a.24.24,0,0,0,.15-.16,52.79,52.79,0,0,0,1.58-6.8.24.24,0,0,0-.19-.27.23.23,0,0,0-.27.19,52,52,0,0,1-1.57,6.75.23.23,0,0,0,.16.29Z" style="fill:#407BFF"></path><path d="M110,266.48a.21.21,0,0,0,.13-.09,52.14,52.14,0,0,0,3.29-6.17.24.24,0,0,0-.12-.31.24.24,0,0,0-.31.12,50.39,50.39,0,0,1-3.26,6.11.24.24,0,0,0,.08.32A.21.21,0,0,0,110,266.48Z" style="fill:#407BFF"></path><path d="M105.48,275.31a.21.21,0,0,0,.13-.1,54.24,54.24,0,0,0,3.29-6.16.24.24,0,0,0-.43-.19,52.62,52.62,0,0,1-3.26,6.11.23.23,0,0,0,.27.34Z" style="fill:#407BFF"></path><path d="M110.35,266.69a.16.16,0,0,0,.08-.06,51.23,51.23,0,0,0,4.78-5.1.24.24,0,0,0,0-.33.23.23,0,0,0-.32,0,52.53,52.53,0,0,1-4.73,5.05.24.24,0,0,0,0,.33A.26.26,0,0,0,110.35,266.69Z" style="fill:#407BFF"></path><path d="M103.68,274l.09-.05a52.25,52.25,0,0,0,4.77-5.1.23.23,0,1,0-.36-.3,52.64,52.64,0,0,1-4.73,5.06.23.23,0,0,0,0,.33A.22.22,0,0,0,103.68,274Z" style="fill:#407BFF"></path><path d="M110.61,267l0,0a51,51,0,0,0,5.93-3.69.23.23,0,1,0-.27-.38,52.43,52.43,0,0,1-5.88,3.66.23.23,0,0,0-.09.31A.22.22,0,0,0,110.61,267Z" style="fill:#407BFF"></path><path d="M102.27,272.34h0a52.42,52.42,0,0,0,5.93-3.69.24.24,0,0,0,.06-.33.23.23,0,0,0-.33-.05,53.93,53.93,0,0,1-5.88,3.66.23.23,0,0,0-.09.31A.22.22,0,0,0,102.27,272.34Z" style="fill:#407BFF"></path><path d="M115,266.16c.85-.27,1.69-.57,2.52-.88a.23.23,0,0,0,.13-.3.24.24,0,0,0-.3-.14,51,51,0,0,1-6.62,2,.23.23,0,0,0-.18.28.24.24,0,0,0,.28.17C112.18,267,113.57,266.6,115,266.16Z" style="fill:#407BFF"></path><path d="M105.5,269.2c.85-.28,1.69-.57,2.52-.88a.24.24,0,0,0-.17-.44,51,51,0,0,1-6.62,2,.24.24,0,0,0,.1.46C102.73,270,104.12,269.64,105.5,269.2Z" style="fill:#407BFF"></path><path d="M117.85,267.45a.23.23,0,0,0,.16-.24.24.24,0,0,0-.26-.21,51.58,51.58,0,0,1-6.92.23.23.23,0,0,0-.24.22.24.24,0,0,0,.22.25,52.63,52.63,0,0,0,7-.24Z" style="fill:#407BFF"></path><path d="M107.93,267.94a.22.22,0,0,0,.16-.25.23.23,0,0,0-.25-.21,51.58,51.58,0,0,1-6.92.24.23.23,0,0,0,0,.46,52.48,52.48,0,0,0,7-.23Z" style="fill:#407BFF"></path><path d="M117.66,269.65a.26.26,0,0,0,.16-.19.25.25,0,0,0-.19-.27,51.62,51.62,0,0,1-6.75-1.56.23.23,0,0,0-.29.15.22.22,0,0,0,.16.29,52.83,52.83,0,0,0,6.8,1.59Z" style="fill:#407BFF"></path><path d="M108,267.55a.23.23,0,0,0,.16-.18.24.24,0,0,0-.2-.27,51.88,51.88,0,0,1-6.74-1.57.24.24,0,0,0-.14.45,53.33,53.33,0,0,0,6.81,1.58A.21.21,0,0,0,108,267.55Z" style="fill:#407BFF"></path><path d="M116.91,271.72a.2.2,0,0,0,.14-.13.22.22,0,0,0-.11-.3,51.89,51.89,0,0,1-6.11-3.27.24.24,0,0,0-.32.08.23.23,0,0,0,.07.32,51.37,51.37,0,0,0,6.17,3.29A.18.18,0,0,0,116.91,271.72Z" style="fill:#407BFF"></path><path d="M108.08,267.19a.24.24,0,0,0,.15-.13.23.23,0,0,0-.12-.31,51.82,51.82,0,0,1-6.11-3.26.24.24,0,0,0-.32.07.24.24,0,0,0,.07.33,54.38,54.38,0,0,0,6.17,3.29A.29.29,0,0,0,108.08,267.19Z" style="fill:#407BFF"></path><path d="M115.65,273.53a.18.18,0,0,0,.11-.08.22.22,0,0,0,0-.32,53.85,53.85,0,0,1-5.06-4.73.23.23,0,1,0-.34.31,52.46,52.46,0,0,0,5.11,4.78A.23.23,0,0,0,115.65,273.53Z" style="fill:#407BFF"></path><path d="M108.3,266.86a.19.19,0,0,0,.11-.07.24.24,0,0,0,0-.33,51.49,51.49,0,0,1-5.06-4.73.23.23,0,1,0-.34.32,51.13,51.13,0,0,0,5.1,4.77A.22.22,0,0,0,108.3,266.86Z" style="fill:#407BFF"></path><path d="M114,275l.07,0a.25.25,0,0,0,0-.33,51,51,0,0,1-3.66-5.88.24.24,0,0,0-.32-.09.23.23,0,0,0-.09.31,51,51,0,0,0,3.69,5.93A.23.23,0,0,0,114,275Z" style="fill:#407BFF"></path><path d="M108.59,266.61l.07,0a.24.24,0,0,0,0-.33,52.43,52.43,0,0,1-3.66-5.88.24.24,0,0,0-.32-.09.23.23,0,0,0-.09.31,51,51,0,0,0,3.69,5.93A.23.23,0,0,0,108.59,266.61Z" style="fill:#407BFF"></path><path d="M136.67,362.42a347.52,347.52,0,0,1,2.54-38.82c2.84-24.76,7.55-50.28,18.64-72.81.34-.68-.69-1.31-1-.62-10.82,22-15.59,46.74-18.51,70.92a350,350,0,0,0-2.84,41.31.6.6,0,0,0,1.2,0Z" style="fill:#407BFF"></path><g style="opacity:0.2"><path d="M136.67,362.42a347.52,347.52,0,0,1,2.54-38.82c2.84-24.76,7.55-50.28,18.64-72.81.34-.68-.69-1.31-1-.62-10.82,22-15.59,46.74-18.51,70.92a350,350,0,0,0-2.84,41.31.6.6,0,0,0,1.2,0Z"></path></g><path d="M145.69,283.36s3.43-9.26-1.54-21.84S145.69,283.36,145.69,283.36Z" style="fill:#407BFF"></path><path d="M149.13,271.14s5.72-10.61,11.41-7.52S153.77,265.56,149.13,271.14Z" style="fill:#407BFF"></path><path d="M156.85,248.65a17.49,17.49,0,0,0,4.41.75,24.85,24.85,0,0,1,7.62,1.71,5.7,5.7,0,0,1,2,1,4.61,4.61,0,0,1,1.3,2.79,1.87,1.87,0,0,1-.23,1.51,1.6,1.6,0,0,1-.67.44,4.68,4.68,0,0,1-4.83-.95,7,7,0,0,1,1.14,1.4A2.58,2.58,0,0,1,168,259a2.33,2.33,0,0,1-1.75,1.84,3.35,3.35,0,0,1-2.57-.52,5.94,5.94,0,0,1-1.8-2,3.15,3.15,0,0,1-.67,2.6,2.34,2.34,0,0,1-1.21.41,3.57,3.57,0,0,1-3.08-.83,4.42,4.42,0,0,1-.76-1.4,4.76,4.76,0,0,1-2.5.71,2.83,2.83,0,0,1-2.22-1.19,4.61,4.61,0,0,1-.56-2.17c-.23-2.65,2.79-4.63,4.65-6.53C155.88,249.56,156.65,249.1,156.85,248.65Z" style="fill:#407BFF"></path><path d="M156.85,248.65a17.49,17.49,0,0,0,4.41.75,24.85,24.85,0,0,1,7.62,1.71,5.7,5.7,0,0,1,2,1,4.61,4.61,0,0,1,1.3,2.79,1.87,1.87,0,0,1-.23,1.51,1.6,1.6,0,0,1-.67.44,4.68,4.68,0,0,1-4.83-.95,7,7,0,0,1,1.14,1.4A2.58,2.58,0,0,1,168,259a2.33,2.33,0,0,1-1.75,1.84,3.35,3.35,0,0,1-2.57-.52,5.94,5.94,0,0,1-1.8-2,3.15,3.15,0,0,1-.67,2.6,2.34,2.34,0,0,1-1.21.41,3.57,3.57,0,0,1-3.08-.83,4.42,4.42,0,0,1-.76-1.4,4.76,4.76,0,0,1-2.5.71,2.83,2.83,0,0,1-2.22-1.19,4.61,4.61,0,0,1-.56-2.17c-.23-2.65,2.79-4.63,4.65-6.53C155.88,249.56,156.65,249.1,156.85,248.65Z" style="fill:#fff;opacity:0.5"></path><path d="M169.6,251a6.76,6.76,0,0,0,1.79-.23,2.63,2.63,0,0,0,1.49-.93,2.32,2.32,0,0,0,0-2.54,3.34,3.34,0,0,0-2.22-1.4,5.91,5.91,0,0,0-2.67.19c.64-.55,1.44-1.51,1.31-2.34a2.37,2.37,0,0,0-.59-1.13,3.57,3.57,0,0,0-2.8-1.53,4.44,4.44,0,0,0-1.52.49,4.77,4.77,0,0,0-1.32-2.25,2.83,2.83,0,0,0-2.42-.67,4.61,4.61,0,0,0-1.9,1.18c-2,1.76-1.19,5.28-1.16,7.94a6.15,6.15,0,0,1,.08,1.81Z" style="fill:#407BFF"></path><g style="opacity:0.6000000000000001"><path d="M169.6,251a6.76,6.76,0,0,0,1.79-.23,2.63,2.63,0,0,0,1.49-.93,2.32,2.32,0,0,0,0-2.54,3.34,3.34,0,0,0-2.22-1.4,5.91,5.91,0,0,0-2.67.19c.64-.55,1.44-1.51,1.31-2.34a2.37,2.37,0,0,0-.59-1.13,3.57,3.57,0,0,0-2.8-1.53,4.44,4.44,0,0,0-1.52.49,4.77,4.77,0,0,0-1.32-2.25,2.83,2.83,0,0,0-2.42-.67,4.61,4.61,0,0,0-1.9,1.18c-2,1.76-1.19,5.28-1.16,7.94a6.15,6.15,0,0,1,.08,1.81Z" style="fill:#fff"></path></g><path d="M145.4,241.21a6.26,6.26,0,0,1-1.16-1.25,2.44,2.44,0,0,1-.52-1.57,2.19,2.19,0,0,1,1.54-1.84,3.11,3.11,0,0,1,2.45.33,5.74,5.74,0,0,1,1.82,1.75,2.94,2.94,0,0,1,.47-2.49,2.19,2.19,0,0,1,1.11-.45,3.36,3.36,0,0,1,2.95.58,4.16,4.16,0,0,1,.81,1.28,4.47,4.47,0,0,1,2.31-.83,2.68,2.68,0,0,1,2.17,1,4.34,4.34,0,0,1,.65,2c.39,2.48-2.33,4.53-4,6.44-.3.35-1,.83-1.16,1.26Z" style="fill:#407BFF"></path><g style="opacity:0.5"><path d="M145.4,241.21a6.26,6.26,0,0,1-1.16-1.25,2.44,2.44,0,0,1-.52-1.57,2.19,2.19,0,0,1,1.54-1.84,3.11,3.11,0,0,1,2.45.33,5.74,5.74,0,0,1,1.82,1.75,2.94,2.94,0,0,1,.47-2.49,2.19,2.19,0,0,1,1.11-.45,3.36,3.36,0,0,1,2.95.58,4.16,4.16,0,0,1,.81,1.28,4.47,4.47,0,0,1,2.31-.83,2.68,2.68,0,0,1,2.17,1,4.34,4.34,0,0,1,.65,2c.39,2.48-2.33,4.53-4,6.44-.3.35-1,.83-1.16,1.26Z" style="fill:#fff"></path></g><path d="M145.8,241a6.56,6.56,0,0,0-1.68-.64,2.57,2.57,0,0,0-1.75.11,2.34,2.34,0,0,0-1.2,2.24,3.31,3.31,0,0,0,1.3,2.28,5.87,5.87,0,0,0,2.44,1.09c-.82.18-2,.66-2.26,1.45a2.32,2.32,0,0,0,0,1.28,3.56,3.56,0,0,0,1.74,2.66,4.41,4.41,0,0,0,1.57.29,4.78,4.78,0,0,0,.11,2.6,2.79,2.79,0,0,0,1.82,1.74,4.58,4.58,0,0,0,2.23-.15c2.59-.6,3.54-4.09,4.77-6.45.22-.43.42-1.31.78-1.63Z" style="fill:#407BFF"></path><g style="opacity:0.6000000000000001"><path d="M145.8,241a6.56,6.56,0,0,0-1.68-.64,2.57,2.57,0,0,0-1.75.11,2.34,2.34,0,0,0-1.2,2.24,3.31,3.31,0,0,0,1.3,2.28,5.87,5.87,0,0,0,2.44,1.09c-.82.18-2,.66-2.26,1.45a2.32,2.32,0,0,0,0,1.28,3.56,3.56,0,0,0,1.74,2.66,4.41,4.41,0,0,0,1.57.29,4.78,4.78,0,0,0,.11,2.6,2.79,2.79,0,0,0,1.82,1.74,4.58,4.58,0,0,0,2.23-.15c2.59-.6,3.54-4.09,4.77-6.45.22-.43.42-1.31.78-1.63Z" style="fill:#fff"></path></g><path d="M158.71,243.34c-3.28-1.64-6.85-1.14-8,1.1s.65,5.39,3.93,7,6.85,1.14,8-1.11S162,245,158.71,243.34Z" style="fill:#407BFF"></path><path d="M158.71,243.34c-3.28-1.64-6.85-1.14-8,1.1s.65,5.39,3.93,7,6.85,1.14,8-1.11S162,245,158.71,243.34Z" style="fill:#fff;opacity:0.8"></path><path d="M125.54,216.74a11.16,11.16,0,0,0-4.35,5.23c-1.21,3.39,3.94,9.1,3.94,9.1s4.14,2.63,7.85.46l3.7-2.17s-7.66-11.88-10.89-11.77Z" style="fill:#407BFF"></path><path d="M142.09,215.44c1,5.83-1.77,13.47-6.59,14.27s-9.9-5.53-10.87-11.35,2.91-6.68,7.73-7.49S141.12,209.62,142.09,215.44Z" style="fill:#407BFF"></path><g style="opacity:0.2"><path d="M142.09,215.44c1,5.83-1.77,13.47-6.59,14.27s-9.9-5.53-10.87-11.35,2.91-6.68,7.73-7.49S141.12,209.62,142.09,215.44Z"></path></g><path d="M127.71,214.75s4,2.91,11.48.5C139.19,215.25,127.86,224.79,127.71,214.75Z" style="fill:#407BFF"></path><path d="M130.89,213.35s4.21-1.12,4.44.8c0,0,3.61-.48,3-2.08S130.89,213.35,130.89,213.35Z" style="fill:#407BFF"></path><g style="opacity:0.30000000000000004"><path d="M127.71,214.75s4,2.91,11.48.5C139.19,215.25,127.86,224.79,127.71,214.75Z"></path></g><g style="opacity:0.30000000000000004"><path d="M130.89,213.35s4.21-1.12,4.44.8c0,0,3.61-.48,3-2.08S130.89,213.35,130.89,213.35Z"></path></g><path d="M127.5,232.15a7.86,7.86,0,0,0,7.94,3.16,10.4,10.4,0,0,0,6.82-5.46,18.33,18.33,0,0,0,1.92-9.13c0-.83-.14-2.88-1.17-3.12s-1.39,1.2-1.76,1.87a31.15,31.15,0,0,1-3.65,5.44,26.38,26.38,0,0,1-4.64,4.27C132.48,229.52,127.81,232.61,127.5,232.15Z" style="fill:#407BFF"></path><path d="M147.35,218.94a8.09,8.09,0,0,1-.23,7.39,12.23,12.23,0,0,1-3.35,3.45c-.88.67-2,1.34-3,.77s-1.09-2.19-1-3.45c.19-1.95.42-3.88.71-5.81.23-1.58.23-4.19,1-5.57s1.88-.65,3.16.17A7.61,7.61,0,0,1,147.35,218.94Z" style="fill:#407BFF"></path><g style="opacity:0.2"><path d="M128.46,228.81a5.13,5.13,0,0,1-4.62-3c-.62-1.36-.91-4.89.73-5.46C125.58,223.41,126.46,226.22,128.46,228.81Z"></path></g><g style="opacity:0.2"><path d="M141.12,227.76a5.81,5.81,0,0,0,3.44-4.27c.21-1.07-.62-6.4-1.91-4.05-.42.77-.13,3.12-.3,4.09A19.76,19.76,0,0,1,141.12,227.76Z"></path></g><g style="opacity:0.2"><path d="M134.61,231.56a3.89,3.89,0,0,0,5-.22c-.09,1-3.05,2.13-4,2.5-2.38.95-3.76-.12-6.22-1C129.42,232.82,133.23,233.17,134.61,231.56Z"></path></g><polygon points="133.47 366.66 132.97 259.77 134.71 235.23 136.17 235.39 134.45 259.82 135.03 368.08 133.47 366.66" style="fill:#407BFF"></polygon><polygon points="133.47 366.66 132.97 259.77 134.71 235.23 136.17 235.39 134.45 259.82 135.03 368.08 133.47 366.66" style="opacity:0.2"></polygon><path d="M134.25,259.27l-1.08,1a47.49,47.49,0,0,1-3.95-6A57.91,57.91,0,0,0,121,242.9l1-1.13a59.14,59.14,0,0,1,8.49,11.73A45.84,45.84,0,0,0,134.25,259.27Z" style="fill:#407BFF"></path><path d="M134.23,248.51a8.51,8.51,0,0,0,4.56-4.09,19.08,19.08,0,0,0,1.56-7.2c-2.48,1-5.35-.14-8,.38a6.89,6.89,0,0,0-4.84,4c-1.17,2.66-1.48,5.61-.16,6.7C128.47,249.21,131.66,249.44,134.23,248.51Z" style="fill:#407BFF"></path><path d="M123.92,243.71a9.08,9.08,0,0,1-8,1.67c-2.74-.74-3.88-5-5.15-7.72,2.37-.7,8.52-.77,9.92-.72a4.7,4.7,0,0,1,3.72,1.83,3.25,3.25,0,0,1-.18,4.09C124.19,242.81,123.92,243.71,123.92,243.71Z" style="fill:#407BFF"></path><path d="M112.16,249.25A9.63,9.63,0,0,1,120,245.5a7.91,7.91,0,0,1,5.94,4.16,4.74,4.74,0,0,1-3.92,3.12,13.35,13.35,0,0,1-5.15-.6,13.36,13.36,0,0,0-5.15-.59Z" style="fill:#407BFF"></path><path d="M127.47,346.43c1.59,1.33,4.34,3,7.42,2.06,3.59-1.06,6.65,1.78,8,3.34-.46,3.61,11.63,26.65,11.46,37.14-.08,4.76-1,7.92-2.8,9.65-2.68,2.58-8,2.45-14.11,2.29-1.82,0-3.72-.07-5.54-.09-6.13-.05-11.43-.08-14-2.74-1.75-1.79-2.56-5-2.49-9.73C115.56,377.85,128.19,352,127.47,346.43Z" style="fill:#fff;opacity:0.30000000000000004"></path><path d="M122.41,398.52c7.82.68,15.9,1.61,23.54-.24a6.55,6.55,0,0,0,4.37-4.42,15.52,15.52,0,0,0,.42-6.44A52.12,52.12,0,0,0,148.67,377c-1.66-5.43-2.52-10.85-4.66-16.11-5.95-.08-11.63.37-17.53-.44a69.52,69.52,0,0,0-7.32,25.64C118.81,390.5,118,398.14,122.41,398.52Z" style="fill:#263238"></path><path d="M140.27,356.1a101.67,101.67,0,0,1,4.61-27.61C149.44,314.57,133.35,330.49,140.27,356.1Z" style="fill:#fff;opacity:0.5"></path><path d="M144.85,319.76c-.2.89,1.36,3.19,3.54-.88S145.06,318.88,144.85,319.76Z" style="fill:#fff;opacity:0.5"></path><path d="M115.59,314.27l41,.66c-8.83,14.2,1,62.15.81,74.09-.27,16.62-10.31,15-22.73,14.83s-22.5,1.07-22.24-15.55C112.59,376.35,124,328.74,115.59,314.27Z" style="fill:#fff;opacity:0.4"></path><polygon points="181.05 403.42 183.74 402.68 204.56 398.9 203.73 400.64 184.07 404.12 180.91 404.98 181.05 403.42" style="fill:#407BFF"></polygon><path d="M184.55,403.79l-1.29-.78a48.7,48.7,0,0,1,4.76-5.36,58.09,58.09,0,0,0,8.91-10.92l1.35.66a59,59,0,0,1-9.14,11.23A46.64,46.64,0,0,0,184.55,403.79Z" style="fill:#407BFF"></path><path d="M195,401a8.47,8.47,0,0,0,5.12,3.35,19.12,19.12,0,0,0,7.36-.36c-1.61-2.14-1.25-5.2-2.43-7.6a6.86,6.86,0,0,0-5.12-3.64c-2.88-.44-5.81,0-6.52,1.58C192.78,395.6,193.37,398.74,195,401Z" style="fill:#407BFF"></path><path d="M196.91,389.78a9.07,9.07,0,0,1-3.67-7.26c0-2.84,3.81-5,6.12-7,1.29,2.1,2.95,8,3.27,9.4a4.7,4.7,0,0,1-.81,4.06,3.28,3.28,0,0,1-4,.89C197.85,389.81,196.91,389.78,196.91,389.78Z" style="fill:#407BFF"></path><path d="M188.52,379.85a9.67,9.67,0,0,1,5.66,6.64,7.89,7.89,0,0,1-2.49,6.81,4.72,4.72,0,0,1-4-3,13.38,13.38,0,0,1-.76-5.13,13.38,13.38,0,0,0-.76-5.13Z" style="fill:#407BFF"></path></g><g id="speech-bubble"><path d="M242.57,104.3a3,3,0,1,1-.7,4.19A3,3,0,0,1,242.57,104.3Z" style="fill:#fff"></path><path d="M244.32,110.25a3.5,3.5,0,0,1-2-6.35h0a3.5,3.5,0,1,1,4.06,5.71A3.44,3.44,0,0,1,244.32,110.25Zm-1.46-5.54h0a2.5,2.5,0,1,0,3.49.59A2.51,2.51,0,0,0,242.86,104.71Z" style="fill:#407BFF"></path><path d="M253.1,107.8a1.71,1.71,0,1,1-.4,2.39A1.71,1.71,0,0,1,253.1,107.8Z" style="fill:#fff"></path><path d="M254.1,111.41a2.43,2.43,0,0,1-.38,0,2.22,2.22,0,0,1-.91-4h0a2.2,2.2,0,0,1,1.65-.37,2.17,2.17,0,0,1,1.44.9,2.21,2.21,0,0,1-1.8,3.49Zm-.71-3.2h0a1.22,1.22,0,0,0,1.41,2,1.25,1.25,0,0,0,.49-.79,1.23,1.23,0,0,0-.21-.91,1.25,1.25,0,0,0-.79-.49A1.2,1.2,0,0,0,253.39,108.21Z" style="fill:#407BFF"></path><path d="M157.65,83.82a27.39,27.39,0,0,1,49.82-6.4,21.51,21.51,0,1,1,2.42,42.89l-1.06,0a24.43,24.43,0,0,1-32.06,6.82,24.42,24.42,0,0,1-19.12-43.29Z" style="fill:#fff"></path><path d="M189,130.91a24.92,24.92,0,0,1-12.36-3.28,24.92,24.92,0,0,1-19.46-44.11,27.9,27.9,0,0,1,50.53-6.63,19.73,19.73,0,0,1,2.15-.11,22,22,0,1,1,0,44h-.81A25,25,0,0,1,189,130.91Zm-12.17-4.32.16.09A23.93,23.93,0,0,0,208.43,120l.16-.22.27,0,1,0a21,21,0,1,0,0-42,21.25,21.25,0,0,0-2.36.13l-.32,0-.17-.28A26.89,26.89,0,0,0,158.13,84l0,.15-.12.1A23.92,23.92,0,0,0,172.74,127a25.26,25.26,0,0,0,3.95-.33Z" style="fill:#407BFF"></path><path d="M196.92,110.61c0,6.12-3.35,9-7.5,9s-7.5-3.2-7.5-9.32,7.5-14.17,7.5-14.17S196.92,104.48,196.92,110.61Z" style="fill:#407BFF"></path><path d="M196.92,110.61c0,6.12-3.35,9-7.5,9s-7.5-3.2-7.5-9.32,7.5-14.17,7.5-14.17S196.92,104.48,196.92,110.61Z" style="fill:#fff;opacity:0.4"></path><path d="M196.92,110.6c0,3.65-3.78,8.1-6,10.36a2,2,0,0,1-.7.48v8.71h-1.52v-8.68A2.1,2.1,0,0,1,188,121c-2.19-2.33-6-7-6-10.63,0-5.13,3.35-3.57,7.49-3.57S196.92,105.48,196.92,110.6Z" style="fill:#407BFF"></path><path d="M196.92,110.6c0,3.65-3.78,8.1-6,10.36a2,2,0,0,1-.7.48v8.71h-1.52v-8.68A2.1,2.1,0,0,1,188,121c-2.19-2.33-6-7-6-10.63,0-5.13,3.35-3.57,7.49-3.57S196.92,105.48,196.92,110.6Z" style="fill:#fff;opacity:0.2"></path><path d="M192.05,109.81c1.85,5.84-.49,9.58-4.44,10.83s-8.11-.79-10-6.63,2.87-15.76,2.87-15.76S190.2,104,192.05,109.81Z" style="fill:#407BFF"></path><g style="opacity:0.2"><path d="M192.05,109.81c1.85,5.84-.49,9.58-4.44,10.83s-8.11-.79-10-6.63,2.87-15.76,2.87-15.76S190.2,104,192.05,109.81Z" style="fill:#fff"></path></g><path d="M187.15,109.81c-1.85,5.84.49,9.58,4.44,10.83s8.11-.79,10-6.63-2.87-15.76-2.87-15.76S189,104,187.15,109.81Z" style="fill:#407BFF"></path><path d="M187.15,109.81c-1.85,5.84.49,9.58,4.44,10.83s8.11-.79,10-6.63-2.87-15.76-2.87-15.76S189,104,187.15,109.81Z" style="fill:#fff;opacity:0.30000000000000004"></path><path d="M190.9,78.7a1.48,1.48,0,1,1-1.48-1.48A1.49,1.49,0,0,1,190.9,78.7Z" style="fill:#263238"></path><path d="M185.16,93a1.48,1.48,0,1,1-1.48-1.48A1.48,1.48,0,0,1,185.16,93Z" style="fill:#263238"></path><path d="M196.24,93a1.49,1.49,0,1,1-1.49-1.48A1.49,1.49,0,0,1,196.24,93Z" style="fill:#263238"></path><path d="M181.49,84.15A1.49,1.49,0,1,1,180,82.67,1.49,1.49,0,0,1,181.49,84.15Z" style="fill:#263238"></path><path d="M200.61,84.15a1.49,1.49,0,1,1-1.48-1.48A1.49,1.49,0,0,1,200.61,84.15Z" style="fill:#263238"></path></g></svg>